<?xml version="1.0" encoding="UTF-8"?>
<svg xmlns="http://www.w3.org/2000/svg" xmlns:xlink="http://www.w3.org/1999/xlink" width="80px" height="20px" viewBox="0 0 80 20" version="1.1">
<defs>
<clipPath id="clip1">
  <path d="M 1.289062 0 L 78.707031 0 L 78.707031 19.355469 L 1.289062 19.355469 Z M 1.289062 0 "/>
</clipPath>
<clipPath id="clip2">
  <path d="M 1.289062 0 L 23.332031 0 L 23.332031 19.355469 L 1.289062 19.355469 Z M 1.289062 0 "/>
</clipPath>
<clipPath id="clip3">
  <path d="M 10.53125 3.613281 L 20.207031 3.613281 L 20.207031 12.804688 L 10.53125 12.804688 Z M 10.53125 3.613281 "/>
</clipPath>
</defs>
<g id="surface1">
<g clip-path="url(#clip1)" clip-rule="nonzero">
<path style=" stroke:none;fill-rule:nonzero;fill:rgb(100%,100%,100%);fill-opacity:1;" d="M 1.289062 0 L 78.710938 0 L 78.710938 24.191406 L 1.289062 24.191406 Z M 1.289062 0 "/>
<path style=" stroke:none;fill-rule:nonzero;fill:rgb(100%,100%,100%);fill-opacity:1;" d="M 1.289062 0 L 78.710938 0 L 78.710938 19.355469 L 1.289062 19.355469 Z M 1.289062 0 "/>
<path style=" stroke:none;fill-rule:nonzero;fill:rgb(100%,100%,100%);fill-opacity:1;" d="M 1.289062 0 L 78.710938 0 L 78.710938 19.355469 L 1.289062 19.355469 Z M 1.289062 0 "/>
<path style=" stroke:none;fill-rule:nonzero;fill:rgb(100%,100%,100%);fill-opacity:1;" d="M 1.289062 0 L 78.710938 0 L 78.710938 19.355469 L 1.289062 19.355469 Z M 1.289062 0 "/>
<path style=" stroke:none;fill-rule:nonzero;fill:rgb(0%,60%,80%);fill-opacity:1;" d="M 78.183594 0 L 1.816406 0 C 1.523438 0 1.289062 0.234375 1.289062 0.523438 L 1.289062 18.832031 C 1.289062 19.121094 1.523438 19.355469 1.816406 19.355469 L 78.183594 19.355469 C 78.476562 19.355469 78.710938 19.121094 78.710938 18.832031 L 78.710938 0.523438 C 78.710938 0.234375 78.476562 0 78.183594 0 "/>
</g>
<g clip-path="url(#clip2)" clip-rule="nonzero">
<path style=" stroke:none;fill-rule:nonzero;fill:rgb(45.098039%,45.098039%,45.098039%);fill-opacity:1;" d="M 22.542969 0.00390625 L 1.8125 0.00390625 C 1.523438 0.00390625 1.289062 0.238281 1.289062 0.527344 L 1.289062 18.828125 C 1.289062 19.121094 1.523438 19.351562 1.8125 19.351562 L 22.542969 19.351562 C 22.832031 19.351562 23.066406 19.121094 23.066406 18.828125 L 23.066406 0.527344 C 23.066406 0.238281 22.832031 0.00390625 22.542969 0.00390625 "/>
</g>
<g clip-path="url(#clip3)" clip-rule="nonzero">
<path style=" stroke:none;fill-rule:nonzero;fill:rgb(100%,100%,100%);fill-opacity:1;" d="M 19.996094 3.613281 L 18.105469 3.613281 C 18.019531 3.613281 17.933594 3.652344 17.914062 3.738281 L 15.371094 9.859375 L 12.824219 3.738281 C 12.804688 3.652344 12.71875 3.613281 12.636719 3.613281 L 10.742188 3.613281 C 10.617188 3.613281 10.53125 3.695312 10.53125 3.820312 L 10.53125 12.597656 C 10.53125 12.722656 10.617188 12.804688 10.742188 12.804688 L 12.214844 12.804688 C 12.339844 12.804688 12.425781 12.722656 12.425781 12.597656 L 12.425781 6.957031 L 12.574219 6.957031 L 14.695312 12.050781 C 14.738281 12.136719 14.800781 12.179688 14.886719 12.179688 L 15.875 12.179688 C 15.957031 12.179688 16.042969 12.136719 16.0625 12.050781 L 18.167969 6.957031 L 18.316406 6.957031 L 18.316406 12.597656 C 18.316406 12.722656 18.398438 12.804688 18.523438 12.804688 L 19.996094 12.804688 C 20.121094 12.804688 20.207031 12.722656 20.207031 12.597656 L 20.207031 3.820312 C 20.207031 3.695312 20.121094 3.613281 19.996094 3.613281 Z M 19.996094 3.613281 "/>
</g>
<path style=" stroke:none;fill-rule:nonzero;fill:rgb(100%,100%,100%);fill-opacity:1;" d="M 6.480469 6.148438 C 5.410156 6.148438 4.542969 7.015625 4.542969 8.085938 C 4.542969 9.152344 5.410156 10.019531 6.480469 10.019531 C 7.546875 10.019531 8.414062 9.152344 8.414062 8.085938 C 8.414062 7.015625 7.546875 6.148438 6.480469 6.148438 "/>
<path style=" stroke:none;fill-rule:nonzero;fill:rgb(100%,100%,100%);fill-opacity:1;" d="M 5.207031 14.617188 C 5.207031 14.550781 5.207031 14.480469 5.207031 14.414062 C 5.207031 14.347656 5.207031 14.28125 5.207031 14.210938 L 5.207031 14.011719 C 5.207031 14 5.207031 13.988281 5.207031 13.980469 C 5.207031 13.980469 5.207031 13.976562 5.207031 13.972656 C 5.207031 13.964844 5.199219 13.960938 5.199219 13.949219 C 5.199219 13.941406 5.199219 13.929688 5.195312 13.917969 C 5.191406 13.910156 5.183594 13.902344 5.175781 13.890625 C 5.167969 13.875 5.148438 13.859375 5.128906 13.855469 C 5.121094 13.847656 5.109375 13.84375 5.101562 13.84375 C 5.085938 13.84375 5.074219 13.847656 5.066406 13.851562 C 5.050781 13.855469 5.035156 13.863281 5.023438 13.875 C 5.011719 13.886719 5.003906 13.898438 4.992188 13.910156 L 4.984375 13.933594 C 4.980469 13.941406 4.972656 13.945312 4.972656 13.953125 C 4.96875 13.964844 4.972656 13.980469 4.972656 13.988281 C 4.96875 14.011719 4.964844 14.035156 4.964844 14.058594 C 4.964844 14.121094 4.972656 14.1875 4.972656 14.253906 C 4.972656 14.316406 4.96875 14.386719 4.96875 14.449219 C 4.96875 14.515625 4.96875 14.582031 4.96875 14.648438 L 4.96875 14.84375 C 4.96875 14.910156 4.972656 14.972656 4.972656 15.042969 C 4.972656 15.105469 4.964844 15.171875 4.964844 15.238281 C 4.964844 15.253906 4.96875 15.269531 4.964844 15.28125 C 4.960938 15.300781 4.957031 15.308594 4.945312 15.320312 C 4.9375 15.324219 4.933594 15.332031 4.925781 15.332031 C 4.914062 15.335938 4.898438 15.335938 4.886719 15.335938 C 4.878906 15.335938 4.875 15.335938 4.867188 15.332031 C 4.859375 15.332031 4.851562 15.335938 4.84375 15.339844 L 4.839844 15.339844 C 4.800781 15.339844 4.761719 15.339844 4.726562 15.339844 L 4.695312 15.339844 C 4.691406 15.339844 4.691406 15.335938 4.6875 15.339844 L 4.683594 15.335938 C 4.675781 15.335938 4.667969 15.339844 4.664062 15.335938 C 4.660156 15.335938 4.660156 15.339844 4.660156 15.339844 C 4.652344 15.339844 4.640625 15.335938 4.628906 15.332031 C 4.617188 15.324219 4.605469 15.3125 4.597656 15.300781 C 4.597656 15.289062 4.59375 15.28125 4.59375 15.273438 C 4.589844 15.265625 4.589844 15.261719 4.589844 15.253906 C 4.589844 15.234375 4.589844 15.214844 4.589844 15.191406 C 4.589844 15.128906 4.59375 15.0625 4.59375 14.996094 C 4.59375 14.933594 4.589844 14.867188 4.589844 14.800781 L 4.589844 14.605469 C 4.589844 14.542969 4.59375 14.472656 4.59375 14.410156 C 4.59375 14.34375 4.589844 14.277344 4.589844 14.214844 C 4.589844 14.144531 4.597656 14.082031 4.597656 14.015625 C 4.597656 14.003906 4.589844 13.996094 4.589844 13.980469 C 4.585938 13.972656 4.589844 13.964844 4.589844 13.949219 L 4.589844 13.941406 C 4.582031 13.925781 4.574219 13.917969 4.570312 13.90625 C 4.566406 13.898438 4.566406 13.886719 4.558594 13.878906 C 4.554688 13.878906 4.550781 13.875 4.542969 13.871094 C 4.535156 13.859375 4.519531 13.855469 4.503906 13.847656 C 4.496094 13.847656 4.488281 13.84375 4.480469 13.847656 L 4.472656 13.847656 C 4.457031 13.847656 4.449219 13.855469 4.4375 13.859375 C 4.425781 13.867188 4.410156 13.875 4.402344 13.882812 C 4.398438 13.886719 4.394531 13.890625 4.390625 13.894531 C 4.378906 13.914062 4.363281 13.933594 4.359375 13.953125 C 4.359375 13.964844 4.363281 13.976562 4.363281 13.984375 L 4.363281 13.988281 C 4.359375 14.003906 4.355469 14.019531 4.355469 14.035156 C 4.355469 14.101562 4.359375 14.164062 4.359375 14.226562 C 4.359375 14.292969 4.355469 14.355469 4.355469 14.417969 L 4.355469 14.609375 C 4.355469 14.675781 4.359375 14.738281 4.359375 14.800781 C 4.359375 14.867188 4.359375 14.929688 4.359375 14.992188 L 4.359375 15.183594 C 4.359375 15.195312 4.359375 15.210938 4.359375 15.222656 L 4.359375 15.265625 C 4.359375 15.277344 4.351562 15.289062 4.34375 15.300781 C 4.339844 15.3125 4.332031 15.324219 4.320312 15.332031 C 4.3125 15.332031 4.304688 15.335938 4.296875 15.335938 C 4.292969 15.339844 4.285156 15.335938 4.277344 15.335938 C 4.277344 15.339844 4.269531 15.335938 4.269531 15.339844 L 4.265625 15.339844 C 4.253906 15.335938 4.242188 15.339844 4.230469 15.339844 L 4.222656 15.339844 C 4.1875 15.339844 4.152344 15.332031 4.113281 15.332031 C 4.101562 15.332031 4.09375 15.335938 4.082031 15.339844 C 4.082031 15.339844 4.078125 15.335938 4.074219 15.335938 C 4.074219 15.335938 4.074219 15.332031 4.074219 15.332031 C 4.058594 15.332031 4.050781 15.332031 4.035156 15.332031 C 4.027344 15.328125 4.015625 15.328125 4.007812 15.320312 C 4 15.316406 3.996094 15.308594 3.996094 15.300781 C 3.988281 15.289062 3.980469 15.277344 3.980469 15.265625 C 3.980469 15.253906 3.984375 15.238281 3.984375 15.226562 L 3.984375 15.21875 C 3.980469 15.191406 3.980469 15.167969 3.980469 15.144531 C 3.980469 15.121094 3.984375 15.097656 3.984375 15.074219 C 3.984375 15.011719 3.980469 14.941406 3.980469 14.875 C 3.980469 14.808594 3.980469 14.742188 3.980469 14.675781 L 3.980469 14.476562 C 3.980469 14.410156 3.980469 14.34375 3.980469 14.277344 L 3.980469 14.078125 C 3.984375 14.042969 3.976562 14.011719 3.980469 13.980469 C 3.980469 13.96875 3.984375 13.957031 3.984375 13.945312 C 3.988281 13.9375 3.980469 13.933594 3.980469 13.925781 C 3.984375 13.917969 3.988281 13.910156 3.988281 13.902344 C 3.988281 13.882812 3.996094 13.863281 4.003906 13.839844 C 4.003906 13.835938 4.003906 13.832031 4.003906 13.828125 C 4.003906 13.824219 4.003906 13.820312 4.003906 13.816406 C 4.007812 13.808594 4.011719 13.800781 4.019531 13.789062 C 4.019531 13.78125 4.019531 13.773438 4.023438 13.761719 C 4.027344 13.761719 4.027344 13.753906 4.027344 13.753906 C 4.042969 13.730469 4.058594 13.707031 4.074219 13.683594 C 4.085938 13.667969 4.097656 13.65625 4.105469 13.644531 C 4.117188 13.632812 4.128906 13.621094 4.144531 13.605469 C 4.152344 13.597656 4.160156 13.585938 4.175781 13.578125 C 4.183594 13.566406 4.191406 13.5625 4.203125 13.554688 C 4.214844 13.546875 4.222656 13.535156 4.238281 13.527344 C 4.253906 13.519531 4.269531 13.515625 4.28125 13.507812 C 4.292969 13.503906 4.300781 13.5 4.308594 13.496094 C 4.316406 13.496094 4.324219 13.496094 4.332031 13.492188 C 4.34375 13.488281 4.355469 13.488281 4.363281 13.488281 C 4.378906 13.484375 4.394531 13.472656 4.40625 13.472656 C 4.417969 13.472656 4.425781 13.472656 4.4375 13.472656 L 4.449219 13.472656 C 4.464844 13.46875 4.488281 13.464844 4.503906 13.464844 C 4.535156 13.46875 4.558594 13.472656 4.546875 13.472656 C 4.558594 13.472656 4.574219 13.472656 4.589844 13.476562 C 4.597656 13.480469 4.605469 13.488281 4.617188 13.488281 C 4.628906 13.496094 4.640625 13.496094 4.652344 13.496094 C 4.660156 13.503906 4.675781 13.503906 4.683594 13.511719 C 4.699219 13.515625 4.714844 13.519531 4.726562 13.527344 C 4.738281 13.535156 4.742188 13.546875 4.753906 13.550781 C 4.761719 13.554688 4.773438 13.554688 4.78125 13.558594 C 4.789062 13.558594 4.796875 13.558594 4.800781 13.554688 C 4.816406 13.550781 4.828125 13.542969 4.839844 13.535156 C 4.855469 13.527344 4.871094 13.519531 4.890625 13.511719 C 4.902344 13.507812 4.914062 13.5 4.925781 13.496094 C 4.933594 13.496094 4.941406 13.496094 4.949219 13.492188 C 4.964844 13.488281 4.976562 13.480469 4.988281 13.476562 C 5.003906 13.472656 5.019531 13.472656 5.03125 13.472656 C 5.085938 13.464844 5.230469 13.464844 5.144531 13.46875 C 5.160156 13.472656 5.179688 13.476562 5.199219 13.480469 L 5.230469 13.488281 C 5.246094 13.488281 5.261719 13.496094 5.277344 13.503906 C 5.296875 13.511719 5.316406 13.519531 5.335938 13.53125 L 5.359375 13.542969 C 5.371094 13.550781 5.378906 13.558594 5.390625 13.566406 L 5.40625 13.582031 C 5.410156 13.582031 5.40625 13.585938 5.40625 13.585938 C 5.417969 13.597656 5.433594 13.605469 5.441406 13.613281 C 5.457031 13.632812 5.476562 13.652344 5.488281 13.667969 C 5.5 13.683594 5.503906 13.699219 5.511719 13.714844 C 5.519531 13.730469 5.527344 13.738281 5.535156 13.753906 C 5.542969 13.765625 5.542969 13.785156 5.550781 13.800781 C 5.558594 13.816406 5.5625 13.832031 5.566406 13.847656 C 5.574219 13.867188 5.574219 13.878906 5.578125 13.894531 C 5.582031 13.90625 5.574219 13.917969 5.574219 13.925781 C 5.574219 13.933594 5.582031 13.941406 5.582031 13.949219 C 5.582031 13.953125 5.582031 13.957031 5.582031 13.960938 L 5.582031 13.976562 C 5.585938 13.976562 5.582031 14.019531 5.582031 14.019531 C 5.582031 14.035156 5.585938 14.046875 5.585938 14.066406 C 5.585938 14.078125 5.582031 14.089844 5.582031 14.105469 C 5.582031 14.167969 5.585938 14.230469 5.585938 14.292969 L 5.585938 14.484375 C 5.585938 14.546875 5.585938 14.609375 5.585938 14.671875 L 5.585938 14.863281 C 5.585938 14.925781 5.582031 14.988281 5.582031 15.050781 C 5.582031 15.113281 5.582031 15.175781 5.582031 15.238281 C 5.582031 15.253906 5.582031 15.269531 5.582031 15.28125 C 5.574219 15.300781 5.566406 15.308594 5.554688 15.320312 C 5.550781 15.324219 5.542969 15.328125 5.535156 15.332031 C 5.523438 15.335938 5.511719 15.332031 5.5 15.332031 C 5.496094 15.332031 5.496094 15.339844 5.496094 15.339844 L 5.488281 15.339844 C 5.480469 15.335938 5.464844 15.339844 5.457031 15.339844 C 5.453125 15.339844 5.449219 15.335938 5.449219 15.335938 C 5.414062 15.335938 5.375 15.339844 5.335938 15.335938 L 5.308594 15.335938 C 5.308594 15.335938 5.304688 15.339844 5.300781 15.339844 C 5.292969 15.339844 5.28125 15.335938 5.273438 15.335938 C 5.273438 15.335938 5.273438 15.332031 5.269531 15.332031 C 5.261719 15.332031 5.253906 15.332031 5.242188 15.332031 C 5.230469 15.324219 5.222656 15.316406 5.21875 15.304688 C 5.214844 15.292969 5.207031 15.285156 5.207031 15.273438 C 5.207031 15.265625 5.210938 15.257812 5.207031 15.253906 C 5.207031 15.230469 5.207031 15.210938 5.207031 15.191406 C 5.207031 15.128906 5.207031 15.0625 5.207031 14.996094 L 5.207031 14.808594 C 5.207031 14.746094 5.207031 14.683594 5.207031 14.617188 Z M 5.207031 14.617188 "/>
<path style=" stroke:none;fill-rule:nonzero;fill:rgb(100%,100%,100%);fill-opacity:1;" d="M 6.898438 14.371094 C 6.898438 14.351562 6.902344 14.332031 6.90625 14.3125 C 6.894531 14.308594 6.925781 14.191406 6.929688 14.171875 C 6.949219 14.085938 6.984375 14.003906 7.023438 13.925781 C 7.042969 13.898438 7.0625 13.867188 7.085938 13.839844 C 7.128906 13.777344 7.1875 13.714844 7.242188 13.667969 C 7.25 13.660156 7.257812 13.652344 7.269531 13.648438 C 7.273438 13.644531 7.277344 13.644531 7.28125 13.636719 L 7.363281 13.582031 C 7.367188 13.582031 7.378906 13.582031 7.382812 13.574219 C 7.390625 13.570312 7.398438 13.566406 7.40625 13.5625 C 7.410156 13.558594 7.410156 13.554688 7.414062 13.554688 C 7.414062 13.550781 7.414062 13.554688 7.417969 13.554688 C 7.421875 13.550781 7.429688 13.542969 7.4375 13.542969 C 7.445312 13.535156 7.453125 13.535156 7.460938 13.53125 C 7.464844 13.53125 7.46875 13.527344 7.46875 13.527344 C 7.484375 13.519531 7.496094 13.519531 7.507812 13.511719 C 7.515625 13.511719 7.53125 13.507812 7.539062 13.503906 C 7.546875 13.503906 7.550781 13.496094 7.554688 13.496094 C 7.558594 13.492188 7.5625 13.492188 7.570312 13.492188 C 7.570312 13.488281 7.578125 13.492188 7.578125 13.492188 C 7.585938 13.488281 7.589844 13.488281 7.59375 13.488281 C 7.601562 13.488281 7.605469 13.480469 7.609375 13.476562 C 7.617188 13.472656 7.621094 13.472656 7.625 13.472656 L 7.679688 13.460938 C 7.691406 13.460938 7.703125 13.460938 7.71875 13.457031 C 7.726562 13.457031 7.734375 13.453125 7.742188 13.453125 C 7.757812 13.449219 7.765625 13.453125 7.78125 13.449219 C 7.808594 13.449219 7.839844 13.457031 7.855469 13.484375 C 7.859375 13.492188 7.859375 13.503906 7.863281 13.511719 C 7.867188 13.554688 7.871094 13.601562 7.871094 13.644531 C 7.871094 13.675781 7.871094 13.699219 7.867188 13.722656 C 7.867188 13.777344 7.855469 13.824219 7.796875 13.832031 L 7.785156 13.832031 C 7.78125 13.832031 7.773438 13.832031 7.769531 13.832031 L 7.730469 13.839844 C 7.578125 13.875 7.429688 13.980469 7.351562 14.117188 C 7.347656 14.128906 7.347656 14.136719 7.34375 14.152344 L 7.332031 14.167969 C 7.332031 14.175781 7.335938 14.175781 7.335938 14.179688 C 7.335938 14.183594 7.335938 14.191406 7.339844 14.195312 C 7.34375 14.199219 7.347656 14.207031 7.351562 14.207031 C 7.367188 14.210938 7.375 14.207031 7.382812 14.207031 C 7.394531 14.207031 7.40625 14.210938 7.417969 14.210938 C 7.421875 14.210938 7.421875 14.210938 7.421875 14.210938 L 7.429688 14.210938 C 7.429688 14.207031 7.433594 14.214844 7.4375 14.214844 C 7.488281 14.214844 7.539062 14.214844 7.589844 14.210938 C 7.617188 14.210938 7.640625 14.210938 7.664062 14.207031 C 7.6875 14.207031 7.707031 14.214844 7.726562 14.214844 L 7.734375 14.214844 C 7.753906 14.214844 7.78125 14.214844 7.796875 14.21875 C 7.796875 14.222656 7.796875 14.222656 7.800781 14.222656 C 7.816406 14.230469 7.828125 14.25 7.828125 14.269531 C 7.832031 14.277344 7.832031 14.292969 7.832031 14.300781 C 7.832031 14.320312 7.832031 14.34375 7.832031 14.363281 L 7.832031 14.460938 C 7.832031 14.464844 7.828125 14.464844 7.828125 14.464844 C 7.828125 14.46875 7.835938 14.472656 7.835938 14.476562 C 7.835938 14.503906 7.835938 14.554688 7.808594 14.574219 C 7.789062 14.589844 7.765625 14.59375 7.742188 14.59375 C 7.726562 14.59375 7.710938 14.59375 7.695312 14.589844 C 7.648438 14.589844 7.59375 14.59375 7.546875 14.59375 C 7.492188 14.59375 7.441406 14.589844 7.390625 14.589844 C 7.382812 14.589844 7.367188 14.589844 7.359375 14.597656 C 7.347656 14.597656 7.34375 14.605469 7.339844 14.609375 C 7.335938 14.613281 7.332031 14.621094 7.332031 14.628906 C 7.332031 14.632812 7.328125 14.636719 7.332031 14.644531 C 7.332031 14.652344 7.335938 14.65625 7.34375 14.664062 C 7.34375 14.667969 7.34375 14.667969 7.34375 14.671875 L 7.363281 14.703125 C 7.371094 14.71875 7.386719 14.734375 7.398438 14.75 C 7.414062 14.777344 7.4375 14.792969 7.460938 14.820312 C 7.472656 14.828125 7.476562 14.839844 7.488281 14.851562 C 7.515625 14.871094 7.554688 14.890625 7.585938 14.910156 C 7.632812 14.933594 7.683594 14.957031 7.734375 14.964844 C 7.742188 14.96875 7.75 14.96875 7.757812 14.96875 C 7.765625 14.972656 7.777344 14.972656 7.785156 14.972656 C 7.796875 14.976562 7.808594 14.980469 7.820312 14.984375 C 7.828125 14.988281 7.835938 14.992188 7.84375 15 C 7.851562 15.003906 7.855469 15.011719 7.859375 15.015625 C 7.867188 15.027344 7.867188 15.035156 7.867188 15.042969 C 7.867188 15.050781 7.867188 15.054688 7.867188 15.058594 L 7.867188 15.070312 C 7.867188 15.089844 7.867188 15.113281 7.867188 15.136719 C 7.867188 15.160156 7.867188 15.179688 7.867188 15.207031 C 7.867188 15.226562 7.867188 15.246094 7.863281 15.269531 C 7.863281 15.285156 7.867188 15.308594 7.859375 15.324219 C 7.859375 15.328125 7.855469 15.332031 7.851562 15.339844 L 7.84375 15.34375 C 7.84375 15.347656 7.832031 15.347656 7.828125 15.347656 C 7.8125 15.355469 7.800781 15.359375 7.789062 15.359375 C 7.777344 15.359375 7.765625 15.359375 7.757812 15.355469 C 7.75 15.351562 7.734375 15.355469 7.726562 15.355469 C 7.710938 15.351562 7.695312 15.347656 7.679688 15.34375 C 7.679688 15.34375 7.671875 15.347656 7.671875 15.34375 C 7.660156 15.34375 7.652344 15.335938 7.640625 15.332031 C 7.632812 15.332031 7.625 15.335938 7.617188 15.332031 C 7.605469 15.332031 7.589844 15.324219 7.578125 15.320312 C 7.550781 15.308594 7.523438 15.296875 7.496094 15.285156 C 7.472656 15.277344 7.445312 15.273438 7.425781 15.261719 C 7.421875 15.261719 7.414062 15.253906 7.421875 15.25 C 7.40625 15.261719 7.324219 15.195312 7.3125 15.1875 C 7.304688 15.183594 7.292969 15.179688 7.28125 15.171875 C 7.273438 15.164062 7.265625 15.15625 7.25 15.148438 C 7.230469 15.132812 7.210938 15.109375 7.191406 15.089844 C 7.152344 15.058594 7.117188 15.011719 7.085938 14.972656 L 7.0625 14.941406 C 7.050781 14.925781 7.046875 14.90625 7.035156 14.886719 C 7.03125 14.878906 7.023438 14.875 7.019531 14.867188 L 7.015625 14.855469 C 7 14.832031 6.984375 14.800781 6.96875 14.773438 C 6.960938 14.738281 6.945312 14.707031 6.9375 14.675781 L 6.929688 14.648438 C 6.925781 14.640625 6.929688 14.632812 6.925781 14.621094 C 6.921875 14.613281 6.921875 14.605469 6.921875 14.59375 C 6.921875 14.582031 6.914062 14.574219 6.910156 14.566406 C 6.90625 14.550781 6.90625 14.535156 6.90625 14.515625 C 6.902344 14.496094 6.902344 14.476562 6.902344 14.457031 C 6.898438 14.425781 6.898438 14.398438 6.898438 14.371094 Z M 6.898438 14.371094 "/>
<path style=" stroke:none;fill-rule:nonzero;fill:rgb(100%,100%,100%);fill-opacity:1;" d="M 9.214844 14.398438 C 9.214844 14.34375 9.210938 14.285156 9.210938 14.226562 C 9.210938 14.167969 9.214844 14.113281 9.214844 14.054688 C 9.214844 13.996094 9.210938 13.9375 9.210938 13.882812 L 9.210938 13.707031 C 9.210938 13.652344 9.214844 13.59375 9.214844 13.535156 C 9.214844 13.523438 9.214844 13.511719 9.214844 13.503906 C 9.21875 13.492188 9.230469 13.484375 9.238281 13.476562 C 9.246094 13.472656 9.253906 13.472656 9.261719 13.472656 C 9.285156 13.46875 9.304688 13.464844 9.328125 13.464844 C 9.394531 13.464844 9.464844 13.472656 9.535156 13.472656 C 9.652344 13.472656 9.734375 13.46875 9.746094 13.472656 C 9.757812 13.472656 9.769531 13.46875 9.78125 13.46875 L 9.804688 13.46875 C 9.8125 13.472656 9.820312 13.472656 9.824219 13.472656 C 9.847656 13.476562 9.871094 13.488281 9.894531 13.496094 C 9.914062 13.5 9.933594 13.503906 9.957031 13.511719 L 9.996094 13.527344 C 10.003906 13.53125 10.011719 13.539062 10.019531 13.542969 C 10.03125 13.546875 10.039062 13.550781 10.046875 13.554688 C 10.050781 13.558594 10.054688 13.554688 10.058594 13.554688 L 10.117188 13.597656 C 10.125 13.605469 10.136719 13.613281 10.144531 13.621094 C 10.152344 13.628906 10.164062 13.640625 10.175781 13.648438 C 10.1875 13.660156 10.191406 13.675781 10.203125 13.683594 C 10.214844 13.699219 10.230469 13.707031 10.238281 13.722656 C 10.246094 13.734375 10.253906 13.746094 10.261719 13.761719 C 10.277344 13.777344 10.285156 13.789062 10.292969 13.800781 L 10.292969 13.8125 C 10.304688 13.832031 10.308594 13.851562 10.316406 13.875 C 10.324219 13.894531 10.328125 13.910156 10.332031 13.929688 C 10.339844 13.941406 10.34375 13.960938 10.347656 13.972656 C 10.351562 13.988281 10.347656 14.003906 10.351562 14.019531 C 10.351562 14.03125 10.359375 14.042969 10.359375 14.058594 C 10.359375 14.058594 10.355469 14.058594 10.355469 14.058594 L 10.355469 14.109375 C 10.355469 14.121094 10.355469 14.128906 10.355469 14.140625 C 10.355469 14.152344 10.355469 14.15625 10.355469 14.160156 L 10.347656 14.214844 C 10.34375 14.226562 10.34375 14.238281 10.339844 14.253906 C 10.335938 14.273438 10.324219 14.289062 10.316406 14.308594 C 10.3125 14.320312 10.308594 14.335938 10.304688 14.351562 C 10.296875 14.363281 10.292969 14.375 10.285156 14.386719 C 10.28125 14.394531 10.277344 14.410156 10.273438 14.417969 C 10.261719 14.433594 10.253906 14.441406 10.246094 14.453125 C 10.234375 14.46875 10.222656 14.484375 10.214844 14.496094 C 10.210938 14.503906 10.210938 14.503906 10.210938 14.511719 C 10.207031 14.519531 10.207031 14.527344 10.210938 14.535156 C 10.214844 14.542969 10.222656 14.550781 10.230469 14.558594 C 10.238281 14.578125 10.253906 14.59375 10.265625 14.613281 C 10.277344 14.628906 10.285156 14.648438 10.289062 14.664062 C 10.292969 14.675781 10.300781 14.683594 10.304688 14.691406 C 10.3125 14.710938 10.3125 14.730469 10.316406 14.753906 C 10.320312 14.769531 10.332031 14.785156 10.332031 14.800781 C 10.332031 14.8125 10.328125 14.828125 10.328125 14.839844 L 10.328125 14.886719 C 10.328125 14.953125 10.332031 15.019531 10.332031 15.082031 C 10.332031 15.152344 10.332031 15.21875 10.332031 15.28125 L 10.332031 15.304688 C 10.328125 15.3125 10.324219 15.320312 10.320312 15.324219 L 10.3125 15.332031 C 10.304688 15.339844 10.292969 15.339844 10.285156 15.339844 C 10.285156 15.339844 10.285156 15.339844 10.28125 15.339844 L 10.007812 15.339844 C 10 15.339844 9.992188 15.339844 9.980469 15.335938 C 9.96875 15.332031 9.957031 15.324219 9.953125 15.308594 C 9.953125 15.300781 9.957031 15.292969 9.957031 15.285156 C 9.957031 15.226562 9.957031 15.164062 9.957031 15.105469 C 9.957031 15.042969 9.957031 14.980469 9.957031 14.917969 C 9.957031 14.902344 9.949219 14.882812 9.949219 14.867188 C 9.949219 14.84375 9.945312 14.824219 9.9375 14.800781 C 9.929688 14.789062 9.925781 14.773438 9.914062 14.761719 C 9.902344 14.75 9.882812 14.742188 9.863281 14.734375 C 9.855469 14.730469 9.847656 14.730469 9.839844 14.726562 C 9.824219 14.722656 9.808594 14.714844 9.789062 14.714844 L 9.785156 14.714844 C 9.765625 14.714844 9.746094 14.714844 9.722656 14.714844 C 9.699219 14.714844 9.675781 14.71875 9.652344 14.71875 L 9.621094 14.71875 C 9.613281 14.722656 9.605469 14.71875 9.597656 14.726562 C 9.59375 14.730469 9.589844 14.730469 9.589844 14.734375 C 9.589844 14.738281 9.589844 14.746094 9.589844 14.753906 C 9.585938 14.808594 9.589844 14.871094 9.589844 14.925781 C 9.589844 14.980469 9.589844 15.042969 9.589844 15.097656 C 9.589844 15.152344 9.589844 15.214844 9.589844 15.269531 C 9.589844 15.277344 9.585938 15.28125 9.582031 15.289062 C 9.582031 15.300781 9.582031 15.3125 9.570312 15.316406 C 9.566406 15.320312 9.5625 15.324219 9.554688 15.324219 C 9.550781 15.324219 9.542969 15.328125 9.535156 15.328125 C 9.445312 15.328125 9.359375 15.324219 9.273438 15.324219 C 9.265625 15.324219 9.253906 15.332031 9.25 15.328125 C 9.234375 15.324219 9.226562 15.3125 9.21875 15.296875 L 9.210938 15.269531 C 9.210938 15.265625 9.214844 15.257812 9.214844 15.253906 L 9.214844 15.039062 C 9.214844 14.964844 9.214844 14.894531 9.214844 14.824219 L 9.214844 14.613281 C 9.214844 14.542969 9.214844 14.472656 9.214844 14.398438 Z M 9.589844 14.097656 C 9.589844 14.160156 9.589844 14.214844 9.589844 14.277344 C 9.589844 14.285156 9.589844 14.292969 9.589844 14.304688 L 9.589844 14.308594 C 9.589844 14.316406 9.59375 14.316406 9.59375 14.320312 C 9.597656 14.324219 9.597656 14.328125 9.605469 14.332031 C 9.613281 14.335938 9.617188 14.34375 9.625 14.34375 L 9.6875 14.34375 C 9.710938 14.339844 9.730469 14.34375 9.753906 14.339844 C 9.761719 14.339844 9.777344 14.34375 9.785156 14.339844 C 9.816406 14.332031 9.835938 14.316406 9.859375 14.304688 C 9.871094 14.296875 9.890625 14.292969 9.902344 14.285156 C 9.910156 14.277344 9.917969 14.269531 9.925781 14.257812 C 9.933594 14.246094 9.941406 14.226562 9.949219 14.214844 C 9.957031 14.199219 9.960938 14.1875 9.964844 14.175781 C 9.972656 14.160156 9.976562 14.144531 9.976562 14.128906 C 9.980469 14.121094 9.988281 14.113281 9.988281 14.101562 C 9.988281 14.089844 9.980469 14.078125 9.980469 14.066406 C 9.980469 14.042969 9.972656 14.027344 9.96875 14.011719 C 9.964844 13.996094 9.957031 13.976562 9.945312 13.960938 L 9.917969 13.925781 C 9.910156 13.917969 9.894531 13.910156 9.882812 13.902344 C 9.871094 13.894531 9.859375 13.886719 9.847656 13.878906 L 9.808594 13.863281 C 9.800781 13.859375 9.789062 13.855469 9.777344 13.855469 C 9.773438 13.855469 9.765625 13.847656 9.761719 13.847656 C 9.753906 13.847656 9.742188 13.851562 9.734375 13.851562 L 9.628906 13.851562 C 9.625 13.851562 9.621094 13.855469 9.613281 13.855469 C 9.605469 13.855469 9.597656 13.867188 9.59375 13.875 C 9.59375 13.886719 9.589844 13.898438 9.589844 13.910156 Z M 9.589844 14.097656 "/>
<path style=" stroke:none;fill-rule:nonzero;fill:rgb(100%,100%,100%);fill-opacity:1;" d="M 12.597656 13.453125 C 12.617188 13.453125 12.644531 13.449219 12.664062 13.449219 C 12.675781 13.449219 12.691406 13.453125 12.703125 13.457031 C 12.710938 13.460938 12.726562 13.460938 12.730469 13.46875 C 12.734375 13.472656 12.734375 13.476562 12.738281 13.480469 C 12.742188 13.488281 12.746094 13.496094 12.746094 13.503906 C 12.753906 13.535156 12.757812 13.570312 12.757812 13.609375 C 12.757812 13.644531 12.753906 13.683594 12.753906 13.714844 L 12.753906 13.726562 C 12.753906 13.730469 12.757812 13.730469 12.757812 13.734375 C 12.757812 13.738281 12.757812 13.746094 12.757812 13.75 L 12.753906 13.753906 C 12.753906 13.785156 12.742188 13.820312 12.710938 13.832031 C 12.699219 13.839844 12.691406 13.835938 12.683594 13.839844 C 12.675781 13.839844 12.667969 13.839844 12.660156 13.839844 C 12.585938 13.847656 12.515625 13.851562 12.449219 13.863281 C 12.378906 13.875 12.308594 13.886719 12.246094 13.933594 C 12.183594 13.976562 12.121094 14.027344 12.082031 14.09375 C 12.078125 14.101562 12.070312 14.105469 12.066406 14.113281 L 12.042969 14.152344 C 12.035156 14.171875 12.03125 14.191406 12.023438 14.214844 C 12.015625 14.234375 12.015625 14.257812 12.011719 14.277344 C 12.003906 14.292969 11.992188 14.3125 11.988281 14.332031 C 11.988281 14.355469 11.988281 14.371094 11.988281 14.394531 C 11.988281 14.429688 11.988281 14.464844 11.996094 14.503906 C 11.996094 14.503906 12.003906 14.503906 12.007812 14.507812 C 12.011719 14.527344 12.011719 14.542969 12.019531 14.558594 C 12.035156 14.609375 12.050781 14.660156 12.082031 14.703125 C 12.105469 14.746094 12.136719 14.792969 12.179688 14.828125 C 12.191406 14.835938 12.203125 14.839844 12.210938 14.84375 C 12.285156 14.902344 12.375 14.9375 12.46875 14.949219 C 12.480469 14.953125 12.496094 14.964844 12.507812 14.964844 C 12.535156 14.964844 12.578125 14.957031 12.617188 14.957031 C 12.667969 14.957031 12.71875 14.964844 12.738281 15 C 12.746094 15.003906 12.753906 15.011719 12.753906 15.019531 C 12.753906 15.019531 12.753906 15.023438 12.753906 15.027344 C 12.753906 15.035156 12.75 15.042969 12.75 15.046875 C 12.75 15.050781 12.753906 15.054688 12.753906 15.058594 C 12.753906 15.058594 12.757812 15.0625 12.757812 15.066406 C 12.753906 15.070312 12.753906 15.074219 12.753906 15.082031 C 12.753906 15.082031 12.761719 15.082031 12.761719 15.085938 C 12.761719 15.136719 12.753906 15.183594 12.753906 15.230469 C 12.753906 15.234375 12.757812 15.238281 12.757812 15.238281 C 12.753906 15.242188 12.753906 15.246094 12.753906 15.25 C 12.753906 15.253906 12.753906 15.253906 12.75 15.257812 C 12.75 15.261719 12.757812 15.265625 12.757812 15.269531 C 12.757812 15.285156 12.75 15.296875 12.746094 15.308594 C 12.730469 15.351562 12.675781 15.359375 12.628906 15.359375 C 12.597656 15.359375 12.574219 15.355469 12.550781 15.355469 C 12.546875 15.355469 12.542969 15.355469 12.539062 15.355469 L 12.535156 15.355469 C 12.535156 15.355469 12.527344 15.359375 12.527344 15.359375 C 12.46875 15.355469 12.410156 15.347656 12.355469 15.339844 C 12.300781 15.324219 12.246094 15.308594 12.195312 15.285156 C 12.140625 15.261719 12.089844 15.238281 12.039062 15.210938 L 12.039062 15.207031 C 11.980469 15.167969 11.925781 15.125 11.878906 15.078125 C 11.832031 15.03125 11.785156 14.980469 11.746094 14.921875 C 11.710938 14.863281 11.683594 14.800781 11.660156 14.738281 C 11.652344 14.730469 11.652344 14.714844 11.648438 14.703125 C 11.636719 14.675781 11.621094 14.644531 11.617188 14.613281 C 11.613281 14.589844 11.613281 14.570312 11.613281 14.546875 C 11.609375 14.535156 11.601562 14.519531 11.601562 14.503906 C 11.597656 14.5 11.597656 14.496094 11.597656 14.488281 C 11.597656 14.484375 11.601562 14.476562 11.597656 14.46875 C 11.597656 14.398438 11.597656 14.328125 11.605469 14.261719 C 11.609375 14.246094 11.613281 14.234375 11.617188 14.222656 C 11.621094 14.214844 11.617188 14.203125 11.621094 14.191406 C 11.621094 14.183594 11.625 14.167969 11.628906 14.160156 L 11.636719 14.136719 C 11.640625 14.121094 11.644531 14.105469 11.648438 14.089844 C 11.652344 14.074219 11.652344 14.058594 11.660156 14.042969 C 11.679688 13.996094 11.707031 13.953125 11.734375 13.910156 C 11.757812 13.871094 11.792969 13.832031 11.824219 13.792969 C 11.832031 13.785156 11.832031 13.765625 11.839844 13.757812 C 11.84375 13.753906 11.855469 13.75 11.859375 13.746094 C 11.902344 13.699219 11.953125 13.652344 12.007812 13.617188 C 12.0625 13.582031 12.121094 13.546875 12.183594 13.523438 C 12.242188 13.496094 12.304688 13.472656 12.371094 13.460938 C 12.410156 13.453125 12.453125 13.453125 12.496094 13.453125 Z M 12.597656 13.453125 "/>
<path style=" stroke:none;fill-rule:nonzero;fill:rgb(100%,100%,100%);fill-opacity:1;" d="M 15.15625 14.171875 C 15.15625 14.242188 15.167969 14.316406 15.167969 14.390625 C 15.167969 14.464844 15.164062 14.539062 15.164062 14.609375 L 15.164062 14.832031 C 15.164062 14.839844 15.15625 14.847656 15.15625 14.855469 C 15.164062 14.863281 15.164062 14.867188 15.164062 14.871094 C 15.164062 14.886719 15.164062 14.894531 15.15625 14.910156 C 15.15625 14.925781 15.152344 14.9375 15.148438 14.949219 L 15.140625 14.996094 C 15.140625 15.003906 15.136719 15.011719 15.136719 15.019531 C 15.132812 15.019531 15.132812 15.023438 15.132812 15.027344 C 15.125 15.039062 15.125 15.050781 15.117188 15.0625 C 15.109375 15.078125 15.097656 15.09375 15.085938 15.113281 C 15.082031 15.125 15.078125 15.136719 15.066406 15.148438 C 15.054688 15.160156 15.046875 15.167969 15.039062 15.179688 L 15.007812 15.214844 C 15 15.21875 14.992188 15.226562 14.988281 15.230469 C 14.976562 15.242188 14.960938 15.246094 14.953125 15.257812 C 14.9375 15.265625 14.925781 15.277344 14.910156 15.285156 C 14.898438 15.289062 14.890625 15.300781 14.875 15.304688 C 14.859375 15.3125 14.84375 15.324219 14.828125 15.332031 C 14.820312 15.332031 14.808594 15.332031 14.800781 15.335938 C 14.796875 15.339844 14.789062 15.339844 14.78125 15.339844 C 14.78125 15.339844 14.78125 15.34375 14.773438 15.347656 C 14.757812 15.347656 14.742188 15.347656 14.722656 15.347656 C 14.714844 15.351562 14.703125 15.355469 14.695312 15.355469 L 14.6875 15.355469 C 14.679688 15.355469 14.675781 15.355469 14.671875 15.355469 C 14.664062 15.351562 14.65625 15.363281 14.648438 15.359375 C 14.640625 15.359375 14.628906 15.359375 14.617188 15.355469 C 14.605469 15.355469 14.59375 15.355469 14.578125 15.355469 C 14.566406 15.351562 14.554688 15.347656 14.539062 15.347656 L 14.515625 15.339844 C 14.5 15.335938 14.484375 15.328125 14.46875 15.324219 C 14.449219 15.316406 14.429688 15.308594 14.410156 15.300781 C 14.390625 15.285156 14.375 15.269531 14.359375 15.261719 C 14.347656 15.253906 14.335938 15.242188 14.328125 15.234375 C 14.3125 15.222656 14.292969 15.214844 14.28125 15.199219 C 14.273438 15.191406 14.265625 15.175781 14.257812 15.167969 C 14.25 15.152344 14.238281 15.136719 14.230469 15.125 C 14.21875 15.109375 14.203125 15.089844 14.195312 15.074219 C 14.183594 15.054688 14.179688 15.03125 14.171875 15.011719 L 14.164062 14.972656 C 14.164062 14.964844 14.15625 14.957031 14.15625 14.945312 C 14.152344 14.9375 14.152344 14.929688 14.148438 14.917969 C 14.148438 14.90625 14.148438 14.894531 14.148438 14.878906 C 14.148438 14.871094 14.140625 14.863281 14.140625 14.855469 L 14.140625 14.839844 C 14.140625 14.773438 14.144531 14.707031 14.144531 14.644531 C 14.144531 14.582031 14.148438 14.519531 14.148438 14.457031 C 14.148438 14.390625 14.144531 14.324219 14.144531 14.265625 C 14.144531 14.199219 14.144531 14.136719 14.144531 14.074219 L 14.144531 13.882812 C 14.144531 13.816406 14.148438 13.753906 14.148438 13.691406 C 14.148438 13.628906 14.144531 13.5625 14.144531 13.5 C 14.144531 13.496094 14.148438 13.488281 14.148438 13.480469 C 14.152344 13.472656 14.152344 13.464844 14.160156 13.464844 L 14.167969 13.464844 C 14.21875 13.464844 14.269531 13.46875 14.320312 13.46875 C 14.367188 13.46875 14.417969 13.464844 14.46875 13.464844 C 14.46875 13.464844 14.472656 13.46875 14.476562 13.46875 C 14.484375 13.46875 14.492188 13.472656 14.492188 13.472656 C 14.496094 13.480469 14.496094 13.488281 14.496094 13.492188 C 14.496094 13.496094 14.492188 13.496094 14.492188 13.5 C 14.492188 13.5625 14.496094 13.625 14.496094 13.691406 L 14.496094 13.878906 C 14.496094 13.9375 14.488281 14.003906 14.488281 14.066406 C 14.488281 14.128906 14.492188 14.191406 14.492188 14.253906 C 14.492188 14.316406 14.488281 14.378906 14.488281 14.441406 L 14.488281 14.628906 C 14.488281 14.691406 14.488281 14.753906 14.488281 14.820312 L 14.488281 14.832031 C 14.484375 14.832031 14.496094 14.835938 14.496094 14.839844 C 14.496094 14.84375 14.488281 14.847656 14.488281 14.851562 C 14.492188 14.859375 14.492188 14.871094 14.496094 14.878906 C 14.5 14.890625 14.503906 14.902344 14.507812 14.917969 C 14.515625 14.929688 14.523438 14.9375 14.53125 14.949219 C 14.539062 14.960938 14.554688 14.972656 14.570312 14.980469 C 14.582031 14.988281 14.601562 14.996094 14.617188 15 C 14.625 15.003906 14.636719 15.011719 14.648438 15.011719 C 14.664062 15.011719 14.679688 15.003906 14.703125 14.996094 C 14.71875 14.992188 14.738281 14.984375 14.753906 14.972656 C 14.761719 14.964844 14.765625 14.960938 14.773438 14.957031 C 14.78125 14.949219 14.789062 14.945312 14.789062 14.941406 C 14.796875 14.925781 14.804688 14.914062 14.804688 14.898438 C 14.8125 14.886719 14.816406 14.878906 14.816406 14.867188 C 14.816406 14.859375 14.820312 14.851562 14.820312 14.84375 C 14.820312 14.839844 14.820312 14.839844 14.820312 14.839844 L 14.820312 14.832031 C 14.820312 14.824219 14.8125 14.820312 14.8125 14.8125 C 14.8125 14.75 14.816406 14.6875 14.816406 14.621094 C 14.816406 14.5625 14.8125 14.5 14.8125 14.4375 L 14.8125 14.25 C 14.8125 14.1875 14.820312 14.125 14.820312 14.0625 C 14.820312 14 14.8125 13.9375 14.8125 13.875 C 14.8125 13.8125 14.816406 13.75 14.816406 13.6875 C 14.816406 13.625 14.820312 13.5625 14.820312 13.5 C 14.820312 13.496094 14.8125 13.488281 14.816406 13.484375 C 14.820312 13.472656 14.824219 13.46875 14.835938 13.46875 C 14.835938 13.46875 14.839844 13.464844 14.839844 13.464844 C 14.890625 13.464844 14.9375 13.46875 14.992188 13.46875 C 15.039062 13.46875 15.089844 13.464844 15.136719 13.464844 C 15.140625 13.464844 15.144531 13.464844 15.148438 13.464844 C 15.15625 13.464844 15.15625 13.472656 15.15625 13.476562 L 15.164062 13.492188 C 15.164062 13.496094 15.15625 13.5 15.15625 13.503906 C 15.15625 13.574219 15.164062 13.648438 15.164062 13.722656 C 15.164062 13.800781 15.164062 13.875 15.164062 13.945312 C 15.164062 14.019531 15.15625 14.097656 15.15625 14.171875 Z M 15.15625 14.171875 "/>
<path style=" stroke:none;fill-rule:nonzero;fill:rgb(100%,100%,100%);fill-opacity:1;" d="M 16.550781 14.398438 C 16.550781 14.34375 16.546875 14.285156 16.546875 14.226562 C 16.546875 14.167969 16.550781 14.113281 16.550781 14.054688 C 16.550781 13.996094 16.546875 13.9375 16.546875 13.882812 L 16.546875 13.707031 C 16.546875 13.652344 16.550781 13.59375 16.550781 13.535156 C 16.550781 13.523438 16.550781 13.511719 16.550781 13.503906 C 16.554688 13.492188 16.566406 13.484375 16.574219 13.476562 C 16.582031 13.472656 16.589844 13.472656 16.597656 13.472656 C 16.621094 13.46875 16.640625 13.464844 16.664062 13.464844 C 16.730469 13.464844 16.800781 13.472656 16.871094 13.472656 C 16.988281 13.472656 17.070312 13.46875 17.082031 13.472656 C 17.09375 13.472656 17.105469 13.46875 17.117188 13.46875 L 17.140625 13.46875 C 17.148438 13.472656 17.15625 13.472656 17.160156 13.472656 C 17.183594 13.476562 17.207031 13.488281 17.230469 13.496094 C 17.25 13.5 17.269531 13.503906 17.292969 13.511719 L 17.332031 13.527344 C 17.339844 13.53125 17.347656 13.539062 17.355469 13.542969 C 17.367188 13.546875 17.375 13.550781 17.382812 13.554688 C 17.386719 13.558594 17.390625 13.554688 17.394531 13.554688 L 17.453125 13.597656 C 17.460938 13.605469 17.472656 13.613281 17.480469 13.621094 C 17.488281 13.628906 17.5 13.640625 17.511719 13.648438 C 17.523438 13.660156 17.527344 13.675781 17.539062 13.683594 C 17.550781 13.699219 17.566406 13.707031 17.574219 13.722656 C 17.582031 13.734375 17.589844 13.746094 17.597656 13.761719 C 17.613281 13.777344 17.621094 13.789062 17.628906 13.800781 L 17.628906 13.8125 C 17.640625 13.832031 17.644531 13.851562 17.652344 13.875 C 17.660156 13.894531 17.664062 13.910156 17.667969 13.929688 C 17.675781 13.941406 17.679688 13.960938 17.683594 13.972656 C 17.6875 13.988281 17.683594 14.003906 17.6875 14.019531 C 17.6875 14.03125 17.695312 14.042969 17.695312 14.058594 C 17.695312 14.058594 17.691406 14.058594 17.691406 14.058594 L 17.691406 14.109375 C 17.691406 14.121094 17.691406 14.128906 17.691406 14.140625 C 17.691406 14.152344 17.691406 14.15625 17.691406 14.160156 L 17.683594 14.214844 C 17.679688 14.226562 17.679688 14.238281 17.675781 14.253906 C 17.671875 14.273438 17.660156 14.289062 17.652344 14.308594 C 17.648438 14.320312 17.644531 14.335938 17.640625 14.351562 C 17.632812 14.363281 17.628906 14.375 17.621094 14.386719 C 17.617188 14.394531 17.613281 14.410156 17.609375 14.417969 C 17.597656 14.433594 17.589844 14.441406 17.582031 14.453125 C 17.570312 14.46875 17.558594 14.484375 17.550781 14.496094 C 17.546875 14.503906 17.546875 14.503906 17.546875 14.511719 C 17.542969 14.519531 17.542969 14.527344 17.546875 14.535156 C 17.550781 14.542969 17.558594 14.550781 17.566406 14.558594 C 17.574219 14.578125 17.589844 14.59375 17.601562 14.613281 C 17.613281 14.628906 17.621094 14.648438 17.625 14.664062 C 17.628906 14.675781 17.636719 14.683594 17.640625 14.691406 C 17.648438 14.710938 17.648438 14.730469 17.652344 14.753906 C 17.65625 14.769531 17.667969 14.785156 17.667969 14.800781 C 17.667969 14.8125 17.664062 14.828125 17.664062 14.839844 L 17.664062 14.886719 C 17.664062 14.953125 17.667969 15.019531 17.667969 15.082031 C 17.667969 15.152344 17.667969 15.21875 17.667969 15.28125 L 17.667969 15.304688 C 17.664062 15.3125 17.660156 15.320312 17.65625 15.324219 L 17.648438 15.332031 C 17.640625 15.339844 17.628906 15.339844 17.621094 15.339844 C 17.621094 15.339844 17.621094 15.339844 17.617188 15.339844 L 17.34375 15.339844 C 17.335938 15.339844 17.328125 15.339844 17.316406 15.335938 C 17.304688 15.332031 17.292969 15.324219 17.289062 15.308594 C 17.289062 15.300781 17.292969 15.292969 17.292969 15.285156 C 17.292969 15.226562 17.292969 15.164062 17.292969 15.105469 C 17.292969 15.042969 17.292969 14.980469 17.292969 14.917969 C 17.292969 14.902344 17.285156 14.882812 17.285156 14.867188 C 17.285156 14.84375 17.28125 14.824219 17.273438 14.800781 C 17.265625 14.789062 17.261719 14.773438 17.25 14.761719 C 17.238281 14.75 17.21875 14.742188 17.199219 14.734375 C 17.191406 14.730469 17.183594 14.730469 17.175781 14.726562 C 17.160156 14.722656 17.144531 14.714844 17.125 14.714844 L 17.121094 14.714844 C 17.101562 14.714844 17.082031 14.714844 17.058594 14.714844 C 17.035156 14.714844 17.011719 14.71875 16.988281 14.71875 L 16.957031 14.71875 C 16.949219 14.722656 16.941406 14.71875 16.933594 14.726562 C 16.929688 14.730469 16.925781 14.730469 16.925781 14.734375 C 16.925781 14.738281 16.925781 14.746094 16.925781 14.753906 C 16.921875 14.808594 16.925781 14.871094 16.925781 14.925781 C 16.925781 14.980469 16.925781 15.042969 16.925781 15.097656 C 16.925781 15.152344 16.925781 15.214844 16.925781 15.269531 C 16.925781 15.277344 16.921875 15.28125 16.917969 15.289062 C 16.917969 15.300781 16.917969 15.3125 16.90625 15.316406 C 16.902344 15.320312 16.898438 15.324219 16.890625 15.324219 C 16.886719 15.324219 16.878906 15.328125 16.871094 15.328125 C 16.78125 15.328125 16.695312 15.324219 16.609375 15.324219 C 16.601562 15.324219 16.589844 15.332031 16.585938 15.328125 C 16.570312 15.324219 16.5625 15.3125 16.554688 15.296875 L 16.546875 15.269531 C 16.546875 15.265625 16.550781 15.257812 16.550781 15.253906 L 16.550781 15.039062 C 16.550781 14.964844 16.550781 14.894531 16.550781 14.824219 L 16.550781 14.613281 C 16.550781 14.542969 16.550781 14.472656 16.550781 14.398438 Z M 16.925781 14.097656 C 16.925781 14.160156 16.925781 14.214844 16.925781 14.277344 C 16.925781 14.285156 16.925781 14.292969 16.925781 14.304688 L 16.925781 14.308594 C 16.925781 14.316406 16.929688 14.316406 16.929688 14.320312 C 16.933594 14.324219 16.933594 14.328125 16.941406 14.332031 C 16.949219 14.335938 16.953125 14.34375 16.960938 14.34375 L 17.023438 14.34375 C 17.046875 14.339844 17.066406 14.34375 17.089844 14.339844 C 17.097656 14.339844 17.113281 14.34375 17.121094 14.339844 C 17.152344 14.332031 17.171875 14.316406 17.195312 14.304688 C 17.207031 14.296875 17.226562 14.292969 17.238281 14.285156 C 17.246094 14.277344 17.253906 14.269531 17.261719 14.257812 C 17.269531 14.246094 17.277344 14.226562 17.285156 14.214844 C 17.292969 14.199219 17.296875 14.1875 17.300781 14.175781 C 17.308594 14.160156 17.3125 14.144531 17.3125 14.128906 C 17.316406 14.121094 17.324219 14.113281 17.324219 14.101562 C 17.324219 14.089844 17.316406 14.078125 17.316406 14.066406 C 17.316406 14.042969 17.308594 14.027344 17.304688 14.011719 C 17.300781 13.996094 17.292969 13.976562 17.28125 13.960938 L 17.253906 13.925781 C 17.246094 13.917969 17.230469 13.910156 17.21875 13.902344 C 17.207031 13.894531 17.195312 13.886719 17.183594 13.878906 L 17.144531 13.863281 C 17.136719 13.859375 17.125 13.855469 17.113281 13.855469 C 17.109375 13.855469 17.101562 13.847656 17.097656 13.847656 C 17.089844 13.847656 17.078125 13.851562 17.070312 13.851562 L 16.964844 13.851562 C 16.960938 13.851562 16.957031 13.855469 16.949219 13.855469 C 16.941406 13.855469 16.933594 13.867188 16.929688 13.875 C 16.929688 13.886719 16.925781 13.898438 16.925781 13.910156 Z M 16.925781 14.097656 "/>
<path style=" stroke:none;fill-rule:nonzero;fill:rgb(100%,100%,100%);fill-opacity:1;" d="M 20.035156 13.855469 C 20.035156 13.914062 20.035156 13.972656 20.035156 14.027344 C 20.035156 14.089844 20.035156 14.144531 20.035156 14.199219 C 20.035156 14.214844 20.035156 14.226562 20.035156 14.238281 C 20.035156 14.25 20.03125 14.257812 20.03125 14.269531 C 20.027344 14.277344 20.03125 14.289062 20.027344 14.296875 L 20.011719 14.355469 C 20.003906 14.375 19.996094 14.394531 19.988281 14.410156 C 19.980469 14.433594 19.96875 14.453125 19.953125 14.472656 C 19.945312 14.484375 19.933594 14.503906 19.925781 14.515625 C 19.914062 14.527344 19.902344 14.539062 19.890625 14.550781 C 19.878906 14.558594 19.871094 14.566406 19.859375 14.574219 C 19.851562 14.582031 19.847656 14.59375 19.839844 14.601562 L 19.816406 14.613281 C 19.800781 14.628906 19.789062 14.636719 19.777344 14.644531 C 19.765625 14.652344 19.757812 14.652344 19.753906 14.65625 C 19.746094 14.660156 19.738281 14.664062 19.730469 14.667969 L 19.71875 14.675781 C 19.714844 14.675781 19.710938 14.683594 19.707031 14.6875 L 19.707031 14.707031 C 19.707031 14.773438 19.703125 14.839844 19.703125 14.902344 C 19.703125 14.972656 19.707031 15.035156 19.707031 15.105469 L 19.707031 15.300781 C 19.707031 15.308594 19.707031 15.3125 19.707031 15.320312 C 19.707031 15.328125 19.699219 15.335938 19.691406 15.339844 C 19.691406 15.34375 19.6875 15.34375 19.683594 15.34375 C 19.679688 15.347656 19.671875 15.347656 19.664062 15.347656 L 19.519531 15.347656 C 19.46875 15.347656 19.421875 15.347656 19.371094 15.347656 C 19.363281 15.347656 19.363281 15.34375 19.355469 15.339844 C 19.347656 15.339844 19.339844 15.332031 19.339844 15.324219 C 19.335938 15.320312 19.332031 15.316406 19.332031 15.308594 C 19.332031 15.300781 19.332031 15.285156 19.332031 15.277344 C 19.332031 15.214844 19.335938 15.152344 19.335938 15.089844 C 19.335938 15.027344 19.332031 14.964844 19.332031 14.902344 C 19.332031 14.839844 19.335938 14.777344 19.335938 14.714844 C 19.335938 14.707031 19.335938 14.699219 19.332031 14.695312 C 19.332031 14.683594 19.328125 14.671875 19.316406 14.667969 C 19.308594 14.664062 19.304688 14.660156 19.300781 14.65625 C 19.289062 14.652344 19.28125 14.648438 19.273438 14.644531 C 19.261719 14.636719 19.246094 14.636719 19.230469 14.621094 C 19.214844 14.613281 19.207031 14.597656 19.191406 14.589844 C 19.175781 14.578125 19.167969 14.566406 19.15625 14.554688 C 19.140625 14.539062 19.125 14.519531 19.113281 14.503906 C 19.097656 14.488281 19.082031 14.472656 19.074219 14.457031 C 19.0625 14.4375 19.054688 14.417969 19.046875 14.394531 C 19.039062 14.382812 19.035156 14.371094 19.027344 14.355469 C 19.019531 14.328125 19.011719 14.300781 19.003906 14.277344 C 19.003906 14.261719 19.011719 14.25 19.003906 14.234375 C 19.003906 14.222656 19.003906 14.207031 19.003906 14.195312 C 19.003906 14.191406 18.996094 14.191406 18.996094 14.183594 C 18.996094 14.183594 19.003906 14.183594 19.003906 14.183594 L 19.003906 14.167969 C 19.003906 14.09375 18.996094 14.023438 18.996094 13.949219 C 18.996094 13.878906 19 13.808594 19 13.738281 C 19 13.664062 19.003906 13.59375 19.003906 13.523438 C 19.003906 13.519531 19.003906 13.515625 19.003906 13.511719 C 19.003906 13.503906 19.003906 13.492188 19.011719 13.484375 C 19.015625 13.472656 19.019531 13.464844 19.027344 13.464844 C 19.035156 13.464844 19.039062 13.464844 19.046875 13.464844 C 19.085938 13.464844 19.128906 13.460938 19.167969 13.460938 L 19.195312 13.464844 C 19.207031 13.464844 19.214844 13.460938 19.226562 13.460938 C 19.261719 13.460938 19.300781 13.464844 19.332031 13.464844 C 19.339844 13.464844 19.34375 13.460938 19.347656 13.460938 C 19.359375 13.464844 19.371094 13.472656 19.371094 13.488281 C 19.375 13.496094 19.371094 13.503906 19.367188 13.511719 C 19.367188 13.515625 19.371094 13.519531 19.371094 13.519531 C 19.371094 13.589844 19.371094 13.660156 19.371094 13.734375 C 19.371094 13.804688 19.367188 13.878906 19.367188 13.949219 C 19.367188 14.019531 19.371094 14.089844 19.371094 14.164062 C 19.371094 14.175781 19.371094 14.183594 19.371094 14.199219 C 19.375 14.214844 19.378906 14.230469 19.386719 14.25 C 19.394531 14.253906 19.390625 14.265625 19.394531 14.273438 C 19.398438 14.277344 19.410156 14.28125 19.414062 14.289062 L 19.417969 14.292969 C 19.425781 14.300781 19.433594 14.308594 19.441406 14.316406 C 19.457031 14.324219 19.476562 14.335938 19.5 14.339844 C 19.511719 14.34375 19.519531 14.332031 19.53125 14.332031 C 19.546875 14.332031 19.558594 14.332031 19.574219 14.324219 C 19.589844 14.316406 19.605469 14.308594 19.621094 14.296875 C 19.628906 14.289062 19.636719 14.28125 19.644531 14.269531 C 19.652344 14.257812 19.65625 14.242188 19.660156 14.230469 C 19.660156 14.222656 19.660156 14.214844 19.660156 14.210938 C 19.660156 14.203125 19.667969 14.195312 19.667969 14.183594 C 19.667969 14.121094 19.664062 14.0625 19.664062 14 C 19.664062 13.9375 19.660156 13.878906 19.660156 13.8125 C 19.660156 13.761719 19.664062 13.714844 19.664062 13.660156 C 19.664062 13.613281 19.667969 13.558594 19.667969 13.511719 C 19.667969 13.503906 19.664062 13.5 19.664062 13.492188 C 19.667969 13.480469 19.679688 13.464844 19.691406 13.464844 C 19.695312 13.460938 19.699219 13.460938 19.707031 13.460938 C 19.753906 13.460938 19.800781 13.464844 19.847656 13.464844 C 19.902344 13.464844 19.949219 13.464844 19.996094 13.464844 L 20.015625 13.464844 C 20.023438 13.472656 20.027344 13.476562 20.03125 13.488281 C 20.03125 13.496094 20.035156 13.5 20.035156 13.507812 C 20.035156 13.582031 20.035156 13.660156 20.035156 13.734375 C 20.035156 13.777344 20.035156 13.816406 20.035156 13.855469 Z M 20.035156 13.855469 "/>
<path style=" stroke:none;fill-rule:nonzero;fill:rgb(100%,100%,100%);fill-opacity:1;" d="M 26.441406 9.335938 C 26.441406 8.917969 26.503906 8.550781 26.628906 8.230469 C 26.753906 7.914062 26.921875 7.644531 27.136719 7.429688 C 27.351562 7.214844 27.601562 7.054688 27.886719 6.949219 C 28.171875 6.839844 28.472656 6.785156 28.792969 6.785156 C 29.105469 6.785156 29.402344 6.839844 29.679688 6.949219 C 29.964844 7.054688 30.210938 7.214844 30.417969 7.429688 C 30.632812 7.644531 30.800781 7.914062 30.917969 8.230469 C 31.042969 8.550781 31.105469 8.917969 31.105469 9.335938 C 31.105469 9.753906 31.042969 10.121094 30.917969 10.441406 C 30.800781 10.761719 30.632812 11.027344 30.417969 11.242188 C 30.210938 11.457031 29.964844 11.621094 29.679688 11.730469 C 29.402344 11.835938 29.105469 11.886719 28.792969 11.886719 C 28.472656 11.886719 28.171875 11.835938 27.886719 11.730469 C 27.601562 11.621094 27.351562 11.457031 27.136719 11.242188 C 26.921875 11.027344 26.753906 10.761719 26.628906 10.441406 C 26.503906 10.121094 26.441406 9.753906 26.441406 9.335938 Z M 27.160156 9.335938 C 27.160156 9.636719 27.195312 9.90625 27.273438 10.148438 C 27.347656 10.386719 27.457031 10.589844 27.597656 10.761719 C 27.734375 10.929688 27.902344 11.0625 28.097656 11.160156 C 28.296875 11.25 28.523438 11.292969 28.773438 11.292969 C 29.023438 11.292969 29.246094 11.25 29.441406 11.160156 C 29.640625 11.0625 29.808594 10.929688 29.949219 10.761719 C 30.089844 10.589844 30.195312 10.386719 30.273438 10.148438 C 30.347656 9.90625 30.386719 9.636719 30.386719 9.335938 C 30.386719 9.039062 30.347656 8.769531 30.273438 8.535156 C 30.195312 8.292969 30.089844 8.085938 29.949219 7.917969 C 29.808594 7.746094 29.640625 7.613281 29.441406 7.523438 C 29.246094 7.433594 29.023438 7.386719 28.773438 7.386719 C 28.523438 7.386719 28.296875 7.433594 28.097656 7.523438 C 27.902344 7.613281 27.734375 7.746094 27.597656 7.917969 C 27.457031 8.085938 27.347656 8.292969 27.273438 8.535156 C 27.195312 8.769531 27.160156 9.039062 27.160156 9.335938 Z M 27.160156 9.335938 "/>
<path style=" stroke:none;fill-rule:nonzero;fill:rgb(100%,100%,100%);fill-opacity:1;" d="M 34.398438 9.960938 C 34.398438 9.53125 34.289062 9.199219 34.078125 8.972656 C 33.867188 8.742188 33.585938 8.628906 33.234375 8.628906 C 33.03125 8.628906 32.875 8.636719 32.765625 8.648438 C 32.660156 8.664062 32.570312 8.675781 32.503906 8.691406 L 32.503906 11.011719 C 32.585938 11.074219 32.703125 11.136719 32.847656 11.199219 C 33 11.261719 33.164062 11.292969 33.347656 11.292969 C 33.535156 11.292969 33.695312 11.261719 33.828125 11.191406 C 33.957031 11.121094 34.066406 11.027344 34.148438 10.910156 C 34.238281 10.785156 34.300781 10.644531 34.335938 10.480469 C 34.378906 10.324219 34.398438 10.148438 34.398438 9.960938 Z M 35.078125 9.960938 C 35.078125 10.238281 35.039062 10.496094 34.960938 10.730469 C 34.890625 10.960938 34.789062 11.164062 34.648438 11.335938 C 34.507812 11.503906 34.335938 11.636719 34.128906 11.730469 C 33.925781 11.820312 33.695312 11.867188 33.429688 11.867188 C 33.214844 11.867188 33.027344 11.839844 32.867188 11.785156 C 32.707031 11.730469 32.585938 11.675781 32.503906 11.617188 L 32.503906 13.085938 L 31.847656 13.085938 L 31.847656 8.230469 C 32.007812 8.191406 32.203125 8.148438 32.429688 8.105469 C 32.664062 8.066406 32.9375 8.042969 33.242188 8.042969 C 33.519531 8.042969 33.769531 8.089844 33.992188 8.179688 C 34.222656 8.261719 34.414062 8.386719 34.578125 8.554688 C 34.734375 8.722656 34.859375 8.925781 34.941406 9.160156 C 35.03125 9.394531 35.078125 9.664062 35.078125 9.960938 Z M 35.078125 9.960938 "/>
<path style=" stroke:none;fill-rule:nonzero;fill:rgb(100%,100%,100%);fill-opacity:1;" d="M 35.570312 9.960938 C 35.570312 9.636719 35.613281 9.351562 35.703125 9.105469 C 35.800781 8.863281 35.925781 8.664062 36.078125 8.503906 C 36.230469 8.34375 36.40625 8.226562 36.609375 8.148438 C 36.820312 8.066406 37.027344 8.023438 37.234375 8.023438 C 37.726562 8.023438 38.105469 8.179688 38.371094 8.492188 C 38.632812 8.800781 38.765625 9.269531 38.765625 9.898438 C 38.765625 9.925781 38.765625 9.960938 38.765625 10.003906 C 38.765625 10.042969 38.761719 10.085938 38.757812 10.128906 L 36.246094 10.128906 C 36.273438 10.511719 36.382812 10.800781 36.578125 11.003906 C 36.773438 11.199219 37.074219 11.292969 37.484375 11.292969 C 37.714844 11.292969 37.90625 11.273438 38.058594 11.230469 C 38.21875 11.191406 38.339844 11.152344 38.421875 11.117188 L 38.515625 11.660156 C 38.433594 11.707031 38.289062 11.753906 38.089844 11.792969 C 37.886719 11.839844 37.664062 11.867188 37.414062 11.867188 C 37.09375 11.867188 36.8125 11.816406 36.578125 11.722656 C 36.351562 11.625 36.15625 11.492188 36.007812 11.324219 C 35.859375 11.160156 35.75 10.960938 35.671875 10.730469 C 35.601562 10.496094 35.570312 10.238281 35.570312 9.960938 Z M 38.078125 9.597656 C 38.085938 9.300781 38.011719 9.054688 37.859375 8.867188 C 37.707031 8.679688 37.496094 8.585938 37.226562 8.585938 C 37.078125 8.585938 36.945312 8.617188 36.828125 8.679688 C 36.710938 8.738281 36.609375 8.8125 36.527344 8.910156 C 36.449219 9 36.390625 9.105469 36.351562 9.230469 C 36.308594 9.351562 36.28125 9.472656 36.265625 9.597656 Z M 38.078125 9.597656 "/>
<path style=" stroke:none;fill-rule:nonzero;fill:rgb(100%,100%,100%);fill-opacity:1;" d="M 39.472656 8.222656 C 39.625 8.1875 39.828125 8.148438 40.078125 8.105469 C 40.328125 8.066406 40.613281 8.042969 40.933594 8.042969 C 41.222656 8.042969 41.464844 8.085938 41.660156 8.167969 C 41.855469 8.246094 42.007812 8.363281 42.121094 8.511719 C 42.238281 8.660156 42.320312 8.835938 42.371094 9.042969 C 42.417969 9.246094 42.441406 9.472656 42.441406 9.722656 L 42.441406 11.785156 L 41.785156 11.785156 L 41.785156 9.867188 C 41.785156 9.636719 41.769531 9.445312 41.734375 9.285156 C 41.707031 9.125 41.652344 8.996094 41.578125 8.898438 C 41.507812 8.800781 41.414062 8.730469 41.296875 8.691406 C 41.183594 8.644531 41.042969 8.617188 40.871094 8.617188 C 40.792969 8.617188 40.714844 8.621094 40.640625 8.628906 C 40.570312 8.628906 40.5 8.632812 40.433594 8.636719 C 40.363281 8.644531 40.300781 8.65625 40.246094 8.667969 C 40.195312 8.675781 40.15625 8.683594 40.128906 8.691406 L 40.128906 11.785156 L 39.472656 11.785156 Z M 39.472656 8.222656 "/>
<path style=" stroke:none;fill-rule:nonzero;fill:rgb(100%,100%,100%);fill-opacity:1;" d="M 45.339844 11.785156 L 44.683594 11.785156 L 44.683594 8.117188 L 45.339844 8.117188 Z M 45.003906 7.449219 C 44.886719 7.449219 44.785156 7.414062 44.703125 7.335938 C 44.625 7.261719 44.589844 7.15625 44.589844 7.023438 C 44.589844 6.894531 44.625 6.789062 44.703125 6.710938 C 44.785156 6.636719 44.886719 6.597656 45.003906 6.597656 C 45.121094 6.597656 45.222656 6.636719 45.308594 6.710938 C 45.390625 6.789062 45.433594 6.894531 45.433594 7.023438 C 45.433594 7.15625 45.390625 7.261719 45.308594 7.335938 C 45.222656 7.414062 45.121094 7.449219 45.003906 7.449219 Z M 45.003906 7.449219 "/>
<path style=" stroke:none;fill-rule:nonzero;fill:rgb(100%,100%,100%);fill-opacity:1;" d="M 46.234375 8.222656 C 46.382812 8.1875 46.585938 8.148438 46.835938 8.105469 C 47.085938 8.066406 47.371094 8.042969 47.691406 8.042969 C 47.984375 8.042969 48.226562 8.085938 48.421875 8.167969 C 48.613281 8.246094 48.765625 8.363281 48.878906 8.511719 C 48.996094 8.660156 49.078125 8.835938 49.128906 9.042969 C 49.175781 9.246094 49.203125 9.472656 49.203125 9.722656 L 49.203125 11.785156 L 48.546875 11.785156 L 48.546875 9.867188 C 48.546875 9.636719 48.527344 9.445312 48.492188 9.285156 C 48.464844 9.125 48.414062 8.996094 48.335938 8.898438 C 48.265625 8.800781 48.171875 8.730469 48.054688 8.691406 C 47.945312 8.644531 47.800781 8.617188 47.628906 8.617188 C 47.550781 8.617188 47.476562 8.621094 47.398438 8.628906 C 47.328125 8.628906 47.257812 8.632812 47.191406 8.636719 C 47.121094 8.644531 47.058594 8.65625 47.003906 8.667969 C 46.953125 8.675781 46.914062 8.683594 46.890625 8.691406 L 46.890625 11.785156 L 46.234375 11.785156 Z M 46.234375 8.222656 "/>
<path style=" stroke:none;fill-rule:nonzero;fill:rgb(100%,100%,100%);fill-opacity:1;" d="M 53.683594 11.105469 C 53.632812 10.996094 53.570312 10.855469 53.496094 10.679688 C 53.417969 10.507812 53.332031 10.320312 53.246094 10.117188 C 53.152344 9.910156 53.058594 9.699219 52.953125 9.492188 C 52.855469 9.277344 52.761719 9.074219 52.671875 8.886719 C 52.582031 8.695312 52.496094 8.523438 52.421875 8.378906 C 52.34375 8.226562 52.28125 8.105469 52.234375 8.023438 C 52.183594 8.582031 52.144531 9.179688 52.109375 9.824219 C 52.074219 10.472656 52.046875 11.125 52.027344 11.785156 L 51.347656 11.785156 C 51.371094 11.363281 51.390625 10.933594 51.410156 10.503906 C 51.4375 10.074219 51.464844 9.648438 51.496094 9.230469 C 51.527344 8.816406 51.5625 8.414062 51.597656 8.023438 C 51.632812 7.628906 51.671875 7.253906 51.714844 6.898438 L 52.308594 6.898438 C 52.4375 7.105469 52.578125 7.355469 52.722656 7.636719 C 52.871094 7.917969 53.015625 8.210938 53.160156 8.523438 C 53.308594 8.832031 53.445312 9.136719 53.578125 9.441406 C 53.714844 9.746094 53.839844 10.027344 53.953125 10.285156 C 54.0625 10.027344 54.1875 9.746094 54.328125 9.441406 C 54.464844 9.136719 54.609375 8.832031 54.753906 8.523438 C 54.902344 8.210938 55.046875 7.917969 55.191406 7.636719 C 55.339844 7.355469 55.472656 7.105469 55.597656 6.898438 L 56.191406 6.898438 C 56.351562 8.476562 56.472656 10.105469 56.558594 11.785156 L 55.890625 11.785156 C 55.863281 11.125 55.832031 10.472656 55.796875 9.824219 C 55.769531 9.179688 55.726562 8.582031 55.671875 8.023438 C 55.628906 8.105469 55.566406 8.226562 55.484375 8.378906 C 55.40625 8.523438 55.324219 8.695312 55.234375 8.886719 C 55.152344 9.074219 55.058594 9.277344 54.953125 9.492188 C 54.847656 9.699219 54.75 9.910156 54.660156 10.117188 C 54.578125 10.320312 54.496094 10.507812 54.410156 10.679688 C 54.332031 10.855469 54.277344 10.996094 54.234375 11.105469 Z M 53.683594 11.105469 "/>
<path style=" stroke:none;fill-rule:nonzero;fill:rgb(100%,100%,100%);fill-opacity:1;" d="M 57.152344 9.960938 C 57.152344 9.636719 57.195312 9.351562 57.285156 9.105469 C 57.382812 8.863281 57.507812 8.664062 57.660156 8.503906 C 57.8125 8.34375 57.988281 8.226562 58.191406 8.148438 C 58.402344 8.066406 58.609375 8.023438 58.816406 8.023438 C 59.308594 8.023438 59.6875 8.179688 59.953125 8.492188 C 60.214844 8.800781 60.347656 9.269531 60.347656 9.898438 C 60.347656 9.925781 60.347656 9.960938 60.347656 10.003906 C 60.347656 10.042969 60.34375 10.085938 60.339844 10.128906 L 57.828125 10.128906 C 57.855469 10.511719 57.964844 10.800781 58.160156 11.003906 C 58.355469 11.199219 58.65625 11.292969 59.066406 11.292969 C 59.296875 11.292969 59.488281 11.273438 59.640625 11.230469 C 59.800781 11.191406 59.921875 11.152344 60.003906 11.117188 L 60.097656 11.660156 C 60.015625 11.707031 59.871094 11.753906 59.671875 11.792969 C 59.46875 11.839844 59.246094 11.867188 58.996094 11.867188 C 58.675781 11.867188 58.394531 11.816406 58.160156 11.722656 C 57.933594 11.625 57.738281 11.492188 57.589844 11.324219 C 57.441406 11.160156 57.332031 10.960938 57.253906 10.730469 C 57.183594 10.496094 57.152344 10.238281 57.152344 9.960938 Z M 59.660156 9.597656 C 59.667969 9.300781 59.59375 9.054688 59.441406 8.867188 C 59.289062 8.679688 59.078125 8.585938 58.808594 8.585938 C 58.660156 8.585938 58.527344 8.617188 58.410156 8.679688 C 58.292969 8.738281 58.191406 8.8125 58.109375 8.910156 C 58.03125 9 57.972656 9.105469 57.933594 9.230469 C 57.890625 9.351562 57.863281 9.472656 57.847656 9.597656 Z M 59.660156 9.597656 "/>
<path style=" stroke:none;fill-rule:nonzero;fill:rgb(100%,100%,100%);fill-opacity:1;" d="M 62.410156 8.042969 C 62.464844 8.042969 62.527344 8.050781 62.597656 8.054688 C 62.671875 8.0625 62.746094 8.074219 62.816406 8.085938 C 62.890625 8.09375 62.957031 8.105469 63.015625 8.117188 C 63.070312 8.125 63.113281 8.136719 63.148438 8.148438 L 63.035156 8.722656 C 62.976562 8.699219 62.890625 8.675781 62.773438 8.648438 C 62.65625 8.621094 62.503906 8.605469 62.316406 8.605469 C 62.191406 8.605469 62.070312 8.621094 61.953125 8.648438 C 61.832031 8.675781 61.753906 8.695312 61.710938 8.699219 L 61.710938 11.785156 L 61.054688 11.785156 L 61.054688 8.273438 C 61.214844 8.21875 61.410156 8.167969 61.640625 8.117188 C 61.867188 8.070312 62.125 8.042969 62.410156 8.042969 Z M 62.410156 8.042969 "/>
<path style=" stroke:none;fill-rule:nonzero;fill:rgb(100%,100%,100%);fill-opacity:1;" d="M 65.136719 11.867188 C 64.847656 11.867188 64.585938 11.820312 64.355469 11.730469 C 64.132812 11.636719 63.945312 11.503906 63.792969 11.335938 C 63.640625 11.164062 63.527344 10.960938 63.449219 10.730469 C 63.378906 10.496094 63.347656 10.238281 63.347656 9.960938 C 63.347656 9.675781 63.382812 9.417969 63.460938 9.179688 C 63.542969 8.945312 63.660156 8.742188 63.816406 8.574219 C 63.964844 8.402344 64.152344 8.269531 64.367188 8.167969 C 64.589844 8.074219 64.832031 8.023438 65.097656 8.023438 C 65.261719 8.023438 65.425781 8.039062 65.585938 8.066406 C 65.753906 8.09375 65.910156 8.136719 66.066406 8.199219 L 65.917969 8.761719 C 65.816406 8.714844 65.695312 8.675781 65.566406 8.648438 C 65.441406 8.621094 65.304688 8.605469 65.160156 8.605469 C 64.789062 8.605469 64.507812 8.722656 64.316406 8.949219 C 64.121094 9.179688 64.023438 9.519531 64.023438 9.960938 C 64.023438 10.15625 64.042969 10.335938 64.085938 10.503906 C 64.132812 10.664062 64.207031 10.800781 64.304688 10.917969 C 64.402344 11.039062 64.523438 11.132812 64.667969 11.199219 C 64.820312 11.261719 65.003906 11.292969 65.222656 11.292969 C 65.394531 11.292969 65.550781 11.277344 65.691406 11.242188 C 65.835938 11.207031 65.945312 11.175781 66.023438 11.136719 L 66.117188 11.691406 C 66.082031 11.710938 66.027344 11.730469 65.960938 11.753906 C 65.890625 11.773438 65.808594 11.789062 65.722656 11.804688 C 65.628906 11.824219 65.535156 11.839844 65.429688 11.847656 C 65.332031 11.859375 65.234375 11.867188 65.136719 11.867188 Z M 65.136719 11.867188 "/>
<path style=" stroke:none;fill-rule:nonzero;fill:rgb(100%,100%,100%);fill-opacity:1;" d="M 69.507812 11.679688 C 69.359375 11.714844 69.164062 11.753906 68.914062 11.792969 C 68.667969 11.835938 68.382812 11.855469 68.058594 11.855469 C 67.773438 11.855469 67.53125 11.816406 67.339844 11.742188 C 67.152344 11.660156 67 11.542969 66.882812 11.386719 C 66.761719 11.238281 66.675781 11.058594 66.621094 10.855469 C 66.570312 10.65625 66.546875 10.429688 66.546875 10.179688 L 66.546875 8.117188 L 67.203125 8.117188 L 67.203125 10.035156 C 67.203125 10.480469 67.273438 10.800781 67.414062 10.992188 C 67.558594 11.1875 67.796875 11.285156 68.132812 11.285156 C 68.199219 11.285156 68.273438 11.285156 68.351562 11.285156 C 68.425781 11.277344 68.496094 11.269531 68.558594 11.261719 C 68.625 11.257812 68.6875 11.25 68.734375 11.242188 C 68.789062 11.238281 68.828125 11.226562 68.851562 11.210938 L 68.851562 8.117188 L 69.507812 8.117188 Z M 69.507812 11.679688 "/>
<path style=" stroke:none;fill-rule:nonzero;fill:rgb(100%,100%,100%);fill-opacity:1;" d="M 71.757812 8.042969 C 71.8125 8.042969 71.875 8.050781 71.945312 8.054688 C 72.019531 8.0625 72.09375 8.074219 72.164062 8.085938 C 72.238281 8.09375 72.304688 8.105469 72.359375 8.117188 C 72.414062 8.125 72.460938 8.136719 72.496094 8.148438 L 72.382812 8.722656 C 72.324219 8.699219 72.238281 8.675781 72.121094 8.648438 C 72 8.621094 71.851562 8.605469 71.664062 8.605469 C 71.539062 8.605469 71.414062 8.621094 71.296875 8.648438 C 71.179688 8.675781 71.101562 8.695312 71.058594 8.699219 L 71.058594 11.785156 L 70.402344 11.785156 L 70.402344 8.273438 C 70.5625 8.21875 70.757812 8.167969 70.984375 8.117188 C 71.214844 8.070312 71.46875 8.042969 71.757812 8.042969 Z M 71.757812 8.042969 "/>
<path style=" stroke:none;fill-rule:nonzero;fill:rgb(100%,100%,100%);fill-opacity:1;" d="M 72.464844 12.472656 C 72.511719 12.492188 72.578125 12.511719 72.660156 12.535156 C 72.746094 12.554688 72.828125 12.566406 72.910156 12.566406 C 73.167969 12.566406 73.371094 12.503906 73.515625 12.386719 C 73.660156 12.277344 73.792969 12.089844 73.910156 11.835938 C 73.613281 11.269531 73.332031 10.667969 73.078125 10.035156 C 72.820312 9.402344 72.609375 8.761719 72.441406 8.117188 L 73.152344 8.117188 C 73.199219 8.324219 73.257812 8.554688 73.328125 8.804688 C 73.402344 9.050781 73.488281 9.300781 73.578125 9.554688 C 73.667969 9.8125 73.761719 10.074219 73.859375 10.335938 C 73.964844 10.59375 74.074219 10.839844 74.191406 11.074219 C 74.363281 10.582031 74.519531 10.097656 74.652344 9.617188 C 74.78125 9.132812 74.90625 8.632812 75.027344 8.117188 L 75.703125 8.117188 C 75.535156 8.804688 75.347656 9.46875 75.140625 10.105469 C 74.933594 10.746094 74.707031 11.34375 74.472656 11.898438 C 74.375 12.105469 74.277344 12.285156 74.171875 12.441406 C 74.074219 12.589844 73.964844 12.714844 73.839844 12.816406 C 73.71875 12.917969 73.582031 12.992188 73.433594 13.035156 C 73.277344 13.082031 73.105469 13.105469 72.910156 13.105469 C 72.863281 13.105469 72.808594 13.101562 72.746094 13.097656 C 72.6875 13.089844 72.632812 13.078125 72.578125 13.066406 C 72.527344 13.058594 72.480469 13.046875 72.433594 13.035156 C 72.390625 13.019531 72.359375 13.003906 72.339844 12.992188 Z M 72.464844 12.472656 "/>
</g>
</svg>
