<?xml version="1.0" encoding="UTF-8"?>
<svg xmlns="http://www.w3.org/2000/svg" xmlns:xlink="http://www.w3.org/1999/xlink" width="130px" height="20px" viewBox="0 0 130 20" version="1.1">
<defs>
<clipPath id="clip1">
  <path d="M 2.097656 0 L 127.828125 0 L 127.828125 19.355469 L 2.097656 19.355469 Z M 2.097656 0 "/>
</clipPath>
<clipPath id="clip2">
  <path d="M 93.375 0 L 127.828125 0 L 127.828125 19.355469 L 93.375 19.355469 Z M 93.375 0 "/>
</clipPath>
<clipPath id="clip3">
  <path d="M 2.097656 0 L 22 0 L 22 19.332031 L 2.097656 19.332031 Z M 2.097656 0 "/>
</clipPath>
<clipPath id="clip4">
  <path d="M 111.957031 3.464844 L 125.019531 3.464844 L 125.019531 16.046875 L 111.957031 16.046875 Z M 111.957031 3.464844 "/>
</clipPath>
</defs>
<g id="surface1">
<g clip-path="url(#clip1)" clip-rule="nonzero">
<path style=" stroke:none;fill-rule:nonzero;fill:rgb(100%,100%,100%);fill-opacity:1;" d="M 2.097656 0 L 127.902344 0 L 127.902344 24.191406 L 2.097656 24.191406 Z M 2.097656 0 "/>
<path style=" stroke:none;fill-rule:nonzero;fill:rgb(100%,100%,100%);fill-opacity:1;" d="M 2.097656 0 L 127.902344 0 L 127.902344 19.355469 L 2.097656 19.355469 Z M 2.097656 0 "/>
<path style=" stroke:none;fill-rule:nonzero;fill:rgb(100%,100%,100%);fill-opacity:1;" d="M 2.097656 0 L 127.902344 0 L 127.902344 19.355469 L 2.097656 19.355469 Z M 2.097656 0 "/>
<path style=" stroke:none;fill-rule:nonzero;fill:rgb(100%,100%,100%);fill-opacity:1;" d="M 2.097656 0 L 127.902344 0 L 127.902344 19.355469 L 2.097656 19.355469 Z M 2.097656 0 "/>
</g>
<g clip-path="url(#clip2)" clip-rule="nonzero">
<path style=" stroke:none;fill-rule:nonzero;fill:rgb(93.72549%,43.529412%,42.352941%);fill-opacity:1;" d="M 126.683594 19.355469 L 94.835938 19.355469 C 94.144531 19.355469 93.582031 18.789062 93.582031 18.097656 L 93.582031 1.261719 C 93.582031 0.566406 94.144531 0 94.835938 0 L 126.683594 0 C 127.375 0 127.9375 0.566406 127.9375 1.261719 L 127.9375 18.097656 C 127.9375 18.789062 127.375 19.355469 126.683594 19.355469 "/>
</g>
<g clip-path="url(#clip3)" clip-rule="nonzero">
<path style=" stroke:none;fill-rule:nonzero;fill:rgb(45.098039%,45.098039%,45.098039%);fill-opacity:1;" d="M 20.695312 19.308594 L 3.335938 19.308594 C 2.65625 19.308594 2.097656 18.742188 2.097656 18.050781 L 2.097656 1.214844 C 2.097656 0.519531 2.65625 -0.0429688 3.335938 -0.0429688 L 20.695312 -0.0429688 C 21.378906 -0.0429688 21.9375 0.519531 21.9375 1.214844 L 21.9375 18.050781 C 21.9375 18.742188 21.378906 19.308594 20.695312 19.308594 "/>
</g>
<path style=" stroke:none;fill-rule:nonzero;fill:rgb(0%,0%,0%);fill-opacity:1;" d="M 106.5625 6.929688 C 105.089844 6.929688 103.898438 8.121094 103.898438 9.589844 C 103.898438 11.0625 105.089844 12.253906 106.5625 12.253906 C 108.03125 12.253906 109.222656 11.0625 109.222656 9.589844 C 109.222656 8.121094 108.03125 6.929688 106.5625 6.929688 "/>
<path style=" stroke:none;fill-rule:nonzero;fill:rgb(45.098039%,45.098039%,45.098039%);fill-opacity:1;" d="M 17.46875 -0.046875 L 100.695312 -0.046875 L 100.695312 19.308594 L 17.46875 19.308594 L 17.46875 -0.046875 "/>
<path style=" stroke:none;fill-rule:nonzero;fill:rgb(100%,100%,100%);fill-opacity:1;" d="M 13.351562 8.253906 C 13.351562 9.199219 13.167969 10.027344 12.800781 10.742188 C 12.4375 11.449219 11.917969 11.996094 11.246094 12.378906 C 10.574219 12.753906 9.773438 12.941406 8.851562 12.941406 C 7.925781 12.941406 7.128906 12.753906 6.457031 12.378906 C 5.78125 12.003906 5.269531 11.460938 4.914062 10.753906 C 4.558594 10.039062 4.382812 9.207031 4.382812 8.253906 C 4.382812 6.808594 4.777344 5.679688 5.570312 4.867188 C 6.363281 4.054688 7.460938 3.648438 8.871094 3.648438 C 9.789062 3.648438 10.582031 3.832031 11.257812 4.199219 C 11.9375 4.5625 12.457031 5.09375 12.808594 5.792969 C 13.167969 6.488281 13.351562 7.308594 13.351562 8.253906 Z M 12.089844 8.253906 C 12.089844 7.128906 11.808594 6.246094 11.246094 5.605469 C 10.691406 4.96875 9.898438 4.648438 8.871094 4.648438 C 7.835938 4.648438 7.035156 4.964844 6.464844 5.597656 C 5.902344 6.230469 5.621094 7.113281 5.621094 8.253906 C 5.621094 9.386719 5.90625 10.285156 6.476562 10.949219 C 7.050781 11.617188 7.84375 11.949219 8.851562 11.949219 C 9.898438 11.949219 10.699219 11.632812 11.257812 10.992188 C 11.8125 10.347656 12.089844 9.433594 12.089844 8.253906 Z M 12.089844 8.253906 "/>
<path style=" stroke:none;fill-rule:nonzero;fill:rgb(100%,100%,100%);fill-opacity:1;" d="M 20.539062 9.316406 C 20.539062 11.730469 19.6875 12.941406 17.984375 12.941406 C 16.914062 12.941406 16.195312 12.542969 15.828125 11.742188 L 15.796875 11.742188 C 15.820312 11.769531 15.828125 12.132812 15.828125 12.824219 L 15.828125 15.542969 L 14.671875 15.542969 L 14.671875 7.292969 C 14.671875 6.582031 14.65625 6.105469 14.632812 5.878906 L 15.746094 5.878906 C 15.75 5.894531 15.757812 5.949219 15.765625 6.054688 C 15.773438 6.160156 15.78125 6.324219 15.796875 6.542969 C 15.8125 6.761719 15.820312 6.910156 15.820312 6.992188 L 15.839844 6.992188 C 16.046875 6.5625 16.320312 6.25 16.652344 6.054688 C 16.992188 5.855469 17.4375 5.753906 17.984375 5.753906 C 18.839844 5.753906 19.476562 6.042969 19.902344 6.617188 C 20.324219 7.1875 20.539062 8.085938 20.539062 9.316406 Z M 19.328125 9.335938 C 19.328125 8.371094 19.195312 7.683594 18.933594 7.273438 C 18.675781 6.855469 18.261719 6.648438 17.695312 6.648438 C 17.234375 6.648438 16.875 6.746094 16.621094 6.941406 C 16.363281 7.128906 16.164062 7.425781 16.027344 7.835938 C 15.894531 8.246094 15.828125 8.777344 15.828125 9.429688 C 15.828125 10.339844 15.976562 11.011719 16.265625 11.441406 C 16.558594 11.871094 17.03125 12.085938 17.683594 12.085938 C 18.25 12.085938 18.667969 11.878906 18.933594 11.460938 C 19.195312 11.039062 19.328125 10.332031 19.328125 9.335938 Z M 19.328125 9.335938 "/>
<path style=" stroke:none;fill-rule:nonzero;fill:rgb(100%,100%,100%);fill-opacity:1;" d="M 22.679688 9.585938 C 22.679688 10.386719 22.839844 11 23.167969 11.429688 C 23.5 11.863281 23.984375 12.074219 24.617188 12.074219 C 25.117188 12.074219 25.515625 11.976562 25.8125 11.773438 C 26.117188 11.574219 26.324219 11.320312 26.429688 11.011719 L 27.4375 11.304688 C 27.027344 12.394531 26.085938 12.941406 24.617188 12.941406 C 23.585938 12.941406 22.804688 12.636719 22.273438 12.023438 C 21.734375 11.414062 21.46875 10.507812 21.46875 9.304688 C 21.46875 8.160156 21.734375 7.28125 22.273438 6.667969 C 22.804688 6.050781 23.574219 5.742188 24.574219 5.742188 C 26.609375 5.742188 27.625 6.976562 27.625 9.441406 L 27.625 9.585938 Z M 26.4375 8.699219 C 26.375 7.972656 26.1875 7.441406 25.875 7.105469 C 25.570312 6.769531 25.128906 6.597656 24.554688 6.597656 C 23.992188 6.597656 23.546875 6.785156 23.21875 7.160156 C 22.890625 7.535156 22.714844 8.050781 22.6875 8.699219 Z M 26.4375 8.699219 "/>
<path style=" stroke:none;fill-rule:nonzero;fill:rgb(100%,100%,100%);fill-opacity:1;" d="M 33.320312 12.816406 L 33.320312 8.417969 C 33.320312 7.960938 33.273438 7.605469 33.183594 7.355469 C 33.09375 7.101562 32.945312 6.917969 32.746094 6.804688 C 32.550781 6.695312 32.265625 6.636719 31.890625 6.636719 C 31.335938 6.636719 30.894531 6.832031 30.570312 7.210938 C 30.25 7.59375 30.089844 8.121094 30.089844 8.792969 L 30.089844 12.816406 L 28.933594 12.816406 L 28.933594 7.355469 C 28.933594 6.550781 28.921875 6.058594 28.902344 5.878906 L 29.984375 5.878906 C 29.992188 5.898438 29.996094 5.957031 29.996094 6.054688 C 30 6.144531 30.007812 6.253906 30.015625 6.378906 C 30.023438 6.496094 30.03125 6.726562 30.039062 7.066406 L 30.058594 7.066406 C 30.320312 6.585938 30.625 6.246094 30.976562 6.042969 C 31.328125 5.84375 31.761719 5.742188 32.277344 5.742188 C 33.039062 5.742188 33.59375 5.933594 33.945312 6.316406 C 34.296875 6.691406 34.476562 7.316406 34.476562 8.191406 L 34.476562 12.816406 Z M 33.320312 12.816406 "/>
<path style=" stroke:none;fill-rule:nonzero;fill:rgb(100%,100%,100%);fill-opacity:1;" d="M 39.488281 4.398438 L 39.488281 3.292969 L 40.644531 3.292969 L 40.644531 4.398438 Z M 39.488281 12.816406 L 39.488281 5.878906 L 40.644531 5.878906 L 40.644531 12.816406 Z M 39.488281 12.816406 "/>
<path style=" stroke:none;fill-rule:nonzero;fill:rgb(100%,100%,100%);fill-opacity:1;" d="M 46.636719 12.816406 L 46.636719 8.417969 C 46.636719 7.960938 46.589844 7.605469 46.503906 7.355469 C 46.410156 7.101562 46.265625 6.917969 46.066406 6.804688 C 45.871094 6.695312 45.585938 6.636719 45.210938 6.636719 C 44.652344 6.636719 44.214844 6.832031 43.886719 7.210938 C 43.566406 7.59375 43.410156 8.121094 43.410156 8.792969 L 43.410156 12.816406 L 42.253906 12.816406 L 42.253906 7.355469 C 42.253906 6.550781 42.242188 6.058594 42.222656 5.878906 L 43.304688 5.878906 C 43.308594 5.898438 43.316406 5.957031 43.316406 6.054688 C 43.320312 6.144531 43.328125 6.253906 43.335938 6.378906 C 43.339844 6.496094 43.347656 6.726562 43.355469 7.066406 L 43.378906 7.066406 C 43.640625 6.585938 43.945312 6.246094 44.292969 6.042969 C 44.648438 5.84375 45.082031 5.742188 45.597656 5.742188 C 46.359375 5.742188 46.914062 5.933594 47.261719 6.316406 C 47.617188 6.691406 47.792969 7.316406 47.792969 8.191406 L 47.792969 12.816406 Z M 46.636719 12.816406 "/>
<path style=" stroke:none;fill-rule:nonzero;fill:rgb(100%,100%,100%);fill-opacity:1;" d="M 60.691406 12.816406 L 60.691406 6.785156 C 60.691406 6.117188 60.710938 5.480469 60.753906 4.867188 C 60.539062 5.632812 60.347656 6.230469 60.179688 6.660156 L 57.847656 12.816406 L 56.992188 12.816406 L 54.628906 6.660156 L 54.265625 5.566406 L 54.054688 4.867188 L 54.078125 5.574219 L 54.097656 6.785156 L 54.097656 12.816406 L 53.003906 12.816406 L 53.003906 3.773438 L 54.617188 3.773438 L 57.023438 10.042969 C 57.109375 10.292969 57.1875 10.566406 57.265625 10.855469 C 57.347656 11.144531 57.402344 11.351562 57.429688 11.480469 C 57.464844 11.308594 57.535156 11.050781 57.640625 10.699219 C 57.75 10.355469 57.828125 10.136719 57.867188 10.042969 L 60.222656 3.773438 L 61.796875 3.773438 L 61.796875 12.816406 Z M 60.691406 12.816406 "/>
<path style=" stroke:none;fill-rule:nonzero;fill:rgb(100%,100%,100%);fill-opacity:1;" d="M 64.457031 9.585938 C 64.457031 10.386719 64.617188 11 64.945312 11.429688 C 65.28125 11.863281 65.761719 12.074219 66.394531 12.074219 C 66.894531 12.074219 67.292969 11.976562 67.59375 11.773438 C 67.898438 11.574219 68.101562 11.320312 68.207031 11.011719 L 69.21875 11.304688 C 68.804688 12.394531 67.867188 12.941406 66.394531 12.941406 C 65.367188 12.941406 64.585938 12.636719 64.050781 12.023438 C 63.515625 11.414062 63.25 10.507812 63.25 9.304688 C 63.25 8.160156 63.515625 7.28125 64.050781 6.667969 C 64.585938 6.050781 65.351562 5.742188 66.351562 5.742188 C 68.386719 5.742188 69.40625 6.976562 69.40625 9.441406 L 69.40625 9.585938 Z M 68.21875 8.699219 C 68.15625 7.972656 67.96875 7.441406 67.65625 7.105469 C 67.347656 6.769531 66.90625 6.597656 66.332031 6.597656 C 65.769531 6.597656 65.324219 6.785156 65 7.160156 C 64.671875 7.535156 64.492188 8.050781 64.46875 8.699219 Z M 68.21875 8.699219 "/>
<path style=" stroke:none;fill-rule:nonzero;fill:rgb(100%,100%,100%);fill-opacity:1;" d="M 70.710938 12.816406 L 70.710938 7.492188 C 70.710938 7.007812 70.703125 6.46875 70.679688 5.878906 L 71.765625 5.878906 C 71.796875 6.664062 71.816406 7.136719 71.816406 7.292969 L 71.847656 7.292969 C 72.027344 6.699219 72.234375 6.292969 72.472656 6.074219 C 72.714844 5.855469 73.054688 5.742188 73.492188 5.742188 C 73.644531 5.742188 73.800781 5.769531 73.960938 5.816406 L 73.960938 6.867188 C 73.808594 6.824219 73.601562 6.804688 73.347656 6.804688 C 72.867188 6.804688 72.5 7.011719 72.242188 7.429688 C 71.992188 7.839844 71.867188 8.429688 71.867188 9.199219 L 71.867188 12.816406 Z M 70.710938 12.816406 "/>
<path style=" stroke:none;fill-rule:nonzero;fill:rgb(100%,100%,100%);fill-opacity:1;" d="M 75.753906 9.316406 C 75.753906 10.238281 75.902344 10.925781 76.191406 11.367188 C 76.484375 11.8125 76.921875 12.035156 77.503906 12.035156 C 77.921875 12.035156 78.265625 11.925781 78.535156 11.699219 C 78.8125 11.480469 78.984375 11.136719 79.046875 10.667969 L 80.214844 10.753906 C 80.121094 11.417969 79.839844 11.949219 79.359375 12.347656 C 78.878906 12.742188 78.269531 12.941406 77.535156 12.941406 C 76.570312 12.941406 75.832031 12.636719 75.316406 12.023438 C 74.808594 11.414062 74.558594 10.519531 74.558594 9.335938 C 74.558594 8.167969 74.808594 7.28125 75.316406 6.667969 C 75.832031 6.050781 76.566406 5.742188 77.527344 5.742188 C 78.234375 5.742188 78.820312 5.925781 79.285156 6.292969 C 79.757812 6.664062 80.058594 7.167969 80.183594 7.816406 L 78.996094 7.910156 C 78.933594 7.527344 78.777344 7.222656 78.535156 6.992188 C 78.292969 6.761719 77.945312 6.648438 77.496094 6.648438 C 76.882812 6.648438 76.4375 6.855469 76.160156 7.261719 C 75.890625 7.667969 75.753906 8.351562 75.753906 9.316406 Z M 75.753906 9.316406 "/>
<path style=" stroke:none;fill-rule:nonzero;fill:rgb(100%,100%,100%);fill-opacity:1;" d="M 82.386719 5.878906 L 82.386719 10.273438 C 82.386719 10.730469 82.433594 11.089844 82.523438 11.347656 C 82.613281 11.597656 82.753906 11.777344 82.949219 11.886719 C 83.152344 12 83.441406 12.054688 83.824219 12.054688 C 84.378906 12.054688 84.816406 11.863281 85.136719 11.480469 C 85.457031 11.101562 85.617188 10.574219 85.617188 9.898438 L 85.617188 5.878906 L 86.773438 5.878906 L 86.773438 11.335938 C 86.773438 12.144531 86.785156 12.636719 86.816406 12.816406 L 85.722656 12.816406 C 85.714844 12.792969 85.707031 12.738281 85.699219 12.648438 C 85.699219 12.550781 85.695312 12.445312 85.691406 12.324219 C 85.683594 12.199219 85.675781 11.96875 85.667969 11.628906 L 85.648438 11.628906 C 85.382812 12.105469 85.078125 12.449219 84.730469 12.648438 C 84.382812 12.839844 83.949219 12.941406 83.429688 12.941406 C 82.664062 12.941406 82.105469 12.753906 81.753906 12.378906 C 81.402344 11.996094 81.230469 11.371094 81.230469 10.503906 L 81.230469 5.878906 Z M 82.386719 5.878906 "/>
<path style=" stroke:none;fill-rule:nonzero;fill:rgb(100%,100%,100%);fill-opacity:1;" d="M 88.402344 12.816406 L 88.402344 7.492188 C 88.402344 7.007812 88.394531 6.46875 88.371094 5.878906 L 89.457031 5.878906 C 89.488281 6.664062 89.507812 7.136719 89.507812 7.292969 L 89.539062 7.292969 C 89.71875 6.699219 89.925781 6.292969 90.164062 6.074219 C 90.40625 5.855469 90.746094 5.742188 91.183594 5.742188 C 91.335938 5.742188 91.492188 5.769531 91.652344 5.816406 L 91.652344 6.867188 C 91.5 6.824219 91.292969 6.804688 91.039062 6.804688 C 90.558594 6.804688 90.191406 7.011719 89.933594 7.429688 C 89.683594 7.839844 89.558594 8.429688 89.558594 9.199219 L 89.558594 12.816406 Z M 88.402344 12.816406 "/>
<path style=" stroke:none;fill-rule:nonzero;fill:rgb(100%,100%,100%);fill-opacity:1;" d="M 92.914062 15.542969 C 92.59375 15.542969 92.328125 15.519531 92.113281 15.472656 L 92.113281 14.605469 C 92.28125 14.628906 92.460938 14.636719 92.65625 14.636719 C 93.367188 14.636719 93.9375 14.109375 94.363281 13.054688 L 94.46875 12.785156 L 91.71875 5.878906 L 92.945312 5.878906 L 94.414062 9.710938 C 94.4375 9.773438 94.460938 9.847656 94.488281 9.929688 C 94.515625 10.011719 94.609375 10.292969 94.769531 10.761719 C 94.9375 11.238281 95.023438 11.5 95.039062 11.554688 L 95.488281 10.292969 L 97.007812 5.878906 L 98.226562 5.878906 L 95.5625 12.816406 C 95.273438 13.558594 95.007812 14.109375 94.757812 14.472656 C 94.507812 14.832031 94.230469 15.097656 93.925781 15.273438 C 93.625 15.453125 93.289062 15.542969 92.914062 15.542969 Z M 92.914062 15.542969 "/>
<g clip-path="url(#clip4)" clip-rule="nonzero">
<path style=" stroke:none;fill-rule:nonzero;fill:rgb(0%,0%,0%);fill-opacity:1;" d="M 124.734375 3.464844 L 122.179688 3.464844 C 122.066406 3.464844 121.953125 3.523438 121.921875 3.636719 L 118.488281 12.015625 L 115.054688 3.636719 C 115.023438 3.523438 114.910156 3.464844 114.796875 3.464844 L 112.242188 3.464844 C 112.070312 3.464844 111.957031 3.582031 111.957031 3.753906 L 111.957031 15.761719 C 111.957031 15.933594 112.070312 16.046875 112.242188 16.046875 L 114.226562 16.046875 C 114.398438 16.046875 114.511719 15.933594 114.511719 15.761719 L 114.511719 8.039062 L 114.710938 8.039062 L 117.578125 15.015625 C 117.636719 15.128906 117.722656 15.1875 117.835938 15.1875 L 119.171875 15.1875 C 119.28125 15.1875 119.398438 15.128906 119.425781 15.015625 L 122.265625 8.039062 L 122.464844 8.039062 L 122.464844 15.761719 C 122.464844 15.933594 122.578125 16.046875 122.75 16.046875 L 124.734375 16.046875 C 124.90625 16.046875 125.019531 15.933594 125.019531 15.761719 L 125.019531 3.753906 C 125.019531 3.582031 124.90625 3.464844 124.734375 3.464844 Z M 124.734375 3.464844 "/>
</g>
</g>
</svg>
