<?xml version="1.0" encoding="UTF-8"?>
<svg xmlns="http://www.w3.org/2000/svg" xmlns:xlink="http://www.w3.org/1999/xlink" width="130px" height="20px" viewBox="0 0 130 20" version="1.1">
<defs>
<clipPath id="clip1">
  <path d="M 25 0 L 127.828125 0 L 127.828125 19.355469 L 25 19.355469 Z M 25 0 "/>
</clipPath>
<clipPath id="clip2">
  <path d="M 2.097656 0 L 27 0 L 27 19.355469 L 2.097656 19.355469 Z M 2.097656 0 "/>
</clipPath>
<clipPath id="clip3">
  <path d="M 11.539062 3.976562 L 23.636719 3.976562 L 23.636719 15.589844 L 11.539062 15.589844 Z M 11.539062 3.976562 "/>
</clipPath>
</defs>
<g id="surface1">
<g clip-path="url(#clip1)" clip-rule="nonzero">
<path style=" stroke:none;fill-rule:nonzero;fill:rgb(0%,60%,80%);fill-opacity:1;" d="M 127.671875 6.457031 C 127.8125 7.445312 127.902344 8.574219 127.902344 9.683594 C 127.902344 10.789062 127.824219 11.855469 127.6875 12.835938 C 127.679688 12.855469 127.679688 12.878906 127.675781 12.902344 C 127.117188 16.585938 125.640625 19.300781 121.855469 19.355469 L 25.324219 19.355469 L 25.324219 0 L 121.78125 0 C 125.648438 0.0507812 127.125 2.726562 127.671875 6.457031 "/>
</g>
<g clip-path="url(#clip2)" clip-rule="nonzero">
<path style=" stroke:none;fill-rule:nonzero;fill:rgb(0%,0%,0%);fill-opacity:1;" d="M 2.332031 12.894531 C 2.191406 11.90625 2.101562 10.777344 2.101562 9.667969 C 2.101562 8.5625 2.179688 7.496094 2.320312 6.515625 C 2.320312 6.496094 2.320312 6.472656 2.328125 6.453125 C 2.882812 2.765625 4.355469 0.0507812 6.40625 0 L 26.777344 0 L 26.777344 19.347656 L 6.417969 19.347656 C 4.34375 19.296875 2.875 16.625 2.332031 12.894531 "/>
</g>
<g clip-path="url(#clip3)" clip-rule="nonzero">
<path style=" stroke:none;fill-rule:nonzero;fill:rgb(93.72549%,43.529412%,42.352941%);fill-opacity:1;" d="M 23.371094 3.976562 L 21.003906 3.976562 C 20.898438 3.976562 20.796875 4.027344 20.765625 4.136719 L 17.585938 11.867188 L 14.40625 4.136719 C 14.378906 4.027344 14.273438 3.976562 14.171875 3.976562 L 11.804688 3.976562 C 11.644531 3.976562 11.539062 4.082031 11.539062 4.238281 L 11.539062 15.324219 C 11.539062 15.484375 11.644531 15.589844 11.804688 15.589844 L 13.644531 15.589844 C 13.800781 15.589844 13.90625 15.484375 13.90625 15.324219 L 13.90625 8.199219 L 14.089844 8.199219 L 16.746094 14.636719 C 16.796875 14.746094 16.875 14.796875 16.984375 14.796875 L 18.21875 14.796875 C 18.324219 14.796875 18.429688 14.746094 18.453125 14.636719 L 21.085938 8.199219 L 21.265625 8.199219 L 21.265625 15.324219 C 21.265625 15.484375 21.375 15.589844 21.53125 15.589844 L 23.371094 15.589844 C 23.527344 15.589844 23.632812 15.484375 23.632812 15.324219 L 23.632812 4.238281 C 23.632812 4.082031 23.527344 3.976562 23.371094 3.976562 Z M 23.371094 3.976562 "/>
</g>
<path style=" stroke:none;fill-rule:nonzero;fill:rgb(93.72549%,43.529412%,42.352941%);fill-opacity:1;" d="M 6.453125 7.15625 C 5.117188 7.15625 4.03125 8.238281 4.03125 9.574219 C 4.03125 10.910156 5.117188 11.996094 6.453125 11.996094 C 7.789062 11.996094 8.871094 10.910156 8.871094 9.574219 C 8.871094 8.238281 7.789062 7.15625 6.453125 7.15625 "/>
<path style=" stroke:none;fill-rule:nonzero;fill:rgb(100%,100%,100%);fill-opacity:1;" d="M 30.632812 9.007812 C 30.632812 9.460938 30.6875 9.867188 30.800781 10.226562 C 30.910156 10.582031 31.066406 10.890625 31.269531 11.152344 C 31.476562 11.410156 31.730469 11.609375 32.03125 11.746094 C 32.328125 11.886719 32.667969 11.957031 33.050781 11.957031 C 33.425781 11.957031 33.761719 11.886719 34.0625 11.746094 C 34.367188 11.609375 34.625 11.410156 34.832031 11.152344 C 35.039062 10.890625 35.195312 10.582031 35.300781 10.226562 C 35.410156 9.867188 35.46875 9.460938 35.46875 9.007812 C 35.46875 8.566406 35.410156 8.160156 35.300781 7.800781 C 35.195312 7.433594 35.039062 7.121094 34.832031 6.863281 C 34.625 6.605469 34.367188 6.410156 34.0625 6.269531 C 33.761719 6.128906 33.425781 6.058594 33.050781 6.058594 C 32.667969 6.058594 32.328125 6.132812 32.03125 6.277344 C 31.730469 6.417969 31.476562 6.621094 31.269531 6.882812 C 31.066406 7.140625 30.910156 7.449219 30.800781 7.808594 C 30.6875 8.171875 30.632812 8.570312 30.632812 9.007812 Z M 37.582031 9.007812 C 37.582031 9.792969 37.460938 10.480469 37.226562 11.070312 C 37 11.660156 36.679688 12.160156 36.28125 12.558594 C 35.875 12.957031 35.398438 13.253906 34.84375 13.457031 C 34.285156 13.65625 33.6875 13.757812 33.050781 13.757812 C 32.429688 13.757812 31.84375 13.65625 31.289062 13.457031 C 30.742188 13.253906 30.257812 12.957031 29.84375 12.558594 C 29.429688 12.160156 29.109375 11.660156 28.875 11.070312 C 28.636719 10.480469 28.519531 9.792969 28.519531 9.007812 C 28.519531 8.230469 28.640625 7.546875 28.882812 6.957031 C 29.132812 6.367188 29.460938 5.871094 29.875 5.464844 C 30.289062 5.066406 30.773438 4.761719 31.320312 4.558594 C 31.867188 4.359375 32.445312 4.257812 33.050781 4.257812 C 33.675781 4.257812 34.261719 4.359375 34.8125 4.558594 C 35.367188 4.761719 35.847656 5.066406 36.257812 5.464844 C 36.667969 5.871094 36.992188 6.367188 37.226562 6.957031 C 37.460938 7.546875 37.582031 8.230469 37.582031 9.007812 Z M 37.582031 9.007812 "/>
<path style=" stroke:none;fill-rule:nonzero;fill:rgb(100%,100%,100%);fill-opacity:1;" d="M 43.148438 10.164062 C 43.148438 9.558594 43.011719 9.078125 42.742188 8.714844 C 42.472656 8.355469 42.066406 8.175781 41.535156 8.175781 C 41.359375 8.175781 41.195312 8.183594 41.042969 8.195312 C 40.898438 8.210938 40.777344 8.222656 40.679688 8.238281 L 40.679688 11.769531 C 40.804688 11.851562 40.964844 11.921875 41.160156 11.976562 C 41.359375 12.027344 41.558594 12.050781 41.761719 12.050781 C 42.683594 12.050781 43.148438 11.421875 43.148438 10.164062 Z M 45.148438 10.113281 C 45.148438 10.648438 45.082031 11.132812 44.949219 11.570312 C 44.816406 12.007812 44.621094 12.386719 44.367188 12.707031 C 44.117188 13.019531 43.800781 13.265625 43.417969 13.445312 C 43.042969 13.617188 42.613281 13.707031 42.128906 13.707031 C 41.855469 13.707031 41.601562 13.675781 41.367188 13.621094 C 41.128906 13.566406 40.902344 13.496094 40.679688 13.402344 L 40.679688 15.996094 L 38.722656 15.996094 L 38.722656 6.894531 C 38.894531 6.847656 39.097656 6.796875 39.324219 6.746094 C 39.554688 6.699219 39.792969 6.660156 40.042969 6.621094 C 40.292969 6.589844 40.546875 6.558594 40.804688 6.539062 C 41.058594 6.519531 41.308594 6.507812 41.542969 6.507812 C 42.113281 6.507812 42.621094 6.597656 43.066406 6.769531 C 43.515625 6.933594 43.894531 7.175781 44.199219 7.488281 C 44.503906 7.792969 44.738281 8.171875 44.898438 8.621094 C 45.066406 9.066406 45.148438 9.566406 45.148438 10.113281 Z M 45.148438 10.113281 "/>
<path style=" stroke:none;fill-rule:nonzero;fill:rgb(100%,100%,100%);fill-opacity:1;" d="M 45.898438 10.164062 C 45.898438 9.554688 45.992188 9.019531 46.179688 8.558594 C 46.367188 8.101562 46.609375 7.722656 46.917969 7.414062 C 47.222656 7.101562 47.574219 6.871094 47.96875 6.714844 C 48.371094 6.558594 48.785156 6.476562 49.210938 6.476562 C 50.1875 6.476562 50.960938 6.777344 51.53125 7.382812 C 52.101562 7.980469 52.386719 8.863281 52.386719 10.027344 C 52.386719 10.140625 52.378906 10.265625 52.367188 10.402344 C 52.359375 10.535156 52.351562 10.652344 52.34375 10.757812 L 47.90625 10.757812 C 47.949219 11.160156 48.136719 11.480469 48.46875 11.714844 C 48.804688 11.953125 49.25 12.070312 49.8125 12.070312 C 50.167969 12.070312 50.515625 12.039062 50.867188 11.976562 C 51.210938 11.910156 51.492188 11.824219 51.710938 11.726562 L 51.980469 13.320312 C 51.867188 13.378906 51.726562 13.433594 51.554688 13.488281 C 51.378906 13.535156 51.183594 13.574219 50.96875 13.613281 C 50.753906 13.652344 50.523438 13.6875 50.28125 13.714844 C 50.039062 13.742188 49.792969 13.757812 49.542969 13.757812 C 48.921875 13.757812 48.382812 13.667969 47.917969 13.488281 C 47.460938 13.300781 47.078125 13.046875 46.773438 12.726562 C 46.472656 12.410156 46.25 12.027344 46.105469 11.589844 C 45.964844 11.152344 45.898438 10.679688 45.898438 10.164062 Z M 50.492188 9.425781 C 50.484375 9.257812 50.453125 9.097656 50.40625 8.933594 C 50.359375 8.777344 50.28125 8.636719 50.179688 8.519531 C 50.078125 8.394531 49.953125 8.292969 49.804688 8.214844 C 49.648438 8.132812 49.460938 8.089844 49.230469 8.089844 C 49.015625 8.089844 48.828125 8.128906 48.667969 8.207031 C 48.507812 8.285156 48.375 8.382812 48.273438 8.507812 C 48.167969 8.628906 48.085938 8.769531 48.023438 8.933594 C 47.964844 9.097656 47.929688 9.257812 47.90625 9.425781 Z M 50.492188 9.425781 "/>
<path style=" stroke:none;fill-rule:nonzero;fill:rgb(100%,100%,100%);fill-opacity:1;" d="M 53.457031 6.894531 C 53.789062 6.804688 54.21875 6.714844 54.746094 6.632812 C 55.273438 6.550781 55.824219 6.507812 56.402344 6.507812 C 56.988281 6.507812 57.472656 6.585938 57.863281 6.738281 C 58.25 6.890625 58.558594 7.105469 58.789062 7.382812 C 59.019531 7.660156 59.179688 7.996094 59.277344 8.382812 C 59.375 8.765625 59.425781 9.191406 59.425781 9.664062 L 59.425781 13.570312 L 57.464844 13.570312 L 57.464844 9.902344 C 57.464844 9.273438 57.382812 8.828125 57.214844 8.570312 C 57.050781 8.308594 56.738281 8.175781 56.277344 8.175781 C 56.136719 8.175781 55.988281 8.183594 55.832031 8.195312 C 55.675781 8.210938 55.539062 8.222656 55.414062 8.238281 L 55.414062 13.570312 L 53.457031 13.570312 Z M 53.457031 6.894531 "/>
<path style=" stroke:none;fill-rule:nonzero;fill:rgb(100%,100%,100%);fill-opacity:1;" d="M 65.433594 13.570312 L 63.476562 13.570312 L 63.476562 6.664062 L 65.433594 6.664062 Z M 65.621094 4.664062 C 65.621094 5.027344 65.5 5.308594 65.265625 5.519531 C 65.039062 5.722656 64.765625 5.820312 64.453125 5.820312 C 64.132812 5.820312 63.855469 5.722656 63.621094 5.519531 C 63.390625 5.308594 63.277344 5.027344 63.277344 4.664062 C 63.277344 4.304688 63.390625 4.023438 63.621094 3.820312 C 63.855469 3.613281 64.132812 3.507812 64.453125 3.507812 C 64.765625 3.507812 65.039062 3.613281 65.265625 3.820312 C 65.5 4.023438 65.621094 4.304688 65.621094 4.664062 Z M 65.621094 4.664062 "/>
<path style=" stroke:none;fill-rule:nonzero;fill:rgb(100%,100%,100%);fill-opacity:1;" d="M 66.835938 6.894531 C 67.171875 6.804688 67.601562 6.714844 68.128906 6.632812 C 68.65625 6.550781 69.207031 6.507812 69.785156 6.507812 C 70.367188 6.507812 70.851562 6.585938 71.242188 6.738281 C 71.632812 6.890625 71.941406 7.105469 72.171875 7.382812 C 72.398438 7.660156 72.5625 7.996094 72.660156 8.382812 C 72.757812 8.765625 72.804688 9.191406 72.804688 9.664062 L 72.804688 13.570312 L 70.847656 13.570312 L 70.847656 9.902344 C 70.847656 9.273438 70.765625 8.828125 70.597656 8.570312 C 70.429688 8.308594 70.117188 8.175781 69.660156 8.175781 C 69.519531 8.175781 69.371094 8.183594 69.210938 8.195312 C 69.058594 8.210938 68.921875 8.222656 68.796875 8.238281 L 68.796875 13.570312 L 66.835938 13.570312 Z M 66.835938 6.894531 "/>
<path style=" stroke:none;fill-rule:nonzero;fill:rgb(100%,100%,100%);fill-opacity:1;" d="M 79.410156 4.464844 C 79.566406 4.757812 79.746094 5.117188 79.949219 5.539062 C 80.160156 5.964844 80.371094 6.425781 80.597656 6.925781 C 80.816406 7.417969 81.035156 7.921875 81.253906 8.433594 C 81.472656 8.949219 81.683594 9.433594 81.878906 9.894531 C 82.070312 9.433594 82.277344 8.949219 82.492188 8.433594 C 82.714844 7.921875 82.933594 7.417969 83.160156 6.925781 C 83.378906 6.425781 83.589844 5.964844 83.792969 5.539062 C 84.003906 5.117188 84.183594 4.757812 84.347656 4.464844 L 86.210938 4.464844 C 86.300781 5.070312 86.378906 5.746094 86.449219 6.496094 C 86.527344 7.246094 86.589844 8.027344 86.648438 8.839844 C 86.710938 9.648438 86.761719 10.460938 86.804688 11.277344 C 86.851562 12.089844 86.894531 12.855469 86.929688 13.570312 L 84.941406 13.570312 C 84.910156 12.691406 84.871094 11.726562 84.824219 10.683594 C 84.785156 9.644531 84.722656 8.589844 84.636719 7.527344 C 84.476562 7.898438 84.300781 8.308594 84.105469 8.757812 C 83.917969 9.203125 83.726562 9.648438 83.535156 10.089844 C 83.347656 10.535156 83.164062 10.964844 82.992188 11.371094 C 82.816406 11.777344 82.667969 12.121094 82.542969 12.414062 L 81.117188 12.414062 C 80.992188 12.121094 80.839844 11.777344 80.667969 11.371094 C 80.496094 10.964844 80.316406 10.535156 80.128906 10.089844 C 79.941406 9.648438 79.746094 9.203125 79.554688 8.757812 C 79.359375 8.308594 79.183594 7.898438 79.023438 7.527344 C 78.941406 8.589844 78.871094 9.644531 78.824219 10.683594 C 78.785156 11.726562 78.746094 12.691406 78.722656 13.570312 L 76.730469 13.570312 C 76.765625 12.855469 76.808594 12.089844 76.855469 11.277344 C 76.902344 10.460938 76.957031 9.648438 77.011719 8.839844 C 77.066406 8.027344 77.128906 7.246094 77.199219 6.496094 C 77.277344 5.746094 77.359375 5.070312 77.449219 4.464844 Z M 79.410156 4.464844 "/>
<path style=" stroke:none;fill-rule:nonzero;fill:rgb(100%,100%,100%);fill-opacity:1;" d="M 87.878906 10.164062 C 87.878906 9.554688 87.972656 9.019531 88.160156 8.558594 C 88.347656 8.101562 88.59375 7.722656 88.902344 7.414062 C 89.207031 7.101562 89.558594 6.871094 89.953125 6.714844 C 90.355469 6.558594 90.769531 6.476562 91.191406 6.476562 C 92.171875 6.476562 92.945312 6.777344 93.515625 7.382812 C 94.082031 7.980469 94.371094 8.863281 94.371094 10.027344 C 94.371094 10.140625 94.363281 10.265625 94.347656 10.402344 C 94.339844 10.535156 94.332031 10.652344 94.328125 10.757812 L 89.890625 10.757812 C 89.933594 11.160156 90.121094 11.480469 90.453125 11.714844 C 90.785156 11.953125 91.234375 12.070312 91.796875 12.070312 C 92.152344 12.070312 92.5 12.039062 92.847656 11.976562 C 93.195312 11.910156 93.476562 11.824219 93.691406 11.726562 L 93.964844 13.320312 C 93.851562 13.378906 93.707031 13.433594 93.535156 13.488281 C 93.363281 13.535156 93.167969 13.574219 92.953125 13.613281 C 92.738281 13.652344 92.507812 13.6875 92.265625 13.714844 C 92.019531 13.742188 91.777344 13.757812 91.527344 13.757812 C 90.90625 13.757812 90.363281 13.667969 89.902344 13.488281 C 89.441406 13.300781 89.058594 13.046875 88.753906 12.726562 C 88.457031 12.410156 88.234375 12.027344 88.089844 11.589844 C 87.949219 11.152344 87.878906 10.679688 87.878906 10.164062 Z M 92.472656 9.425781 C 92.464844 9.257812 92.4375 9.097656 92.390625 8.933594 C 92.339844 8.777344 92.265625 8.636719 92.160156 8.519531 C 92.0625 8.394531 91.9375 8.292969 91.785156 8.214844 C 91.632812 8.132812 91.441406 8.089844 91.214844 8.089844 C 90.996094 8.089844 90.808594 8.128906 90.652344 8.207031 C 90.488281 8.285156 90.359375 8.382812 90.253906 8.507812 C 90.152344 8.628906 90.066406 8.769531 90.003906 8.933594 C 89.949219 9.097656 89.910156 9.257812 89.890625 9.425781 Z M 92.472656 9.425781 "/>
<path style=" stroke:none;fill-rule:nonzero;fill:rgb(100%,100%,100%);fill-opacity:1;" d="M 99.605469 8.394531 C 99.429688 8.351562 99.226562 8.308594 98.992188 8.257812 C 98.753906 8.210938 98.5 8.183594 98.230469 8.183594 C 98.105469 8.183594 97.953125 8.195312 97.78125 8.214844 C 97.617188 8.238281 97.484375 8.261719 97.398438 8.289062 L 97.398438 13.570312 L 95.4375 13.570312 L 95.4375 7.027344 C 95.792969 6.902344 96.203125 6.789062 96.679688 6.683594 C 97.15625 6.574219 97.691406 6.519531 98.28125 6.519531 C 98.386719 6.519531 98.511719 6.527344 98.65625 6.539062 C 98.808594 6.554688 98.960938 6.570312 99.105469 6.589844 C 99.257812 6.613281 99.40625 6.640625 99.554688 6.675781 C 99.699219 6.703125 99.828125 6.738281 99.9375 6.777344 Z M 99.605469 8.394531 "/>
<path style=" stroke:none;fill-rule:nonzero;fill:rgb(100%,100%,100%);fill-opacity:1;" d="M 100.226562 10.113281 C 100.226562 9.613281 100.304688 9.144531 100.464844 8.707031 C 100.625 8.261719 100.855469 7.878906 101.164062 7.550781 C 101.476562 7.222656 101.851562 6.964844 102.289062 6.769531 C 102.726562 6.574219 103.21875 6.476562 103.777344 6.476562 C 104.144531 6.476562 104.480469 6.511719 104.789062 6.582031 C 105.101562 6.644531 105.398438 6.738281 105.683594 6.863281 L 105.277344 8.425781 C 105.09375 8.355469 104.894531 8.292969 104.671875 8.238281 C 104.457031 8.183594 104.214844 8.152344 103.945312 8.152344 C 103.359375 8.152344 102.925781 8.335938 102.640625 8.695312 C 102.355469 9.058594 102.214844 9.527344 102.214844 10.113281 C 102.214844 10.738281 102.34375 11.222656 102.609375 11.558594 C 102.882812 11.902344 103.351562 12.070312 104.015625 12.070312 C 104.25 12.070312 104.507812 12.050781 104.777344 12.007812 C 105.046875 11.964844 105.296875 11.898438 105.527344 11.800781 L 105.808594 13.402344 C 105.578125 13.496094 105.292969 13.574219 104.953125 13.644531 C 104.613281 13.71875 104.234375 13.757812 103.820312 13.757812 C 103.1875 13.757812 102.640625 13.664062 102.183594 13.476562 C 101.730469 13.285156 101.359375 13.027344 101.070312 12.707031 C 100.777344 12.378906 100.5625 11.996094 100.421875 11.558594 C 100.289062 11.117188 100.226562 10.632812 100.226562 10.113281 Z M 100.226562 10.113281 "/>
<path style=" stroke:none;fill-rule:nonzero;fill:rgb(100%,100%,100%);fill-opacity:1;" d="M 112.574219 13.332031 C 112.246094 13.429688 111.820312 13.519531 111.292969 13.601562 C 110.765625 13.683594 110.214844 13.726562 109.636719 13.726562 C 109.054688 13.726562 108.566406 13.648438 108.167969 13.496094 C 107.777344 13.339844 107.472656 13.117188 107.242188 12.832031 C 107.019531 12.546875 106.859375 12.207031 106.761719 11.808594 C 106.664062 11.414062 106.617188 10.980469 106.617188 10.507812 L 106.617188 6.664062 L 108.574219 6.664062 L 108.574219 10.269531 C 108.574219 10.902344 108.660156 11.359375 108.824219 11.644531 C 108.992188 11.921875 109.300781 12.058594 109.753906 12.058594 C 109.898438 12.058594 110.046875 12.054688 110.199219 12.039062 C 110.359375 12.027344 110.503906 12.011719 110.628906 11.996094 L 110.628906 6.664062 L 112.574219 6.664062 Z M 112.574219 13.332031 "/>
<path style=" stroke:none;fill-rule:nonzero;fill:rgb(100%,100%,100%);fill-opacity:1;" d="M 118.148438 8.394531 C 117.972656 8.351562 117.769531 8.308594 117.535156 8.257812 C 117.296875 8.210938 117.042969 8.183594 116.773438 8.183594 C 116.648438 8.183594 116.496094 8.195312 116.324219 8.214844 C 116.160156 8.238281 116.027344 8.261719 115.941406 8.289062 L 115.941406 13.570312 L 113.980469 13.570312 L 113.980469 7.027344 C 114.335938 6.902344 114.746094 6.789062 115.222656 6.683594 C 115.699219 6.574219 116.234375 6.519531 116.824219 6.519531 C 116.929688 6.519531 117.054688 6.527344 117.199219 6.539062 C 117.351562 6.554688 117.503906 6.570312 117.648438 6.589844 C 117.800781 6.613281 117.949219 6.640625 118.097656 6.675781 C 118.242188 6.703125 118.371094 6.738281 118.480469 6.777344 Z M 118.148438 8.394531 "/>
<path style=" stroke:none;fill-rule:nonzero;fill:rgb(100%,100%,100%);fill-opacity:1;" d="M 125.226562 6.664062 C 124.828125 7.992188 124.414062 9.238281 123.984375 10.402344 C 123.5625 11.570312 123.09375 12.699219 122.589844 13.789062 C 122.402344 14.183594 122.214844 14.519531 122.027344 14.800781 C 121.84375 15.074219 121.644531 15.300781 121.421875 15.476562 C 121.207031 15.65625 120.960938 15.789062 120.683594 15.871094 C 120.414062 15.957031 120.09375 15.996094 119.726562 15.996094 C 119.417969 15.996094 119.132812 15.96875 118.871094 15.914062 C 118.613281 15.855469 118.402344 15.792969 118.234375 15.726562 L 118.578125 14.164062 C 118.78125 14.230469 118.957031 14.277344 119.109375 14.300781 C 119.269531 14.324219 119.4375 14.339844 119.621094 14.339844 C 119.96875 14.339844 120.234375 14.246094 120.421875 14.058594 C 120.609375 13.871094 120.769531 13.613281 120.902344 13.277344 C 120.457031 12.402344 120.007812 11.421875 119.558594 10.332031 C 119.113281 9.242188 118.695312 8.019531 118.308594 6.664062 L 120.382812 6.664062 C 120.464844 7.003906 120.5625 7.378906 120.683594 7.777344 C 120.808594 8.175781 120.933594 8.578125 121.058594 8.988281 C 121.1875 9.390625 121.320312 9.785156 121.453125 10.175781 C 121.59375 10.558594 121.726562 10.902344 121.851562 11.214844 C 121.960938 10.902344 122.078125 10.558594 122.203125 10.175781 C 122.328125 9.785156 122.449219 9.390625 122.570312 8.988281 C 122.6875 8.578125 122.796875 8.175781 122.902344 7.777344 C 123.011719 7.378906 123.113281 7.003906 123.203125 6.664062 Z M 125.226562 6.664062 "/>
</g>
</svg>
