<svg xmlns="http://www.w3.org/2000/svg" xmlns:xlink="http://www.w3.org/1999/xlink" width="500" zoomAndPan="magnify" viewBox="0 0 375 93.749996" height="125" preserveAspectRatio="xMidYMid meet" version="1.0"><defs><g/><clipPath id="b4f2c24b70"><path d="M 9.542969 28.238281 L 71.628906 28.238281 L 71.628906 64.890625 L 9.542969 64.890625 Z M 9.542969 28.238281 " clip-rule="nonzero"/></clipPath></defs><g fill="#000000" fill-opacity="1"><g transform="translate(74.684314, 72.717677)"><g><path d="M 50.890625 -54.09375 L 50.890625 0 L 41.421875 0 L 41.421875 -22.8125 L 41.765625 -31.8125 L 39.0625 -27.703125 L 28.609375 -15.40625 L 18.15625 -27.703125 L 15.453125 -31.8125 L 15.875 -22.8125 L 15.875 0 L 6.40625 0 L 6.40625 -54.09375 L 7.171875 -54.09375 L 28.6875 -28.71875 L 50.046875 -54.09375 Z M 50.890625 -54.09375 "/></g></g></g><g fill="#000000" fill-opacity="1"><g transform="translate(128.994329, 72.717677)"><g><path d="M 35.484375 -8.625 L 35.484375 0 L 6.1875 0 L 6.1875 -53.171875 L 33.953125 -53.171875 L 33.953125 -44.859375 L 15.71875 -44.859375 L 15.71875 -32.421875 L 30.21875 -32.421875 L 30.21875 -24.34375 L 15.71875 -24.34375 L 15.71875 -8.625 Z M 35.484375 -8.625 "/></g></g></g><g fill="#000000" fill-opacity="1"><g transform="translate(164.615958, 72.717677)"><g><path d="M 29.75 0 L 16.09375 -19.234375 L 16.09375 0 L 6.40625 0 L 6.40625 -53.171875 L 21.203125 -53.171875 C 33.816406 -53.171875 40.125 -47.523438 40.125 -36.234375 C 40.125 -33.722656 39.71875 -31.25 38.90625 -28.8125 C 38.09375 -26.382812 36.765625 -24.226562 34.921875 -22.34375 C 33.078125 -20.46875 30.71875 -19.175781 27.84375 -18.46875 L 41.578125 0 Z M 20.140625 -24.03125 C 22.304688 -24.03125 24.15625 -24.546875 25.6875 -25.578125 C 27.226562 -26.609375 28.390625 -27.984375 29.171875 -29.703125 C 29.960938 -31.421875 30.359375 -33.296875 30.359375 -35.328125 C 30.359375 -38.835938 29.550781 -41.414062 27.9375 -43.0625 C 26.320312 -44.71875 23.644531 -45.546875 19.90625 -45.546875 L 16.09375 -45.546875 L 16.09375 -24.03125 Z M 20.140625 -24.03125 "/></g></g></g><g fill="#000000" fill-opacity="1"><g transform="translate(205.653393, 72.717677)"><g><path d="M 24.421875 0.921875 C 20.578125 0.921875 17.015625 -0.113281 13.734375 -2.1875 C 10.453125 -4.257812 7.8125 -7.421875 5.8125 -11.671875 C 3.820312 -15.921875 2.828125 -21.132812 2.828125 -27.3125 C 2.828125 -32.9375 3.816406 -37.765625 5.796875 -41.796875 C 7.785156 -45.828125 10.472656 -48.882812 13.859375 -50.96875 C 17.253906 -53.050781 21.050781 -54.09375 25.25 -54.09375 C 27.820312 -54.09375 30 -53.84375 31.78125 -53.34375 C 33.5625 -52.851562 34.957031 -52.28125 35.96875 -51.625 C 36.988281 -50.976562 37.96875 -50.222656 38.90625 -49.359375 L 34.640625 -41.359375 C 33.742188 -42.316406 32.953125 -43.054688 32.265625 -43.578125 C 31.585938 -44.097656 30.71875 -44.515625 29.65625 -44.828125 C 28.601562 -45.148438 27.265625 -45.3125 25.640625 -45.3125 C 23.097656 -45.3125 20.910156 -44.566406 19.078125 -43.078125 C 17.242188 -41.597656 15.84375 -39.539062 14.875 -36.90625 C 13.90625 -34.269531 13.421875 -31.25 13.421875 -27.84375 C 13.421875 -23.570312 13.921875 -19.921875 14.921875 -16.890625 C 15.929688 -13.867188 17.296875 -11.59375 19.015625 -10.0625 C 20.734375 -8.539062 22.660156 -7.78125 24.796875 -7.78125 C 27.054688 -7.78125 29.054688 -8.097656 30.796875 -8.734375 C 32.546875 -9.367188 33.878906 -10.171875 34.796875 -11.140625 L 38.984375 -3.59375 C 37.429688 -2.3125 35.554688 -1.238281 33.359375 -0.375 C 31.160156 0.488281 28.179688 0.921875 24.421875 0.921875 Z M 24.421875 0.921875 "/></g></g></g><g fill="#000000" fill-opacity="1"><g transform="translate(242.876882, 72.717677)"><g><path d="M 23.953125 0.984375 C 18.179688 0.984375 13.582031 -0.554688 10.15625 -3.640625 C 6.738281 -6.734375 5.03125 -11.851562 5.03125 -19 L 5.03125 -53.171875 L 14.953125 -53.171875 L 14.953125 -17.9375 C 14.953125 -13.914062 15.832031 -11.140625 17.59375 -9.609375 C 19.363281 -8.085938 21.429688 -7.328125 23.796875 -7.328125 C 26.191406 -7.328125 28.226562 -8.078125 29.90625 -9.578125 C 31.582031 -11.078125 32.421875 -13.863281 32.421875 -17.9375 L 32.421875 -53.171875 L 42.34375 -53.171875 L 42.34375 -19 C 42.34375 -11.851562 40.675781 -6.734375 37.34375 -3.640625 C 34.007812 -0.554688 29.546875 0.984375 23.953125 0.984375 Z M 23.953125 0.984375 "/></g></g></g><g fill="#000000" fill-opacity="1"><g transform="translate(287.270616, 72.717677)"><g><path d="M 29.75 0 L 16.09375 -19.234375 L 16.09375 0 L 6.40625 0 L 6.40625 -53.171875 L 21.203125 -53.171875 C 33.816406 -53.171875 40.125 -47.523438 40.125 -36.234375 C 40.125 -33.722656 39.71875 -31.25 38.90625 -28.8125 C 38.09375 -26.382812 36.765625 -24.226562 34.921875 -22.34375 C 33.078125 -20.46875 30.71875 -19.175781 27.84375 -18.46875 L 41.578125 0 Z M 20.140625 -24.03125 C 22.304688 -24.03125 24.15625 -24.546875 25.6875 -25.578125 C 27.226562 -26.609375 28.390625 -27.984375 29.171875 -29.703125 C 29.960938 -31.421875 30.359375 -33.296875 30.359375 -35.328125 C 30.359375 -38.835938 29.550781 -41.414062 27.9375 -43.0625 C 26.320312 -44.71875 23.644531 -45.546875 19.90625 -45.546875 L 16.09375 -45.546875 L 16.09375 -24.03125 Z M 20.140625 -24.03125 "/></g></g></g><g fill="#000000" fill-opacity="1"><g transform="translate(328.308065, 72.717677)"><g><path d="M 25.40625 -20.796875 L 25.40625 0 L 15.640625 0 L 15.640625 -21.484375 L -1.140625 -53.171875 L 9.609375 -53.171875 L 20.796875 -30.0625 L 31.515625 -53.171875 L 42.1875 -53.171875 Z M 25.40625 -20.796875 "/></g></g></g><g clip-path="url(#b4f2c24b70)"><path fill="#2684ff" d="M 27.652344 64.800781 L 53.523438 64.800781 C 63.519531 64.800781 71.628906 56.652344 71.628906 46.601562 C 71.628906 36.554688 63.519531 28.402344 53.523438 28.402344 L 27.652344 28.402344 C 17.652344 28.402344 9.542969 36.554688 9.542969 46.601562 C 9.542969 56.652344 17.652344 64.800781 27.652344 64.800781 Z M 53.523438 36.203125 C 59.234375 36.203125 63.867188 40.863281 63.867188 46.601562 C 63.867188 52.34375 59.234375 57 53.523438 57 C 47.808594 57 43.171875 52.34375 43.171875 46.601562 C 43.171875 40.863281 47.808594 36.203125 53.523438 36.203125 Z M 53.523438 36.203125 " fill-opacity="1" fill-rule="nonzero"/></g></svg>