<svg xmlns="http://www.w3.org/2000/svg" xmlns:xlink="http://www.w3.org/1999/xlink" width="252" viewBox="0 0 252 72" height="72" version="1.0"><defs><g id="a"><path d="M 29.59375 -15.277344 C 29.59375 -16.691406 29.652344 -18.164062 29.652344 -19.578125 C 29.652344 -20.992188 29.59375 -22.410156 29.59375 -23.878906 L 29.59375 -28.125 C 29.59375 -28.351562 29.652344 -28.578125 29.652344 -28.746094 C 29.652344 -28.800781 29.652344 -28.859375 29.59375 -28.914062 C 29.59375 -29.085938 29.480469 -29.199219 29.480469 -29.367188 C 29.425781 -29.59375 29.480469 -29.820312 29.367188 -30.046875 C 29.3125 -30.273438 29.199219 -30.445312 29.027344 -30.671875 C 28.800781 -31.007812 28.40625 -31.292969 27.953125 -31.40625 C 27.785156 -31.519531 27.558594 -31.632812 27.386719 -31.632812 C 27.105469 -31.632812 26.878906 -31.519531 26.652344 -31.460938 C 26.3125 -31.347656 25.972656 -31.234375 25.746094 -31.007812 C 25.464844 -30.78125 25.292969 -30.5 25.125 -30.21875 L 24.953125 -29.707031 C 24.898438 -29.59375 24.726562 -29.480469 24.671875 -29.3125 C 24.613281 -29.085938 24.671875 -28.800781 24.671875 -28.578125 C 24.613281 -28.125 24.558594 -27.613281 24.558594 -27.160156 C 24.558594 -25.804688 24.671875 -24.390625 24.671875 -22.972656 C 24.671875 -21.617188 24.613281 -20.203125 24.613281 -18.84375 C 24.613281 -17.429688 24.613281 -16.070312 24.613281 -14.65625 L 24.613281 -10.523438 C 24.613281 -9.109375 24.671875 -7.753906 24.671875 -6.335938 C 24.671875 -4.980469 24.558594 -3.566406 24.558594 -2.207031 C 24.558594 -1.867188 24.613281 -1.527344 24.503906 -1.246094 C 24.445312 -0.90625 24.332031 -0.679688 24.105469 -0.453125 C 23.9375 -0.339844 23.824219 -0.226562 23.652344 -0.167969 C 23.425781 -0.113281 23.144531 -0.113281 22.859375 -0.113281 C 22.746094 -0.113281 22.632812 -0.113281 22.464844 -0.167969 C 22.296875 -0.167969 22.125 -0.113281 21.957031 -0.0546875 L 21.84375 -0.0546875 C 21.050781 -0.0546875 20.257812 -0.0546875 19.464844 -0.0546875 L 18.84375 -0.0546875 C 18.785156 -0.0546875 18.730469 -0.113281 18.671875 -0.0546875 L 18.617188 -0.113281 C 18.445312 -0.113281 18.277344 -0.0546875 18.164062 -0.113281 C 18.109375 -0.113281 18.109375 -0.0546875 18.109375 -0.0546875 C 17.882812 -0.0546875 17.65625 -0.113281 17.429688 -0.226562 C 17.144531 -0.339844 16.976562 -0.621094 16.804688 -0.90625 C 16.75 -1.074219 16.691406 -1.246094 16.691406 -1.414062 C 16.636719 -1.585938 16.636719 -1.699219 16.636719 -1.867188 C 16.578125 -2.261719 16.636719 -2.714844 16.636719 -3.113281 C 16.636719 -4.527344 16.691406 -5.886719 16.691406 -7.300781 C 16.691406 -8.65625 16.636719 -10.015625 16.636719 -11.429688 L 16.636719 -15.5625 C 16.636719 -16.917969 16.691406 -18.335938 16.691406 -19.691406 C 16.691406 -21.105469 16.636719 -22.464844 16.636719 -23.824219 C 16.636719 -25.238281 16.75 -26.597656 16.75 -28.011719 C 16.75 -28.238281 16.578125 -28.464844 16.578125 -28.746094 C 16.523438 -28.914062 16.578125 -29.140625 16.578125 -29.367188 L 16.578125 -29.59375 C 16.464844 -29.878906 16.296875 -30.105469 16.183594 -30.332031 C 16.070312 -30.5 16.070312 -30.726562 15.902344 -30.894531 C 15.84375 -30.953125 15.730469 -31.007812 15.617188 -31.121094 C 15.390625 -31.292969 15.109375 -31.40625 14.769531 -31.519531 C 14.65625 -31.519531 14.484375 -31.632812 14.316406 -31.574219 L 14.089844 -31.519531 C 13.808594 -31.519531 13.636719 -31.40625 13.355469 -31.292969 C 13.128906 -31.179688 12.84375 -31.007812 12.675781 -30.839844 C 12.5625 -30.726562 12.449219 -30.671875 12.390625 -30.558594 C 12.109375 -30.160156 11.828125 -29.765625 11.714844 -29.3125 C 11.714844 -29.085938 11.769531 -28.859375 11.769531 -28.6875 L 11.769531 -28.578125 C 11.714844 -28.238281 11.65625 -27.898438 11.65625 -27.558594 C 11.65625 -26.199219 11.714844 -24.898438 11.714844 -23.539062 C 11.714844 -22.183594 11.65625 -20.824219 11.65625 -19.464844 L 11.65625 -15.449219 C 11.65625 -14.089844 11.714844 -12.730469 11.714844 -11.375 C 11.714844 -10.015625 11.714844 -8.714844 11.714844 -7.355469 L 11.714844 -3.28125 C 11.714844 -3.054688 11.714844 -2.773438 11.714844 -2.488281 L 11.714844 -1.585938 C 11.714844 -1.300781 11.542969 -1.074219 11.375 -0.847656 C 11.261719 -0.621094 11.148438 -0.339844 10.921875 -0.226562 C 10.75 -0.167969 10.582031 -0.113281 10.410156 -0.113281 C 10.296875 -0.0546875 10.1875 -0.113281 10.015625 -0.113281 C 9.960938 -0.0546875 9.847656 -0.113281 9.789062 -0.0546875 L 9.734375 -0.0546875 C 9.449219 -0.113281 9.222656 -0.0546875 8.996094 0 L 8.882812 0 C 8.09375 0 7.300781 -0.167969 6.507812 -0.167969 C 6.28125 -0.167969 6.113281 -0.113281 5.886719 -0.0546875 C 5.828125 -0.0546875 5.773438 -0.113281 5.714844 -0.113281 C 5.660156 -0.113281 5.660156 -0.167969 5.660156 -0.167969 C 5.375 -0.167969 5.148438 -0.167969 4.921875 -0.226562 C 4.695312 -0.28125 4.46875 -0.28125 4.300781 -0.453125 C 4.128906 -0.566406 4.074219 -0.679688 4.019531 -0.847656 C 3.90625 -1.074219 3.734375 -1.300781 3.734375 -1.585938 C 3.734375 -1.867188 3.792969 -2.148438 3.792969 -2.433594 L 3.792969 -2.601562 C 3.734375 -3.113281 3.679688 -3.621094 3.679688 -4.128906 C 3.679688 -4.640625 3.792969 -5.148438 3.792969 -5.660156 C 3.792969 -7.015625 3.679688 -8.429688 3.679688 -9.847656 C 3.679688 -11.261719 3.679688 -12.675781 3.679688 -14.089844 L 3.679688 -18.277344 C 3.679688 -19.691406 3.734375 -21.105469 3.734375 -22.464844 L 3.734375 -26.707031 C 3.792969 -27.386719 3.621094 -28.125 3.679688 -28.800781 C 3.679688 -29.027344 3.792969 -29.253906 3.792969 -29.480469 C 3.847656 -29.652344 3.734375 -29.765625 3.734375 -29.933594 C 3.792969 -30.105469 3.847656 -30.273438 3.847656 -30.386719 C 3.90625 -30.839844 4.074219 -31.234375 4.1875 -31.6875 C 4.1875 -31.800781 4.242188 -31.914062 4.242188 -31.972656 C 4.242188 -32.085938 4.1875 -32.140625 4.1875 -32.253906 C 4.300781 -32.425781 4.414062 -32.59375 4.527344 -32.820312 C 4.582031 -32.988281 4.582031 -33.160156 4.640625 -33.328125 C 4.695312 -33.386719 4.753906 -33.5 4.753906 -33.554688 C 5.035156 -34.066406 5.375 -34.519531 5.714844 -35.027344 C 5.941406 -35.308594 6.167969 -35.59375 6.394531 -35.820312 C 6.621094 -36.101562 6.847656 -36.386719 7.128906 -36.667969 C 7.355469 -36.894531 7.527344 -37.121094 7.808594 -37.289062 C 7.980469 -37.460938 8.203125 -37.574219 8.429688 -37.742188 C 8.714844 -37.914062 8.882812 -38.140625 9.109375 -38.308594 C 9.449219 -38.480469 9.789062 -38.59375 10.074219 -38.761719 C 10.296875 -38.820312 10.46875 -38.929688 10.695312 -38.988281 C 10.808594 -39.042969 10.976562 -39.042969 11.148438 -39.101562 C 11.375 -39.15625 11.601562 -39.15625 11.828125 -39.214844 C 12.109375 -39.269531 12.449219 -39.441406 12.730469 -39.496094 C 12.957031 -39.496094 13.128906 -39.441406 13.355469 -39.496094 L 13.582031 -39.496094 C 13.976562 -39.554688 14.429688 -39.609375 14.824219 -39.609375 C 15.390625 -39.554688 15.957031 -39.441406 15.675781 -39.496094 C 15.957031 -39.441406 16.296875 -39.441406 16.578125 -39.382812 C 16.804688 -39.328125 16.976562 -39.214844 17.144531 -39.15625 C 17.371094 -39.042969 17.65625 -39.042969 17.882812 -38.988281 C 18.109375 -38.875 18.390625 -38.820312 18.617188 -38.707031 C 18.898438 -38.59375 19.183594 -38.480469 19.464844 -38.308594 C 19.691406 -38.195312 19.804688 -37.914062 20.089844 -37.800781 C 20.257812 -37.742188 20.484375 -37.742188 20.652344 -37.6875 C 20.824219 -37.6875 20.992188 -37.6875 21.105469 -37.742188 C 21.390625 -37.800781 21.617188 -38.027344 21.84375 -38.140625 C 22.238281 -38.367188 22.578125 -38.535156 22.972656 -38.707031 C 23.199219 -38.761719 23.425781 -38.929688 23.710938 -38.988281 C 23.878906 -39.042969 24.050781 -39.042969 24.21875 -39.101562 C 24.503906 -39.15625 24.785156 -39.328125 25.066406 -39.382812 C 25.351562 -39.496094 25.632812 -39.441406 25.917969 -39.496094 C 27.105469 -39.609375 30.160156 -39.667969 28.292969 -39.554688 C 28.6875 -39.496094 29.085938 -39.382812 29.480469 -39.328125 L 30.105469 -39.214844 C 30.445312 -39.15625 30.78125 -38.988281 31.121094 -38.820312 C 31.519531 -38.648438 31.972656 -38.480469 32.367188 -38.253906 L 32.875 -37.96875 C 33.101562 -37.800781 33.273438 -37.628906 33.5 -37.515625 L 33.839844 -37.175781 C 33.894531 -37.175781 33.839844 -37.121094 33.839844 -37.121094 C 34.121094 -36.894531 34.40625 -36.726562 34.632812 -36.5 C 34.96875 -36.101562 35.308594 -35.707031 35.59375 -35.308594 C 35.820312 -35.027344 35.933594 -34.6875 36.046875 -34.347656 C 36.214844 -34.066406 36.441406 -33.839844 36.554688 -33.554688 C 36.726562 -33.273438 36.78125 -32.933594 36.894531 -32.59375 C 37.0625 -32.199219 37.175781 -31.859375 37.234375 -31.519531 C 37.347656 -31.179688 37.402344 -30.894531 37.460938 -30.613281 C 37.515625 -30.332031 37.402344 -30.105469 37.402344 -29.878906 C 37.402344 -29.707031 37.574219 -29.539062 37.574219 -29.367188 C 37.574219 -29.3125 37.515625 -29.253906 37.515625 -29.199219 L 37.574219 -28.859375 C 37.628906 -28.859375 37.515625 -27.898438 37.515625 -27.953125 C 37.515625 -27.613281 37.628906 -27.332031 37.628906 -26.992188 C 37.628906 -26.707031 37.515625 -26.425781 37.515625 -26.085938 C 37.515625 -24.785156 37.628906 -23.425781 37.628906 -22.125 L 37.628906 -18.109375 C 37.628906 -16.804688 37.628906 -15.449219 37.628906 -14.148438 L 37.628906 -10.128906 C 37.628906 -8.828125 37.515625 -7.46875 37.515625 -6.167969 C 37.515625 -4.867188 37.574219 -3.507812 37.574219 -2.207031 C 37.574219 -1.867188 37.574219 -1.527344 37.515625 -1.246094 C 37.402344 -0.90625 37.234375 -0.679688 37.007812 -0.453125 C 36.894531 -0.339844 36.726562 -0.28125 36.554688 -0.226562 C 36.328125 -0.113281 36.046875 -0.167969 35.820312 -0.167969 C 35.761719 -0.167969 35.707031 -0.0546875 35.707031 -0.0546875 L 35.59375 -0.0546875 C 35.367188 -0.113281 35.140625 -0.0546875 34.914062 0 C 34.855469 0 34.800781 -0.113281 34.800781 -0.113281 C 34.007812 -0.113281 33.214844 -0.0546875 32.367188 -0.113281 L 31.800781 -0.113281 C 31.746094 -0.113281 31.6875 -0.0546875 31.632812 -0.0546875 C 31.574219 -0.0546875 31.574219 0 31.574219 0 C 31.40625 -0.0546875 31.234375 -0.113281 31.066406 -0.113281 C 31.066406 -0.113281 31.066406 -0.167969 31.007812 -0.167969 C 30.839844 -0.167969 30.613281 -0.167969 30.386719 -0.226562 C 30.160156 -0.339844 29.992188 -0.566406 29.878906 -0.792969 C 29.765625 -1.019531 29.652344 -1.1875 29.652344 -1.414062 C 29.652344 -1.585938 29.707031 -1.753906 29.652344 -1.867188 C 29.59375 -2.320312 29.652344 -2.773438 29.652344 -3.167969 C 29.652344 -4.527344 29.652344 -5.886719 29.652344 -7.242188 L 29.652344 -11.261719 C 29.652344 -12.617188 29.652344 -13.921875 29.652344 -15.277344 Z M 29.59375 -15.277344"/></g><g id="b"><path d="M 1.414062 -20.539062 C 1.414062 -20.9375 1.472656 -21.332031 1.585938 -21.730469 C 1.300781 -21.84375 1.980469 -24.332031 2.09375 -24.726562 C 2.488281 -26.539062 3.226562 -28.292969 4.074219 -29.878906 C 4.46875 -30.5 4.867188 -31.179688 5.320312 -31.746094 C 6.28125 -33.046875 7.46875 -34.347656 8.714844 -35.367188 C 8.882812 -35.535156 9.054688 -35.648438 9.222656 -35.761719 C 9.28125 -35.820312 9.394531 -35.875 9.449219 -35.988281 L 11.203125 -37.175781 C 11.316406 -37.234375 11.542969 -37.234375 11.65625 -37.347656 C 11.828125 -37.402344 11.996094 -37.515625 12.167969 -37.574219 C 12.222656 -37.628906 12.222656 -37.742188 12.28125 -37.742188 C 12.28125 -37.800781 12.335938 -37.742188 12.390625 -37.742188 C 12.503906 -37.855469 12.675781 -37.96875 12.84375 -38.027344 C 12.957031 -38.140625 13.128906 -38.140625 13.242188 -38.253906 C 13.355469 -38.253906 13.410156 -38.367188 13.46875 -38.367188 C 13.75 -38.480469 14.035156 -38.535156 14.261719 -38.648438 C 14.484375 -38.707031 14.769531 -38.761719 14.996094 -38.875 C 15.109375 -38.875 15.164062 -39.042969 15.277344 -39.042969 C 15.335938 -39.101562 15.449219 -39.101562 15.5625 -39.101562 C 15.617188 -39.15625 15.730469 -39.101562 15.789062 -39.101562 C 15.902344 -39.15625 16.015625 -39.15625 16.128906 -39.214844 C 16.242188 -39.214844 16.355469 -39.328125 16.464844 -39.382812 C 16.578125 -39.441406 16.691406 -39.441406 16.804688 -39.441406 L 17.9375 -39.722656 C 18.164062 -39.722656 18.445312 -39.722656 18.730469 -39.78125 C 18.898438 -39.78125 19.070312 -39.894531 19.238281 -39.894531 C 19.523438 -39.949219 19.75 -39.894531 20.03125 -39.949219 C 20.652344 -40.007812 21.277344 -39.835938 21.617188 -39.269531 C 21.730469 -39.101562 21.730469 -38.875 21.785156 -38.707031 C 21.898438 -37.742188 21.957031 -36.78125 21.957031 -35.820312 C 21.957031 -35.253906 21.957031 -34.6875 21.898438 -34.179688 C 21.84375 -33.101562 21.617188 -32.085938 20.371094 -31.914062 L 20.144531 -31.914062 C 20.03125 -31.859375 19.917969 -31.914062 19.804688 -31.914062 L 19.011719 -31.746094 C 15.730469 -31.007812 12.675781 -28.800781 11.035156 -25.859375 C 10.921875 -25.632812 10.921875 -25.40625 10.808594 -25.179688 L 10.582031 -24.785156 C 10.582031 -24.671875 10.695312 -24.613281 10.695312 -24.558594 C 10.695312 -24.445312 10.636719 -24.332031 10.75 -24.21875 C 10.808594 -24.105469 10.921875 -23.992188 11.035156 -23.9375 C 11.261719 -23.878906 11.429688 -23.9375 11.65625 -23.9375 C 11.882812 -23.9375 12.167969 -23.878906 12.390625 -23.878906 C 12.449219 -23.878906 12.449219 -23.878906 12.449219 -23.878906 L 12.617188 -23.878906 C 12.675781 -23.9375 12.730469 -23.824219 12.789062 -23.824219 C 13.863281 -23.824219 14.9375 -23.824219 16.015625 -23.878906 C 16.578125 -23.878906 17.089844 -23.878906 17.597656 -23.9375 C 18.050781 -23.9375 18.503906 -23.824219 18.957031 -23.824219 L 19.070312 -23.824219 C 19.464844 -23.824219 20.03125 -23.824219 20.371094 -23.710938 C 20.429688 -23.652344 20.429688 -23.652344 20.484375 -23.652344 C 20.824219 -23.425781 21.050781 -23.085938 21.105469 -22.691406 C 21.164062 -22.464844 21.164062 -22.183594 21.164062 -21.957031 C 21.164062 -21.558594 21.164062 -21.105469 21.164062 -20.710938 L 21.164062 -18.617188 C 21.164062 -18.558594 21.105469 -18.503906 21.105469 -18.503906 C 21.105469 -18.445312 21.21875 -18.390625 21.21875 -18.277344 C 21.21875 -17.65625 21.21875 -16.636719 20.652344 -16.183594 C 20.203125 -15.84375 19.75 -15.789062 19.238281 -15.789062 C 18.898438 -15.789062 18.617188 -15.789062 18.277344 -15.84375 C 17.257812 -15.902344 16.128906 -15.789062 15.109375 -15.789062 C 13.976562 -15.789062 12.902344 -15.84375 11.828125 -15.84375 C 11.601562 -15.84375 11.316406 -15.84375 11.089844 -15.730469 C 10.921875 -15.675781 10.808594 -15.5625 10.75 -15.449219 C 10.636719 -15.335938 10.582031 -15.222656 10.582031 -15.109375 C 10.582031 -14.996094 10.523438 -14.882812 10.582031 -14.769531 C 10.582031 -14.597656 10.695312 -14.484375 10.808594 -14.316406 C 10.808594 -14.261719 10.808594 -14.203125 10.808594 -14.148438 L 11.203125 -13.46875 C 11.375 -13.128906 11.714844 -12.84375 11.941406 -12.503906 C 12.335938 -11.941406 12.789062 -11.542969 13.296875 -11.035156 C 13.523438 -10.863281 13.636719 -10.582031 13.863281 -10.355469 C 14.429688 -9.902344 15.277344 -9.507812 15.957031 -9.109375 C 16.917969 -8.601562 17.996094 -8.148438 19.070312 -7.921875 C 19.183594 -7.867188 19.351562 -7.867188 19.523438 -7.867188 C 19.75 -7.808594 19.976562 -7.808594 20.144531 -7.753906 C 20.429688 -7.695312 20.652344 -7.640625 20.9375 -7.527344 C 21.105469 -7.46875 21.21875 -7.355469 21.390625 -7.1875 C 21.503906 -7.074219 21.617188 -7.015625 21.671875 -6.902344 C 21.84375 -6.621094 21.84375 -6.449219 21.84375 -6.28125 C 21.84375 -6.167969 21.84375 -6.054688 21.84375 -5.941406 L 21.84375 -5.714844 C 21.898438 -5.261719 21.898438 -4.808594 21.898438 -4.355469 C 21.898438 -3.847656 21.898438 -3.394531 21.84375 -2.886719 C 21.84375 -2.433594 21.84375 -1.980469 21.785156 -1.527344 C 21.785156 -1.1875 21.84375 -0.679688 21.730469 -0.394531 C 21.730469 -0.28125 21.617188 -0.167969 21.558594 -0.0546875 L 21.390625 0.0546875 C 21.332031 0.113281 21.164062 0.167969 21.105469 0.167969 C 20.765625 0.339844 20.484375 0.394531 20.203125 0.394531 C 19.976562 0.394531 19.75 0.394531 19.578125 0.28125 C 19.351562 0.226562 19.125 0.28125 18.898438 0.28125 C 18.558594 0.226562 18.222656 0.167969 17.9375 0.0546875 C 17.882812 0.0546875 17.769531 0.113281 17.710938 0.0546875 C 17.484375 0.0546875 17.316406 -0.113281 17.089844 -0.167969 C 16.976562 -0.226562 16.804688 -0.113281 16.636719 -0.167969 C 16.355469 -0.226562 16.015625 -0.339844 15.730469 -0.453125 C 15.164062 -0.679688 14.597656 -0.960938 14.035156 -1.132812 C 13.523438 -1.300781 13.015625 -1.414062 12.5625 -1.640625 C 12.449219 -1.699219 12.335938 -1.8125 12.449219 -1.925781 C 12.109375 -1.640625 10.410156 -3.054688 10.1875 -3.226562 C 9.960938 -3.339844 9.734375 -3.394531 9.507812 -3.566406 C 9.335938 -3.734375 9.109375 -3.90625 8.882812 -4.074219 C 8.429688 -4.414062 8.035156 -4.921875 7.582031 -5.320312 C 6.789062 -6 6 -6.960938 5.320312 -7.808594 L 4.867188 -8.429688 C 4.640625 -8.769531 4.527344 -9.167969 4.300781 -9.5625 C 4.1875 -9.734375 4.074219 -9.847656 3.960938 -10.015625 L 3.90625 -10.242188 C 3.566406 -10.808594 3.167969 -11.429688 2.941406 -11.996094 C 2.714844 -12.730469 2.375 -13.410156 2.207031 -14.089844 L 2.039062 -14.65625 C 1.980469 -14.824219 2.039062 -14.996094 1.980469 -15.164062 C 1.925781 -15.390625 1.925781 -15.5625 1.925781 -15.789062 C 1.867188 -16.015625 1.699219 -16.183594 1.640625 -16.410156 C 1.585938 -16.75 1.585938 -17.089844 1.527344 -17.429688 C 1.472656 -17.882812 1.472656 -18.277344 1.472656 -18.730469 C 1.414062 -19.296875 1.414062 -19.917969 1.414062 -20.539062 Z M 1.414062 -20.539062"/></g><g id="c"><path d="M 2.886719 -19.917969 C 2.886719 -21.105469 2.828125 -22.351562 2.828125 -23.539062 C 2.828125 -24.785156 2.941406 -25.972656 2.941406 -27.21875 C 2.941406 -28.40625 2.828125 -29.652344 2.828125 -30.839844 L 2.828125 -34.519531 C 2.828125 -35.707031 2.886719 -36.949219 2.886719 -38.140625 C 2.886719 -38.421875 2.886719 -38.648438 2.941406 -38.875 C 3 -39.101562 3.167969 -39.269531 3.339844 -39.382812 C 3.507812 -39.496094 3.679688 -39.441406 3.90625 -39.496094 C 4.355469 -39.554688 4.808594 -39.609375 5.261719 -39.609375 C 6.734375 -39.609375 8.203125 -39.441406 9.675781 -39.441406 C 12.109375 -39.496094 13.863281 -39.554688 14.089844 -39.496094 C 14.371094 -39.496094 14.65625 -39.554688 14.882812 -39.554688 L 15.335938 -39.554688 C 15.503906 -39.496094 15.675781 -39.441406 15.789062 -39.441406 C 16.296875 -39.382812 16.75 -39.15625 17.203125 -39.042969 C 17.65625 -38.929688 18.109375 -38.820312 18.558594 -38.648438 L 19.351562 -38.308594 C 19.523438 -38.253906 19.75 -38.082031 19.917969 -37.96875 C 20.144531 -37.914062 20.316406 -37.800781 20.484375 -37.742188 C 20.539062 -37.6875 20.652344 -37.742188 20.710938 -37.742188 L 21.957031 -36.894531 C 22.125 -36.726562 22.351562 -36.5 22.578125 -36.328125 C 22.746094 -36.160156 22.972656 -35.933594 23.199219 -35.761719 C 23.425781 -35.535156 23.539062 -35.253906 23.765625 -35.027344 C 23.992188 -34.746094 24.332031 -34.519531 24.558594 -34.179688 C 24.726562 -33.953125 24.898438 -33.667969 25.066406 -33.386719 C 25.292969 -33.101562 25.464844 -32.820312 25.632812 -32.539062 L 25.691406 -32.3125 C 25.917969 -31.914062 26.03125 -31.460938 26.199219 -31.007812 C 26.371094 -30.613281 26.425781 -30.21875 26.539062 -29.820312 C 26.652344 -29.539062 26.765625 -29.199219 26.820312 -28.914062 C 26.933594 -28.578125 26.878906 -28.238281 26.933594 -27.898438 C 26.933594 -27.671875 27.105469 -27.445312 27.105469 -27.160156 C 27.105469 -27.160156 27.046875 -27.160156 27.046875 -27.160156 L 27.046875 -26.03125 C 27.046875 -25.804688 26.992188 -25.578125 26.992188 -25.351562 C 26.992188 -25.179688 26.992188 -25.066406 26.992188 -24.953125 L 26.820312 -23.824219 C 26.765625 -23.539062 26.765625 -23.257812 26.707031 -22.972656 C 26.597656 -22.578125 26.371094 -22.238281 26.199219 -21.84375 C 26.085938 -21.558594 26.03125 -21.21875 25.917969 -20.9375 C 25.746094 -20.710938 25.632812 -20.429688 25.519531 -20.203125 C 25.40625 -19.976562 25.351562 -19.691406 25.238281 -19.464844 C 25.066406 -19.183594 24.839844 -19.011719 24.671875 -18.785156 C 24.445312 -18.445312 24.21875 -18.109375 23.992188 -17.824219 C 23.9375 -17.710938 23.9375 -17.65625 23.9375 -17.542969 C 23.878906 -17.371094 23.824219 -17.203125 23.9375 -17.03125 C 24.050781 -16.863281 24.164062 -16.691406 24.332031 -16.523438 C 24.558594 -16.128906 24.898438 -15.789062 25.125 -15.390625 C 25.292969 -15.050781 25.464844 -14.65625 25.578125 -14.316406 C 25.691406 -14.089844 25.859375 -13.921875 25.917969 -13.695312 C 26.085938 -13.296875 26.085938 -12.902344 26.199219 -12.449219 C 26.257812 -12.109375 26.484375 -11.714844 26.484375 -11.375 C 26.539062 -11.148438 26.425781 -10.863281 26.425781 -10.636719 L 26.425781 -9.621094 C 26.425781 -8.203125 26.484375 -6.789062 26.484375 -5.433594 C 26.484375 -4.019531 26.484375 -2.601562 26.484375 -1.246094 L 26.484375 -0.792969 C 26.425781 -0.621094 26.371094 -0.453125 26.257812 -0.339844 L 26.085938 -0.167969 C 25.917969 -0.0546875 25.691406 0 25.519531 0 C 25.464844 0 25.464844 0 25.40625 0 L 19.636719 0 C 19.464844 0 19.296875 -0.0546875 19.125 -0.113281 C 18.84375 -0.226562 18.558594 -0.394531 18.503906 -0.734375 C 18.503906 -0.847656 18.617188 -1.019531 18.617188 -1.132812 C 18.617188 -2.433594 18.558594 -3.734375 18.558594 -5.035156 C 18.558594 -6.335938 18.617188 -7.640625 18.617188 -8.941406 C 18.558594 -9.28125 18.445312 -9.675781 18.445312 -10.015625 C 18.390625 -10.523438 18.335938 -10.976562 18.164062 -11.375 C 17.996094 -11.65625 17.882812 -11.996094 17.65625 -12.222656 C 17.371094 -12.503906 17.03125 -12.675781 16.636719 -12.84375 C 16.464844 -12.957031 16.242188 -12.957031 16.070312 -13.015625 C 15.730469 -13.070312 15.390625 -13.242188 15.050781 -13.242188 L 14.996094 -13.242188 C 14.542969 -13.242188 14.089844 -13.183594 13.582031 -13.183594 C 13.128906 -13.183594 12.675781 -13.128906 12.167969 -13.128906 L 11.429688 -13.128906 C 11.316406 -13.070312 11.089844 -13.128906 10.976562 -13.015625 C 10.921875 -12.957031 10.863281 -12.902344 10.863281 -12.84375 C 10.808594 -12.730469 10.808594 -12.5625 10.808594 -12.390625 C 10.75 -11.203125 10.863281 -9.960938 10.863281 -8.769531 C 10.863281 -7.582031 10.808594 -6.335938 10.808594 -5.148438 C 10.808594 -3.960938 10.863281 -2.714844 10.863281 -1.527344 C 10.863281 -1.359375 10.75 -1.246094 10.695312 -1.074219 C 10.695312 -0.847656 10.636719 -0.621094 10.410156 -0.507812 C 10.355469 -0.453125 10.242188 -0.394531 10.074219 -0.339844 C 9.960938 -0.339844 9.789062 -0.28125 9.621094 -0.28125 C 7.753906 -0.28125 5.941406 -0.339844 4.128906 -0.339844 C 3.960938 -0.339844 3.734375 -0.226562 3.621094 -0.28125 C 3.28125 -0.339844 3.113281 -0.621094 3 -0.960938 L 2.828125 -1.472656 C 2.828125 -1.585938 2.941406 -1.753906 2.941406 -1.867188 L 2.941406 -6.394531 C 2.941406 -7.921875 2.941406 -9.394531 2.941406 -10.921875 L 2.941406 -15.390625 C 2.941406 -16.917969 2.886719 -18.390625 2.886719 -19.917969 Z M 10.808594 -26.3125 C 10.808594 -25.011719 10.863281 -23.765625 10.863281 -22.464844 C 10.863281 -22.296875 10.808594 -22.125 10.808594 -21.898438 L 10.808594 -21.785156 C 10.808594 -21.671875 10.921875 -21.617188 10.921875 -21.558594 C 10.976562 -21.445312 11.035156 -21.390625 11.148438 -21.277344 C 11.261719 -21.21875 11.375 -21.105469 11.542969 -21.105469 L 12.902344 -21.105469 C 13.355469 -21.164062 13.808594 -21.105469 14.261719 -21.164062 C 14.484375 -21.164062 14.769531 -21.105469 14.996094 -21.164062 C 15.5625 -21.277344 16.015625 -21.617188 16.523438 -21.898438 C 16.804688 -22.070312 17.144531 -22.125 17.371094 -22.351562 C 17.542969 -22.519531 17.710938 -22.691406 17.882812 -22.917969 C 18.109375 -23.144531 18.277344 -23.539062 18.445312 -23.824219 C 18.617188 -24.105469 18.671875 -24.390625 18.785156 -24.671875 C 18.898438 -24.953125 19.011719 -25.238281 19.011719 -25.578125 C 19.070312 -25.804688 19.183594 -25.972656 19.183594 -26.199219 C 19.238281 -26.484375 19.125 -26.707031 19.125 -26.992188 C 19.070312 -27.386719 18.957031 -27.726562 18.84375 -28.125 C 18.730469 -28.464844 18.558594 -28.859375 18.335938 -29.199219 L 17.769531 -29.878906 C 17.597656 -30.105469 17.257812 -30.21875 17.03125 -30.386719 C 16.75 -30.558594 16.523438 -30.726562 16.242188 -30.894531 L 15.449219 -31.234375 C 15.222656 -31.292969 15.050781 -31.347656 14.824219 -31.347656 C 14.710938 -31.40625 14.542969 -31.519531 14.429688 -31.519531 C 14.261719 -31.519531 14.035156 -31.460938 13.863281 -31.460938 L 11.65625 -31.460938 C 11.542969 -31.460938 11.429688 -31.40625 11.316406 -31.40625 C 11.089844 -31.40625 10.976562 -31.179688 10.921875 -31.007812 C 10.921875 -30.726562 10.808594 -30.5 10.808594 -30.21875 Z M 10.808594 -26.3125"/></g><g id="d"><path d="M 22.578125 -39.894531 C 23.03125 -39.894531 23.539062 -40.007812 23.992188 -40.007812 C 24.277344 -40.007812 24.558594 -39.894531 24.839844 -39.78125 C 25.011719 -39.722656 25.292969 -39.722656 25.40625 -39.554688 C 25.464844 -39.496094 25.464844 -39.382812 25.519531 -39.328125 C 25.632812 -39.15625 25.691406 -38.988281 25.746094 -38.820312 C 25.917969 -38.140625 25.972656 -37.402344 25.972656 -36.613281 C 25.972656 -35.875 25.917969 -35.082031 25.917969 -34.40625 L 25.917969 -34.121094 C 25.917969 -34.066406 25.972656 -34.007812 25.972656 -33.953125 C 25.972656 -33.839844 25.972656 -33.726562 25.972656 -33.613281 L 25.859375 -33.554688 C 25.859375 -32.875 25.632812 -32.140625 25.011719 -31.859375 C 24.785156 -31.746094 24.558594 -31.800781 24.390625 -31.746094 C 24.21875 -31.746094 24.050781 -31.6875 23.878906 -31.6875 C 22.351562 -31.519531 20.878906 -31.460938 19.410156 -31.234375 C 17.9375 -31.007812 16.523438 -30.726562 15.164062 -29.765625 C 13.808594 -28.859375 12.5625 -27.726562 11.65625 -26.371094 C 11.601562 -26.199219 11.429688 -26.085938 11.316406 -25.917969 L 10.921875 -25.179688 C 10.695312 -24.726562 10.636719 -24.277344 10.46875 -23.824219 C 10.296875 -23.371094 10.296875 -22.917969 10.1875 -22.519531 C 10.074219 -22.125 9.789062 -21.730469 9.734375 -21.332031 C 9.675781 -20.878906 9.675781 -20.484375 9.675781 -20.03125 C 9.675781 -19.238281 9.734375 -18.503906 9.847656 -17.710938 C 9.902344 -17.65625 10.074219 -17.65625 10.128906 -17.597656 C 10.1875 -17.203125 10.242188 -16.863281 10.355469 -16.523438 C 10.75 -15.449219 11.035156 -14.371094 11.65625 -13.46875 C 12.222656 -12.5625 12.902344 -11.601562 13.75 -10.863281 C 13.976562 -10.695312 14.261719 -10.636719 14.429688 -10.523438 C 16.015625 -9.28125 17.882812 -8.542969 19.863281 -8.261719 C 20.144531 -8.203125 20.429688 -7.980469 20.710938 -7.980469 C 21.277344 -7.980469 22.183594 -8.09375 23.03125 -8.09375 C 24.105469 -8.09375 25.179688 -7.921875 25.578125 -7.1875 C 25.691406 -7.074219 25.859375 -7.015625 25.859375 -6.847656 C 25.859375 -6.789062 25.917969 -6.734375 25.917969 -6.621094 C 25.917969 -6.507812 25.804688 -6.335938 25.804688 -6.222656 C 25.804688 -6.113281 25.917969 -6.054688 25.917969 -5.941406 C 25.917969 -5.941406 25.972656 -5.886719 25.972656 -5.828125 C 25.917969 -5.714844 25.859375 -5.601562 25.917969 -5.488281 C 25.917969 -5.433594 26.03125 -5.433594 26.03125 -5.375 C 26.03125 -4.355469 25.917969 -3.339844 25.917969 -2.320312 C 25.917969 -2.261719 25.972656 -2.207031 25.972656 -2.207031 C 25.917969 -2.09375 25.859375 -1.980469 25.859375 -1.925781 C 25.917969 -1.867188 25.859375 -1.8125 25.804688 -1.753906 C 25.804688 -1.699219 25.972656 -1.585938 25.972656 -1.472656 C 25.972656 -1.1875 25.804688 -0.960938 25.691406 -0.679688 C 25.351562 0.226562 24.21875 0.394531 23.199219 0.394531 C 22.632812 0.394531 22.070312 0.339844 21.617188 0.339844 C 21.503906 0.339844 21.445312 0.28125 21.332031 0.28125 L 21.277344 0.28125 C 21.21875 0.28125 21.164062 0.394531 21.105469 0.394531 C 19.863281 0.339844 18.671875 0.167969 17.484375 -0.0546875 C 16.355469 -0.339844 15.164062 -0.734375 14.089844 -1.1875 C 12.957031 -1.640625 11.882812 -2.148438 10.808594 -2.773438 L 10.808594 -2.886719 C 9.5625 -3.679688 8.429688 -4.582031 7.414062 -5.546875 C 6.394531 -6.5625 5.433594 -7.640625 4.640625 -8.882812 C 3.847656 -10.074219 3.28125 -11.375 2.773438 -12.730469 C 2.660156 -12.957031 2.660156 -13.242188 2.546875 -13.46875 C 2.320312 -14.089844 1.980469 -14.710938 1.867188 -15.390625 C 1.753906 -15.84375 1.8125 -16.296875 1.753906 -16.804688 C 1.699219 -17.089844 1.527344 -17.371094 1.527344 -17.65625 C 1.472656 -17.769531 1.414062 -17.882812 1.414062 -17.996094 C 1.414062 -18.109375 1.527344 -18.277344 1.472656 -18.445312 C 1.414062 -19.917969 1.414062 -21.390625 1.640625 -22.859375 C 1.699219 -23.144531 1.8125 -23.371094 1.867188 -23.597656 C 1.925781 -23.824219 1.867188 -24.050781 1.925781 -24.277344 C 1.980469 -24.503906 2.039062 -24.785156 2.09375 -25.011719 L 2.261719 -25.464844 C 2.375 -25.804688 2.433594 -26.144531 2.546875 -26.484375 C 2.660156 -26.765625 2.660156 -27.105469 2.773438 -27.386719 C 3.167969 -28.40625 3.792969 -29.3125 4.355469 -30.21875 C 4.867188 -31.121094 5.601562 -31.914062 6.28125 -32.761719 C 6.449219 -32.933594 6.394531 -33.273438 6.5625 -33.441406 C 6.675781 -33.554688 6.902344 -33.613281 7.015625 -33.726562 C 7.921875 -34.746094 8.996094 -35.648438 10.128906 -36.441406 C 11.261719 -37.234375 12.5625 -37.914062 13.808594 -38.421875 C 15.109375 -38.988281 16.410156 -39.441406 17.769531 -39.722656 C 18.671875 -39.894531 19.523438 -39.894531 20.429688 -39.894531 Z M 22.578125 -39.894531"/></g><g id="e"><path d="M 25.179688 -24.726562 C 25.179688 -23.199219 25.351562 -21.671875 25.351562 -20.089844 C 25.351562 -18.558594 25.292969 -16.976562 25.292969 -15.449219 L 25.292969 -10.808594 C 25.292969 -10.636719 25.179688 -10.46875 25.179688 -10.296875 C 25.238281 -10.128906 25.292969 -10.015625 25.292969 -9.902344 C 25.292969 -9.621094 25.238281 -9.394531 25.179688 -9.109375 C 25.125 -8.828125 25.066406 -8.542969 25.011719 -8.316406 L 24.839844 -7.242188 C 24.785156 -7.128906 24.726562 -6.960938 24.726562 -6.847656 C 24.671875 -6.789062 24.613281 -6.734375 24.613281 -6.675781 C 24.503906 -6.394531 24.445312 -6.113281 24.332031 -5.886719 C 24.164062 -5.546875 23.878906 -5.207031 23.652344 -4.867188 C 23.539062 -4.582031 23.425781 -4.300781 23.199219 -4.074219 C 23.03125 -3.847656 22.859375 -3.621094 22.691406 -3.394531 L 22.011719 -2.714844 C 21.84375 -2.601562 21.671875 -2.433594 21.558594 -2.320312 C 21.332031 -2.09375 21.050781 -1.980469 20.824219 -1.753906 C 20.539062 -1.585938 20.257812 -1.359375 19.917969 -1.1875 C 19.691406 -1.074219 19.464844 -0.90625 19.183594 -0.792969 C 18.84375 -0.621094 18.558594 -0.394531 18.222656 -0.226562 C 17.996094 -0.167969 17.769531 -0.167969 17.597656 -0.113281 C 17.484375 -0.0546875 17.316406 -0.0546875 17.203125 0 C 17.144531 0 17.144531 0.0546875 17.089844 0.113281 C 16.691406 0.167969 16.355469 0.167969 15.957031 0.167969 C 15.789062 0.226562 15.5625 0.28125 15.390625 0.28125 L 15.164062 0.28125 C 15.109375 0.28125 14.996094 0.339844 14.9375 0.339844 L 14.9375 0.28125 C 14.769531 0.226562 14.597656 0.453125 14.429688 0.394531 C 14.203125 0.394531 13.976562 0.394531 13.695312 0.339844 C 13.46875 0.339844 13.183594 0.339844 12.957031 0.28125 C 12.675781 0.226562 12.390625 0.167969 12.054688 0.113281 L 11.601562 0 C 11.261719 -0.113281 10.921875 -0.28125 10.582031 -0.394531 C 10.1875 -0.566406 9.734375 -0.679688 9.335938 -0.90625 C 8.941406 -1.132812 8.65625 -1.472656 8.316406 -1.699219 C 8.035156 -1.867188 7.808594 -2.09375 7.582031 -2.261719 C 7.242188 -2.546875 6.902344 -2.714844 6.621094 -3 C 6.449219 -3.167969 6.335938 -3.507812 6.167969 -3.679688 C 5.941406 -3.960938 5.714844 -4.300781 5.546875 -4.582031 C 5.320312 -4.921875 4.980469 -5.261719 4.808594 -5.660156 C 4.582031 -6.054688 4.527344 -6.5625 4.355469 -7.015625 L 4.128906 -7.753906 C 4.128906 -7.980469 4.019531 -8.148438 3.960938 -8.375 C 3.90625 -8.542969 3.90625 -8.714844 3.847656 -8.941406 C 3.792969 -9.167969 3.847656 -9.449219 3.847656 -9.734375 C 3.847656 -9.902344 3.679688 -10.074219 3.679688 -10.242188 L 3.679688 -10.636719 C 3.679688 -11.996094 3.734375 -13.355469 3.734375 -14.710938 C 3.734375 -16.015625 3.792969 -17.371094 3.792969 -18.730469 C 3.792969 -20.089844 3.734375 -21.445312 3.734375 -22.746094 C 3.734375 -24.105469 3.734375 -25.464844 3.734375 -26.820312 L 3.734375 -30.839844 C 3.734375 -32.199219 3.792969 -33.554688 3.792969 -34.855469 C 3.792969 -36.214844 3.734375 -37.574219 3.734375 -38.929688 C 3.734375 -39.042969 3.792969 -39.15625 3.847656 -39.328125 C 3.90625 -39.441406 3.90625 -39.609375 4.074219 -39.667969 L 4.242188 -39.667969 C 5.320312 -39.667969 6.394531 -39.554688 7.414062 -39.554688 C 8.488281 -39.554688 9.507812 -39.609375 10.582031 -39.609375 C 10.636719 -39.609375 10.695312 -39.554688 10.808594 -39.554688 C 10.921875 -39.554688 11.089844 -39.496094 11.089844 -39.441406 C 11.148438 -39.328125 11.148438 -39.214844 11.148438 -39.101562 C 11.148438 -39.042969 11.089844 -38.988281 11.089844 -38.929688 C 11.089844 -37.574219 11.148438 -36.273438 11.148438 -34.914062 L 11.148438 -30.953125 C 11.148438 -29.652344 11.035156 -28.292969 11.035156 -26.992188 C 11.035156 -25.632812 11.089844 -24.332031 11.089844 -22.972656 C 11.089844 -21.671875 11.035156 -20.316406 11.035156 -19.011719 L 11.035156 -15.050781 C 11.035156 -13.695312 11.035156 -12.390625 11.035156 -11.035156 L 11.035156 -10.75 C 10.976562 -10.75 11.148438 -10.695312 11.148438 -10.636719 C 11.148438 -10.523438 11.035156 -10.410156 11.035156 -10.355469 C 11.089844 -10.1875 11.089844 -9.960938 11.148438 -9.789062 C 11.203125 -9.507812 11.316406 -9.222656 11.429688 -8.941406 C 11.542969 -8.714844 11.714844 -8.542969 11.882812 -8.316406 C 12.109375 -8.035156 12.390625 -7.808594 12.730469 -7.582031 C 13.015625 -7.414062 13.355469 -7.242188 13.695312 -7.1875 C 13.921875 -7.074219 14.148438 -7.015625 14.371094 -7.015625 C 14.769531 -7.015625 15.109375 -7.128906 15.503906 -7.242188 C 15.902344 -7.355469 16.296875 -7.527344 16.636719 -7.808594 C 16.804688 -7.921875 16.917969 -8.035156 17.03125 -8.148438 C 17.144531 -8.261719 17.316406 -8.375 17.371094 -8.488281 C 17.542969 -8.769531 17.65625 -9.054688 17.710938 -9.335938 C 17.824219 -9.5625 17.9375 -9.789062 17.9375 -10.015625 C 17.9375 -10.1875 17.996094 -10.355469 17.996094 -10.523438 C 17.996094 -10.582031 17.996094 -10.636719 17.996094 -10.636719 L 17.996094 -10.808594 C 17.996094 -10.921875 17.824219 -11.035156 17.824219 -11.148438 C 17.824219 -12.503906 17.9375 -13.808594 17.9375 -15.164062 C 17.9375 -16.464844 17.882812 -17.769531 17.882812 -19.125 L 17.882812 -23.085938 C 17.882812 -24.390625 17.996094 -25.691406 17.996094 -27.046875 C 17.996094 -28.351562 17.882812 -29.652344 17.882812 -31.007812 C 17.882812 -32.3125 17.9375 -33.613281 17.9375 -34.96875 C 17.9375 -36.273438 17.996094 -37.574219 17.996094 -38.929688 C 17.996094 -39.042969 17.882812 -39.15625 17.9375 -39.269531 C 17.996094 -39.496094 18.109375 -39.554688 18.335938 -39.554688 C 18.390625 -39.554688 18.445312 -39.667969 18.445312 -39.667969 C 19.523438 -39.667969 20.539062 -39.554688 21.617188 -39.554688 C 22.632812 -39.554688 23.710938 -39.667969 24.726562 -39.667969 C 24.839844 -39.667969 24.898438 -39.667969 25.011719 -39.609375 C 25.125 -39.609375 25.179688 -39.496094 25.179688 -39.382812 L 25.292969 -39.101562 C 25.292969 -39.042969 25.179688 -38.929688 25.179688 -38.875 C 25.179688 -37.347656 25.292969 -35.761719 25.292969 -34.179688 C 25.292969 -32.59375 25.238281 -31.007812 25.238281 -29.480469 C 25.238281 -27.898438 25.179688 -26.3125 25.179688 -24.726562 Z M 25.179688 -24.726562"/></g><g id="f"><path d="M 24.785156 -31.347656 C 24.785156 -30.160156 24.726562 -28.914062 24.726562 -27.726562 C 24.726562 -26.484375 24.726562 -25.292969 24.785156 -24.105469 C 24.785156 -23.824219 24.785156 -23.539062 24.726562 -23.3125 C 24.726562 -23.085938 24.671875 -22.917969 24.671875 -22.691406 C 24.613281 -22.464844 24.671875 -22.238281 24.613281 -22.070312 L 24.277344 -20.824219 C 24.105469 -20.429688 23.9375 -20.03125 23.710938 -19.636719 C 23.539062 -19.183594 23.3125 -18.785156 23.03125 -18.390625 C 22.859375 -18.109375 22.632812 -17.710938 22.410156 -17.429688 C 22.183594 -17.144531 21.898438 -16.976562 21.671875 -16.691406 C 21.445312 -16.523438 21.21875 -16.355469 21.050781 -16.183594 C 20.878906 -16.015625 20.824219 -15.789062 20.652344 -15.617188 L 20.144531 -15.335938 C 19.804688 -15.109375 19.523438 -14.882812 19.238281 -14.710938 C 19.070312 -14.597656 18.898438 -14.597656 18.785156 -14.484375 C 18.617188 -14.429688 18.445312 -14.316406 18.277344 -14.261719 L 18.050781 -14.089844 C 17.9375 -14.035156 17.882812 -13.921875 17.824219 -13.808594 L 17.824219 -13.355469 C 17.824219 -11.996094 17.710938 -10.582031 17.710938 -9.222656 C 17.710938 -7.808594 17.769531 -6.449219 17.769531 -5.035156 L 17.769531 -0.90625 C 17.769531 -0.734375 17.824219 -0.621094 17.824219 -0.453125 C 17.769531 -0.28125 17.597656 -0.113281 17.484375 0 C 17.429688 0.0546875 17.371094 0.0546875 17.316406 0.0546875 C 17.203125 0.113281 17.089844 0.167969 16.917969 0.167969 L 13.863281 0.167969 C 12.789062 0.167969 11.769531 0.113281 10.75 0.113281 C 10.582031 0.113281 10.523438 0.0546875 10.355469 0 C 10.1875 -0.0546875 10.074219 -0.167969 10.015625 -0.339844 C 9.960938 -0.453125 9.902344 -0.566406 9.902344 -0.734375 C 9.902344 -0.90625 9.847656 -1.132812 9.847656 -1.359375 C 9.847656 -2.660156 9.960938 -3.960938 9.960938 -5.320312 C 9.960938 -6.621094 9.847656 -7.921875 9.847656 -9.28125 C 9.847656 -10.582031 9.960938 -11.882812 9.960938 -13.242188 C 9.960938 -13.355469 9.960938 -13.523438 9.902344 -13.636719 C 9.902344 -13.921875 9.789062 -14.148438 9.5625 -14.261719 C 9.394531 -14.316406 9.28125 -14.371094 9.167969 -14.484375 C 8.996094 -14.542969 8.828125 -14.65625 8.65625 -14.710938 C 8.375 -14.882812 8.035156 -14.9375 7.753906 -15.164062 C 7.414062 -15.335938 7.1875 -15.675781 6.902344 -15.902344 C 6.621094 -16.128906 6.394531 -16.410156 6.167969 -16.636719 C 5.828125 -16.976562 5.488281 -17.316406 5.207031 -17.710938 C 4.921875 -18.050781 4.640625 -18.335938 4.414062 -18.730469 C 4.1875 -19.125 4.019531 -19.523438 3.847656 -19.976562 C 3.679688 -20.257812 3.566406 -20.539062 3.453125 -20.824219 C 3.28125 -21.390625 3.113281 -21.957031 3 -22.519531 C 3 -22.804688 3.054688 -23.085938 3 -23.371094 C 3 -23.652344 2.941406 -23.9375 3 -24.21875 C 3 -24.277344 2.828125 -24.332031 2.828125 -24.445312 C 2.828125 -24.445312 2.941406 -24.503906 2.941406 -24.503906 L 2.941406 -24.839844 C 2.941406 -26.371094 2.828125 -27.839844 2.828125 -29.367188 C 2.828125 -30.894531 2.886719 -32.425781 2.886719 -33.894531 C 2.886719 -35.421875 2.941406 -36.949219 2.941406 -38.421875 C 2.941406 -38.535156 3 -38.59375 3 -38.707031 C 3 -38.875 2.941406 -39.101562 3.054688 -39.269531 C 3.167969 -39.441406 3.226562 -39.609375 3.394531 -39.609375 C 3.566406 -39.667969 3.679688 -39.667969 3.847656 -39.667969 C 4.695312 -39.667969 5.546875 -39.722656 6.449219 -39.722656 L 7.015625 -39.667969 C 7.242188 -39.667969 7.414062 -39.722656 7.640625 -39.722656 C 8.429688 -39.722656 9.167969 -39.609375 9.902344 -39.609375 C 10.015625 -39.609375 10.128906 -39.722656 10.1875 -39.722656 C 10.46875 -39.667969 10.695312 -39.441406 10.75 -39.15625 C 10.808594 -38.988281 10.695312 -38.820312 10.636719 -38.648438 C 10.636719 -38.59375 10.75 -38.535156 10.75 -38.480469 C 10.75 -37.007812 10.695312 -35.480469 10.695312 -33.953125 C 10.695312 -32.480469 10.636719 -30.953125 10.636719 -29.425781 C 10.636719 -27.953125 10.695312 -26.425781 10.695312 -24.898438 C 10.695312 -24.671875 10.75 -24.445312 10.75 -24.164062 C 10.808594 -23.824219 10.921875 -23.484375 11.035156 -23.085938 C 11.148438 -22.972656 11.089844 -22.746094 11.203125 -22.578125 C 11.261719 -22.464844 11.488281 -22.410156 11.601562 -22.238281 L 11.714844 -22.125 C 11.882812 -22.011719 11.996094 -21.84375 12.167969 -21.671875 C 12.5625 -21.445312 12.957031 -21.21875 13.410156 -21.164062 C 13.636719 -21.105469 13.863281 -21.277344 14.089844 -21.277344 C 14.429688 -21.277344 14.710938 -21.332031 14.996094 -21.503906 C 15.335938 -21.617188 15.675781 -21.785156 16.015625 -22.070312 C 16.183594 -22.238281 16.355469 -22.410156 16.464844 -22.632812 C 16.636719 -22.917969 16.75 -23.199219 16.804688 -23.484375 C 16.804688 -23.597656 16.804688 -23.765625 16.863281 -23.878906 C 16.863281 -24.050781 16.976562 -24.21875 16.976562 -24.445312 C 16.976562 -25.746094 16.917969 -27.046875 16.917969 -28.351562 C 16.917969 -29.652344 16.863281 -30.953125 16.863281 -32.3125 C 16.863281 -33.328125 16.917969 -34.40625 16.917969 -35.480469 C 16.917969 -36.554688 17.03125 -37.628906 17.03125 -38.648438 C 17.03125 -38.820312 16.917969 -38.929688 16.917969 -39.101562 C 16.976562 -39.328125 17.203125 -39.609375 17.429688 -39.667969 C 17.542969 -39.722656 17.65625 -39.722656 17.769531 -39.722656 C 18.785156 -39.722656 19.804688 -39.609375 20.824219 -39.609375 C 21.898438 -39.609375 22.917969 -39.667969 23.9375 -39.667969 L 24.332031 -39.609375 C 24.503906 -39.496094 24.613281 -39.382812 24.671875 -39.15625 C 24.671875 -39.042969 24.726562 -38.929688 24.726562 -38.761719 C 24.726562 -37.175781 24.785156 -35.535156 24.785156 -33.953125 C 24.785156 -33.101562 24.726562 -32.199219 24.726562 -31.347656 Z M 24.785156 -31.347656"/></g></defs><g fill="#EF6F6C"><use x="7.344" y="56.144" xmlns:xlink="http://www.w3.org/1999/xlink" xlink:href="#a" xlink:type="simple" xlink:actuate="onLoad" xlink:show="embed"/></g><g fill="#EF6F6C"><use x="52.723" y="56.144" xmlns:xlink="http://www.w3.org/1999/xlink" xlink:href="#b" xlink:type="simple" xlink:actuate="onLoad" xlink:show="embed"/></g><g fill="#EF6F6C"><use x="81.58" y="56.144" xmlns:xlink="http://www.w3.org/1999/xlink" xlink:href="#c" xlink:type="simple" xlink:actuate="onLoad" xlink:show="embed"/></g><g fill="#EF6F6C"><use x="114.738" y="56.144" xmlns:xlink="http://www.w3.org/1999/xlink" xlink:href="#d" xlink:type="simple" xlink:actuate="onLoad" xlink:show="embed"/></g><g fill="#EF6F6C"><use x="147.669" y="56.144" xmlns:xlink="http://www.w3.org/1999/xlink" xlink:href="#e" xlink:type="simple" xlink:actuate="onLoad" xlink:show="embed"/></g><g fill="#EF6F6C"><use x="180.77" y="56.144" xmlns:xlink="http://www.w3.org/1999/xlink" xlink:href="#c" xlink:type="simple" xlink:actuate="onLoad" xlink:show="embed"/></g><g fill="#EF6F6C"><use x="213.927" y="56.144" xmlns:xlink="http://www.w3.org/1999/xlink" xlink:href="#f" xlink:type="simple" xlink:actuate="onLoad" xlink:show="embed"/></g></svg>