<?xml version="1.0" encoding="UTF-8" standalone="no"?>
<svg
   xmlns:dc="http://purl.org/dc/elements/1.1/"
   xmlns:cc="http://creativecommons.org/ns#"
   xmlns:rdf="http://www.w3.org/1999/02/22-rdf-syntax-ns#"
   xmlns:svg="http://www.w3.org/2000/svg"
   xmlns="http://www.w3.org/2000/svg"
   xmlns:xlink="http://www.w3.org/1999/xlink"
   width="768"
   viewBox="0 0 768 768"
   height="768"
   version="1.0"
   id="svg3077">
  <metadata
     id="metadata3081">
    <rdf:RDF>
      <cc:Work
         rdf:about="">
        <dc:format>image/svg+xml</dc:format>
        <dc:type
           rdf:resource="http://purl.org/dc/dcmitype/StillImage" />
        <dc:title></dc:title>
      </cc:Work>
    </rdf:RDF>
  </metadata>
  <defs
     id="defs3035">
    <g
       id="b">
      <path
         d="M 45.210938 -23.339844 C 45.210938 -25.5 45.296875 -27.75 45.296875 -29.910156 C 45.296875 -32.070312 45.210938 -34.230469 45.210938 -36.480469 L 45.210938 -42.964844 C 45.210938 -43.308594 45.296875 -43.65625 45.296875 -43.914062 C 45.296875 -44 45.296875 -44.085938 45.210938 -44.171875 C 45.210938 -44.433594 45.039062 -44.605469 45.039062 -44.863281 C 44.953125 -45.210938 45.039062 -45.554688 44.863281 -45.902344 C 44.777344 -46.25 44.605469 -46.507812 44.347656 -46.851562 C 44 -47.371094 43.394531 -47.804688 42.703125 -47.976562 C 42.445312 -48.148438 42.097656 -48.324219 41.839844 -48.324219 C 41.40625 -48.324219 41.0625 -48.148438 40.714844 -48.0625 C 40.195312 -47.890625 39.679688 -47.71875 39.332031 -47.371094 C 38.898438 -47.027344 38.640625 -46.59375 38.382812 -46.160156 L 38.121094 -45.382812 C 38.035156 -45.210938 37.777344 -45.039062 37.691406 -44.777344 C 37.605469 -44.433594 37.691406 -44 37.691406 -43.65625 C 37.605469 -42.964844 37.515625 -42.183594 37.515625 -41.492188 C 37.515625 -39.417969 37.691406 -37.257812 37.691406 -35.097656 C 37.691406 -33.023438 37.605469 -30.859375 37.605469 -28.785156 C 37.605469 -26.625 37.605469 -24.550781 37.605469 -22.390625 L 37.605469 -16.078125 C 37.605469 -13.917969 37.691406 -11.84375 37.691406 -9.683594 C 37.691406 -7.605469 37.515625 -5.445312 37.515625 -3.371094 C 37.515625 -2.851562 37.605469 -2.335938 37.429688 -1.902344 C 37.34375 -1.382812 37.171875 -1.039062 36.824219 -0.691406 C 36.566406 -0.519531 36.394531 -0.347656 36.132812 -0.257812 C 35.789062 -0.171875 35.355469 -0.171875 34.921875 -0.171875 C 34.75 -0.171875 34.578125 -0.171875 34.320312 -0.257812 C 34.058594 -0.257812 33.800781 -0.171875 33.539062 -0.0859375 L 33.367188 -0.0859375 C 32.15625 -0.0859375 30.949219 -0.0859375 29.738281 -0.0859375 L 28.785156 -0.0859375 C 28.699219 -0.0859375 28.613281 -0.171875 28.527344 -0.0859375 L 28.441406 -0.171875 C 28.179688 -0.171875 27.921875 -0.0859375 27.75 -0.171875 C 27.664062 -0.171875 27.664062 -0.0859375 27.664062 -0.0859375 C 27.316406 -0.0859375 26.972656 -0.171875 26.625 -0.347656 C 26.191406 -0.519531 25.933594 -0.949219 25.675781 -1.382812 C 25.585938 -1.640625 25.5 -1.902344 25.5 -2.160156 C 25.414062 -2.421875 25.414062 -2.59375 25.414062 -2.851562 C 25.328125 -3.457031 25.414062 -4.148438 25.414062 -4.753906 C 25.414062 -6.914062 25.5 -8.992188 25.5 -11.152344 C 25.5 -13.226562 25.414062 -15.300781 25.414062 -17.460938 L 25.414062 -23.773438 C 25.414062 -25.847656 25.5 -28.007812 25.5 -30.082031 C 25.5 -32.242188 25.414062 -34.320312 25.414062 -36.394531 C 25.414062 -38.554688 25.585938 -40.628906 25.585938 -42.789062 C 25.585938 -43.136719 25.328125 -43.480469 25.328125 -43.914062 C 25.242188 -44.171875 25.328125 -44.519531 25.328125 -44.863281 L 25.328125 -45.210938 C 25.15625 -45.644531 24.894531 -45.988281 24.722656 -46.335938 C 24.550781 -46.59375 24.550781 -46.941406 24.292969 -47.199219 C 24.203125 -47.285156 24.03125 -47.371094 23.859375 -47.542969 C 23.511719 -47.804688 23.082031 -47.976562 22.5625 -48.148438 C 22.390625 -48.148438 22.128906 -48.324219 21.871094 -48.234375 L 21.523438 -48.148438 C 21.09375 -48.148438 20.832031 -47.976562 20.402344 -47.804688 C 20.054688 -47.632812 19.621094 -47.371094 19.363281 -47.113281 C 19.191406 -46.941406 19.019531 -46.851562 18.929688 -46.679688 C 18.5 -46.074219 18.066406 -45.46875 17.894531 -44.777344 C 17.894531 -44.433594 17.980469 -44.085938 17.980469 -43.828125 L 17.980469 -43.65625 C 17.894531 -43.136719 17.808594 -42.617188 17.808594 -42.097656 C 17.808594 -40.023438 17.894531 -38.035156 17.894531 -35.960938 C 17.894531 -33.886719 17.808594 -31.8125 17.808594 -29.738281 L 17.808594 -23.597656 C 17.808594 -21.523438 17.894531 -19.449219 17.894531 -17.375 C 17.894531 -15.300781 17.894531 -13.3125 17.894531 -11.238281 L 17.894531 -5.015625 C 17.894531 -4.667969 17.894531 -4.234375 17.894531 -3.804688 L 17.894531 -2.421875 C 17.894531 -1.988281 17.636719 -1.640625 17.375 -1.296875 C 17.203125 -0.949219 17.03125 -0.519531 16.683594 -0.347656 C 16.425781 -0.257812 16.164062 -0.171875 15.90625 -0.171875 C 15.734375 -0.0859375 15.558594 -0.171875 15.300781 -0.171875 C 15.214844 -0.0859375 15.042969 -0.171875 14.953125 -0.0859375 L 14.867188 -0.0859375 C 14.4375 -0.171875 14.089844 -0.0859375 13.746094 0 L 13.570312 0 C 12.363281 0 11.152344 -0.257812 9.941406 -0.257812 C 9.59375 -0.257812 9.335938 -0.171875 8.992188 -0.0859375 C 8.902344 -0.0859375 8.816406 -0.171875 8.730469 -0.171875 C 8.644531 -0.171875 8.644531 -0.257812 8.644531 -0.257812 C 8.210938 -0.257812 7.867188 -0.257812 7.519531 -0.347656 C 7.175781 -0.433594 6.828125 -0.433594 6.570312 -0.691406 C 6.308594 -0.863281 6.222656 -1.039062 6.136719 -1.296875 C 5.964844 -1.640625 5.707031 -1.988281 5.707031 -2.421875 C 5.707031 -2.851562 5.792969 -3.285156 5.792969 -3.71875 L 5.792969 -3.976562 C 5.707031 -4.753906 5.617188 -5.53125 5.617188 -6.308594 C 5.617188 -7.089844 5.792969 -7.867188 5.792969 -8.644531 C 5.792969 -10.71875 5.617188 -12.878906 5.617188 -15.042969 C 5.617188 -17.203125 5.617188 -19.363281 5.617188 -21.523438 L 5.617188 -27.921875 C 5.617188 -30.082031 5.707031 -32.242188 5.707031 -34.320312 L 5.707031 -40.800781 C 5.792969 -41.839844 5.53125 -42.964844 5.617188 -44 C 5.617188 -44.347656 5.792969 -44.691406 5.792969 -45.039062 C 5.878906 -45.296875 5.707031 -45.46875 5.707031 -45.730469 C 5.792969 -45.988281 5.878906 -46.25 5.878906 -46.421875 C 5.964844 -47.113281 6.222656 -47.71875 6.398438 -48.410156 C 6.398438 -48.582031 6.484375 -48.753906 6.484375 -48.839844 C 6.484375 -49.015625 6.398438 -49.101562 6.398438 -49.273438 C 6.570312 -49.53125 6.742188 -49.792969 6.914062 -50.136719 C 7.003906 -50.398438 7.003906 -50.65625 7.089844 -50.917969 C 7.175781 -51.003906 7.261719 -51.175781 7.261719 -51.261719 C 7.695312 -52.039062 8.210938 -52.730469 8.730469 -53.507812 C 9.078125 -53.941406 9.421875 -54.375 9.769531 -54.71875 C 10.113281 -55.152344 10.460938 -55.585938 10.890625 -56.015625 C 11.238281 -56.363281 11.496094 -56.707031 11.929688 -56.96875 C 12.1875 -57.226562 12.535156 -57.398438 12.878906 -57.660156 C 13.3125 -57.917969 13.570312 -58.265625 13.917969 -58.523438 C 14.4375 -58.78125 14.953125 -58.957031 15.386719 -59.214844 C 15.734375 -59.300781 15.992188 -59.472656 16.339844 -59.5625 C 16.511719 -59.648438 16.769531 -59.648438 17.03125 -59.734375 C 17.375 -59.820312 17.722656 -59.820312 18.066406 -59.90625 C 18.5 -59.992188 19.019531 -60.253906 19.449219 -60.339844 C 19.796875 -60.339844 20.054688 -60.253906 20.402344 -60.339844 L 20.746094 -60.339844 C 21.351562 -60.425781 22.042969 -60.511719 22.648438 -60.511719 C 23.511719 -60.425781 24.378906 -60.253906 23.945312 -60.339844 C 24.378906 -60.253906 24.894531 -60.253906 25.328125 -60.164062 C 25.675781 -60.078125 25.933594 -59.90625 26.191406 -59.820312 C 26.539062 -59.648438 26.972656 -59.648438 27.316406 -59.5625 C 27.664062 -59.386719 28.09375 -59.300781 28.441406 -59.128906 C 28.871094 -58.957031 29.304688 -58.78125 29.738281 -58.523438 C 30.082031 -58.351562 30.253906 -57.917969 30.6875 -57.746094 C 30.949219 -57.660156 31.292969 -57.660156 31.550781 -57.574219 C 31.8125 -57.574219 32.070312 -57.574219 32.242188 -57.660156 C 32.675781 -57.746094 33.023438 -58.089844 33.367188 -58.265625 C 33.972656 -58.609375 34.492188 -58.867188 35.097656 -59.128906 C 35.441406 -59.214844 35.789062 -59.472656 36.21875 -59.5625 C 36.480469 -59.648438 36.738281 -59.648438 37 -59.734375 C 37.429688 -59.820312 37.863281 -60.078125 38.296875 -60.164062 C 38.726562 -60.339844 39.160156 -60.253906 39.59375 -60.339844 C 41.40625 -60.511719 46.074219 -60.597656 43.222656 -60.425781 C 43.828125 -60.339844 44.433594 -60.164062 45.039062 -60.078125 L 45.988281 -59.90625 C 46.507812 -59.820312 47.027344 -59.5625 47.542969 -59.300781 C 48.148438 -59.042969 48.839844 -58.78125 49.445312 -58.4375 L 50.222656 -58.003906 C 50.570312 -57.746094 50.828125 -57.484375 51.175781 -57.3125 L 51.695312 -56.792969 C 51.78125 -56.792969 51.695312 -56.707031 51.695312 -56.707031 C 52.125 -56.363281 52.558594 -56.101562 52.90625 -55.757812 C 53.421875 -55.152344 53.941406 -54.546875 54.375 -53.941406 C 54.71875 -53.507812 54.890625 -52.992188 55.066406 -52.472656 C 55.324219 -52.039062 55.671875 -51.695312 55.84375 -51.261719 C 56.101562 -50.828125 56.1875 -50.3125 56.363281 -49.792969 C 56.621094 -49.1875 56.792969 -48.667969 56.878906 -48.148438 C 57.054688 -47.632812 57.140625 -47.199219 57.226562 -46.765625 C 57.3125 -46.335938 57.140625 -45.988281 57.140625 -45.644531 C 57.140625 -45.382812 57.398438 -45.125 57.398438 -44.863281 C 57.398438 -44.777344 57.3125 -44.691406 57.3125 -44.605469 L 57.398438 -44.085938 C 57.484375 -44.085938 57.3125 -42.617188 57.3125 -42.703125 C 57.3125 -42.183594 57.484375 -41.753906 57.484375 -41.234375 C 57.484375 -40.800781 57.3125 -40.371094 57.3125 -39.851562 C 57.3125 -37.863281 57.484375 -35.789062 57.484375 -33.800781 L 57.484375 -27.664062 C 57.484375 -25.675781 57.484375 -23.597656 57.484375 -21.609375 L 57.484375 -15.472656 C 57.484375 -13.484375 57.3125 -11.410156 57.3125 -9.421875 C 57.3125 -7.433594 57.398438 -5.359375 57.398438 -3.371094 C 57.398438 -2.851562 57.398438 -2.335938 57.3125 -1.902344 C 57.140625 -1.382812 56.878906 -1.039062 56.535156 -0.691406 C 56.363281 -0.519531 56.101562 -0.433594 55.84375 -0.347656 C 55.496094 -0.171875 55.066406 -0.257812 54.71875 -0.257812 C 54.632812 -0.257812 54.546875 -0.0859375 54.546875 -0.0859375 L 54.375 -0.0859375 C 54.027344 -0.171875 53.683594 -0.0859375 53.335938 0 C 53.25 0 53.164062 -0.171875 53.164062 -0.171875 C 51.953125 -0.171875 50.742188 -0.0859375 49.445312 -0.171875 L 48.582031 -0.171875 C 48.496094 -0.171875 48.410156 -0.0859375 48.324219 -0.0859375 C 48.234375 -0.0859375 48.234375 0 48.234375 0 C 47.976562 -0.0859375 47.71875 -0.171875 47.457031 -0.171875 C 47.457031 -0.171875 47.457031 -0.257812 47.371094 -0.257812 C 47.113281 -0.257812 46.765625 -0.257812 46.421875 -0.347656 C 46.074219 -0.519531 45.816406 -0.863281 45.644531 -1.210938 C 45.46875 -1.554688 45.296875 -1.816406 45.296875 -2.160156 C 45.296875 -2.421875 45.382812 -2.679688 45.296875 -2.851562 C 45.210938 -3.542969 45.296875 -4.234375 45.296875 -4.839844 C 45.296875 -6.914062 45.296875 -8.992188 45.296875 -11.066406 L 45.296875 -17.203125 C 45.296875 -19.277344 45.296875 -21.265625 45.296875 -23.339844 Z M 45.210938 -23.339844"
         id="path3014" />
    </g>
    <g
       id="c">
      <path
         d="M 2.160156 -31.378906 C 2.160156 -31.984375 2.246094 -32.589844 2.421875 -33.195312 C 1.988281 -33.367188 3.027344 -37.171875 3.199219 -37.777344 C 3.804688 -40.542969 4.925781 -43.222656 6.222656 -45.644531 C 6.828125 -46.59375 7.433594 -47.632812 8.125 -48.496094 C 9.59375 -50.484375 11.410156 -52.472656 13.3125 -54.027344 C 13.570312 -54.289062 13.832031 -54.460938 14.089844 -54.632812 C 14.175781 -54.71875 14.351562 -54.804688 14.4375 -54.980469 L 17.117188 -56.792969 C 17.289062 -56.878906 17.636719 -56.878906 17.808594 -57.054688 C 18.066406 -57.140625 18.328125 -57.3125 18.585938 -57.398438 C 18.671875 -57.484375 18.671875 -57.660156 18.757812 -57.660156 C 18.757812 -57.746094 18.84375 -57.660156 18.929688 -57.660156 C 19.105469 -57.832031 19.363281 -58.003906 19.621094 -58.089844 C 19.796875 -58.265625 20.054688 -58.265625 20.226562 -58.4375 C 20.402344 -58.4375 20.488281 -58.609375 20.574219 -58.609375 C 21.007812 -58.78125 21.4375 -58.867188 21.785156 -59.042969 C 22.128906 -59.128906 22.5625 -59.214844 22.90625 -59.386719 C 23.082031 -59.386719 23.167969 -59.648438 23.339844 -59.648438 C 23.425781 -59.734375 23.597656 -59.734375 23.773438 -59.734375 C 23.859375 -59.820312 24.03125 -59.734375 24.117188 -59.734375 C 24.292969 -59.820312 24.464844 -59.820312 24.636719 -59.90625 C 24.808594 -59.90625 24.984375 -60.078125 25.15625 -60.164062 C 25.328125 -60.253906 25.5 -60.253906 25.675781 -60.253906 L 27.402344 -60.683594 C 27.75 -60.683594 28.179688 -60.683594 28.613281 -60.769531 C 28.871094 -60.769531 29.132812 -60.945312 29.390625 -60.945312 C 29.824219 -61.03125 30.167969 -60.945312 30.601562 -61.03125 C 31.550781 -61.117188 32.503906 -60.855469 33.023438 -59.992188 C 33.195312 -59.734375 33.195312 -59.386719 33.28125 -59.128906 C 33.453125 -57.660156 33.539062 -56.1875 33.539062 -54.71875 C 33.539062 -53.855469 33.539062 -52.992188 33.453125 -52.210938 C 33.367188 -50.570312 33.023438 -49.015625 31.121094 -48.753906 L 30.773438 -48.753906 C 30.601562 -48.667969 30.429688 -48.753906 30.253906 -48.753906 L 29.046875 -48.496094 C 24.03125 -47.371094 19.363281 -44 16.855469 -39.503906 C 16.683594 -39.160156 16.683594 -38.8125 16.511719 -38.46875 L 16.164062 -37.863281 C 16.164062 -37.691406 16.339844 -37.605469 16.339844 -37.515625 C 16.339844 -37.34375 16.25 -37.171875 16.425781 -37 C 16.511719 -36.824219 16.683594 -36.652344 16.855469 -36.566406 C 17.203125 -36.480469 17.460938 -36.566406 17.808594 -36.566406 C 18.152344 -36.566406 18.585938 -36.480469 18.929688 -36.480469 C 19.019531 -36.480469 19.019531 -36.480469 19.019531 -36.480469 L 19.277344 -36.480469 C 19.363281 -36.566406 19.449219 -36.394531 19.535156 -36.394531 C 21.179688 -36.394531 22.820312 -36.394531 24.464844 -36.480469 C 25.328125 -36.480469 26.105469 -36.480469 26.882812 -36.566406 C 27.574219 -36.566406 28.265625 -36.394531 28.960938 -36.394531 L 29.132812 -36.394531 C 29.738281 -36.394531 30.601562 -36.394531 31.121094 -36.21875 C 31.207031 -36.132812 31.207031 -36.132812 31.292969 -36.132812 C 31.8125 -35.789062 32.15625 -35.269531 32.242188 -34.664062 C 32.332031 -34.320312 32.332031 -33.886719 32.332031 -33.539062 C 32.332031 -32.933594 32.332031 -32.242188 32.332031 -31.640625 L 32.332031 -28.441406 C 32.332031 -28.355469 32.242188 -28.265625 32.242188 -28.265625 C 32.242188 -28.179688 32.417969 -28.09375 32.417969 -27.921875 C 32.417969 -26.972656 32.417969 -25.414062 31.550781 -24.722656 C 30.859375 -24.203125 30.167969 -24.117188 29.390625 -24.117188 C 28.871094 -24.117188 28.441406 -24.117188 27.921875 -24.203125 C 26.367188 -24.292969 24.636719 -24.117188 23.082031 -24.117188 C 21.351562 -24.117188 19.710938 -24.203125 18.066406 -24.203125 C 17.722656 -24.203125 17.289062 -24.203125 16.941406 -24.03125 C 16.683594 -23.945312 16.511719 -23.773438 16.425781 -23.597656 C 16.25 -23.425781 16.164062 -23.253906 16.164062 -23.082031 C 16.164062 -22.90625 16.078125 -22.734375 16.164062 -22.5625 C 16.164062 -22.304688 16.339844 -22.128906 16.511719 -21.871094 C 16.511719 -21.785156 16.511719 -21.699219 16.511719 -21.609375 L 17.117188 -20.574219 C 17.375 -20.054688 17.894531 -19.621094 18.238281 -19.105469 C 18.84375 -18.238281 19.535156 -17.636719 20.316406 -16.855469 C 20.660156 -16.597656 20.832031 -16.164062 21.179688 -15.820312 C 22.042969 -15.128906 23.339844 -14.523438 24.378906 -13.917969 C 25.847656 -13.140625 27.488281 -12.449219 29.132812 -12.101562 C 29.304688 -12.015625 29.5625 -12.015625 29.824219 -12.015625 C 30.167969 -11.929688 30.515625 -11.929688 30.773438 -11.84375 C 31.207031 -11.757812 31.550781 -11.671875 31.984375 -11.496094 C 32.242188 -11.410156 32.417969 -11.238281 32.675781 -10.976562 C 32.847656 -10.804688 33.023438 -10.71875 33.109375 -10.546875 C 33.367188 -10.113281 33.367188 -9.855469 33.367188 -9.59375 C 33.367188 -9.421875 33.367188 -9.25 33.367188 -9.078125 L 33.367188 -8.730469 C 33.453125 -8.039062 33.453125 -7.347656 33.453125 -6.65625 C 33.453125 -5.878906 33.453125 -5.1875 33.367188 -4.410156 C 33.367188 -3.71875 33.367188 -3.027344 33.28125 -2.335938 C 33.28125 -1.816406 33.367188 -1.039062 33.195312 -0.605469 C 33.195312 -0.433594 33.023438 -0.257812 32.933594 -0.0859375 L 32.675781 0.0859375 C 32.589844 0.171875 32.332031 0.257812 32.242188 0.257812 C 31.726562 0.519531 31.292969 0.605469 30.859375 0.605469 C 30.515625 0.605469 30.167969 0.605469 29.910156 0.433594 C 29.5625 0.347656 29.21875 0.433594 28.871094 0.433594 C 28.355469 0.347656 27.835938 0.257812 27.402344 0.0859375 C 27.316406 0.0859375 27.144531 0.171875 27.058594 0.0859375 C 26.710938 0.0859375 26.453125 -0.171875 26.105469 -0.257812 C 25.933594 -0.347656 25.675781 -0.171875 25.414062 -0.257812 C 24.984375 -0.347656 24.464844 -0.519531 24.03125 -0.691406 C 23.167969 -1.039062 22.304688 -1.46875 21.4375 -1.730469 C 20.660156 -1.988281 19.882812 -2.160156 19.191406 -2.507812 C 19.019531 -2.59375 18.84375 -2.765625 19.019531 -2.9375 C 18.5 -2.507812 15.90625 -4.667969 15.558594 -4.925781 C 15.214844 -5.101562 14.867188 -5.1875 14.523438 -5.445312 C 14.261719 -5.707031 13.917969 -5.964844 13.570312 -6.222656 C 12.878906 -6.742188 12.273438 -7.519531 11.582031 -8.125 C 10.375 -9.164062 9.164062 -10.632812 8.125 -11.929688 L 7.433594 -12.878906 C 7.089844 -13.398438 6.914062 -14.003906 6.570312 -14.609375 C 6.398438 -14.867188 6.222656 -15.042969 6.050781 -15.300781 L 5.964844 -15.648438 C 5.445312 -16.511719 4.839844 -17.460938 4.496094 -18.328125 C 4.148438 -19.449219 3.628906 -20.488281 3.371094 -21.523438 L 3.113281 -22.390625 C 3.027344 -22.648438 3.113281 -22.90625 3.027344 -23.167969 C 2.9375 -23.511719 2.9375 -23.773438 2.9375 -24.117188 C 2.851562 -24.464844 2.59375 -24.722656 2.507812 -25.070312 C 2.421875 -25.585938 2.421875 -26.105469 2.335938 -26.625 C 2.246094 -27.316406 2.246094 -27.921875 2.246094 -28.613281 C 2.160156 -29.476562 2.160156 -30.429688 2.160156 -31.378906 Z M 2.160156 -31.378906"
         id="path3017" />
    </g>
    <g
       id="d">
      <path
         d="M 4.410156 -30.429688 C 4.410156 -32.242188 4.320312 -34.144531 4.320312 -35.960938 C 4.320312 -37.863281 4.496094 -39.679688 4.496094 -41.578125 C 4.496094 -43.394531 4.320312 -45.296875 4.320312 -47.113281 L 4.320312 -52.730469 C 4.320312 -54.546875 4.410156 -56.449219 4.410156 -58.265625 C 4.410156 -58.695312 4.410156 -59.042969 4.496094 -59.386719 C 4.582031 -59.734375 4.839844 -59.992188 5.101562 -60.164062 C 5.359375 -60.339844 5.617188 -60.253906 5.964844 -60.339844 C 6.65625 -60.425781 7.347656 -60.511719 8.039062 -60.511719 C 10.285156 -60.511719 12.535156 -60.253906 14.78125 -60.253906 C 18.5 -60.339844 21.179688 -60.425781 21.523438 -60.339844 C 21.957031 -60.339844 22.390625 -60.425781 22.734375 -60.425781 L 23.425781 -60.425781 C 23.6875 -60.339844 23.945312 -60.253906 24.117188 -60.253906 C 24.894531 -60.164062 25.585938 -59.820312 26.277344 -59.648438 C 26.972656 -59.472656 27.664062 -59.300781 28.355469 -59.042969 L 29.5625 -58.523438 C 29.824219 -58.4375 30.167969 -58.175781 30.429688 -58.003906 C 30.773438 -57.917969 31.035156 -57.746094 31.292969 -57.660156 C 31.378906 -57.574219 31.550781 -57.660156 31.640625 -57.660156 L 33.539062 -56.363281 C 33.800781 -56.101562 34.144531 -55.757812 34.492188 -55.496094 C 34.75 -55.238281 35.097656 -54.890625 35.441406 -54.632812 C 35.789062 -54.289062 35.960938 -53.855469 36.308594 -53.507812 C 36.652344 -53.078125 37.171875 -52.730469 37.515625 -52.210938 C 37.777344 -51.867188 38.035156 -51.433594 38.296875 -51.003906 C 38.640625 -50.570312 38.898438 -50.136719 39.160156 -49.707031 L 39.246094 -49.359375 C 39.59375 -48.753906 39.765625 -48.0625 40.023438 -47.371094 C 40.285156 -46.765625 40.371094 -46.160156 40.542969 -45.554688 C 40.714844 -45.125 40.886719 -44.605469 40.976562 -44.171875 C 41.148438 -43.65625 41.0625 -43.136719 41.148438 -42.617188 C 41.148438 -42.273438 41.40625 -41.925781 41.40625 -41.492188 C 41.40625 -41.492188 41.320312 -41.492188 41.320312 -41.492188 L 41.320312 -39.765625 C 41.320312 -39.417969 41.234375 -39.074219 41.234375 -38.726562 C 41.234375 -38.46875 41.234375 -38.296875 41.234375 -38.121094 L 40.976562 -36.394531 C 40.886719 -35.960938 40.886719 -35.527344 40.800781 -35.097656 C 40.628906 -34.492188 40.285156 -33.972656 40.023438 -33.367188 C 39.851562 -32.933594 39.765625 -32.417969 39.59375 -31.984375 C 39.332031 -31.640625 39.160156 -31.207031 38.988281 -30.859375 C 38.8125 -30.515625 38.726562 -30.082031 38.554688 -29.738281 C 38.296875 -29.304688 37.949219 -29.046875 37.691406 -28.699219 C 37.34375 -28.179688 37 -27.664062 36.652344 -27.230469 C 36.566406 -27.058594 36.566406 -26.972656 36.566406 -26.796875 C 36.480469 -26.539062 36.394531 -26.277344 36.566406 -26.019531 C 36.738281 -25.761719 36.910156 -25.5 37.171875 -25.242188 C 37.515625 -24.636719 38.035156 -24.117188 38.382812 -23.511719 C 38.640625 -22.996094 38.898438 -22.390625 39.074219 -21.871094 C 39.246094 -21.523438 39.503906 -21.265625 39.59375 -20.917969 C 39.851562 -20.316406 39.851562 -19.710938 40.023438 -19.019531 C 40.109375 -18.5 40.457031 -17.894531 40.457031 -17.375 C 40.542969 -17.03125 40.371094 -16.597656 40.371094 -16.25 L 40.371094 -14.695312 C 40.371094 -12.535156 40.457031 -10.375 40.457031 -8.296875 C 40.457031 -6.136719 40.457031 -3.976562 40.457031 -1.902344 L 40.457031 -1.210938 C 40.371094 -0.949219 40.285156 -0.691406 40.109375 -0.519531 L 39.851562 -0.257812 C 39.59375 -0.0859375 39.246094 0 38.988281 0 C 38.898438 0 38.898438 0 38.8125 0 L 29.996094 0 C 29.738281 0 29.476562 -0.0859375 29.21875 -0.171875 C 28.785156 -0.347656 28.355469 -0.605469 28.265625 -1.125 C 28.265625 -1.296875 28.441406 -1.554688 28.441406 -1.730469 C 28.441406 -3.71875 28.355469 -5.707031 28.355469 -7.695312 C 28.355469 -9.683594 28.441406 -11.671875 28.441406 -13.660156 C 28.355469 -14.175781 28.179688 -14.78125 28.179688 -15.300781 C 28.09375 -16.078125 28.007812 -16.769531 27.75 -17.375 C 27.488281 -17.808594 27.316406 -18.328125 26.972656 -18.671875 C 26.539062 -19.105469 26.019531 -19.363281 25.414062 -19.621094 C 25.15625 -19.796875 24.808594 -19.796875 24.550781 -19.882812 C 24.03125 -19.96875 23.511719 -20.226562 22.996094 -20.226562 L 22.90625 -20.226562 C 22.214844 -20.226562 21.523438 -20.140625 20.746094 -20.140625 C 20.054688 -20.140625 19.363281 -20.054688 18.585938 -20.054688 L 17.460938 -20.054688 C 17.289062 -19.96875 16.941406 -20.054688 16.769531 -19.882812 C 16.683594 -19.796875 16.597656 -19.710938 16.597656 -19.621094 C 16.511719 -19.449219 16.511719 -19.191406 16.511719 -18.929688 C 16.425781 -17.117188 16.597656 -15.214844 16.597656 -13.398438 C 16.597656 -11.582031 16.511719 -9.683594 16.511719 -7.867188 C 16.511719 -6.050781 16.597656 -4.148438 16.597656 -2.335938 C 16.597656 -2.074219 16.425781 -1.902344 16.339844 -1.640625 C 16.339844 -1.296875 16.25 -0.949219 15.90625 -0.777344 C 15.820312 -0.691406 15.648438 -0.605469 15.386719 -0.519531 C 15.214844 -0.519531 14.953125 -0.433594 14.695312 -0.433594 C 11.84375 -0.433594 9.078125 -0.519531 6.308594 -0.519531 C 6.050781 -0.519531 5.707031 -0.347656 5.53125 -0.433594 C 5.015625 -0.519531 4.753906 -0.949219 4.582031 -1.46875 L 4.320312 -2.246094 C 4.320312 -2.421875 4.496094 -2.679688 4.496094 -2.851562 L 4.496094 -9.769531 C 4.496094 -12.101562 4.496094 -14.351562 4.496094 -16.683594 L 4.496094 -23.511719 C 4.496094 -25.847656 4.410156 -28.09375 4.410156 -30.429688 Z M 16.511719 -40.195312 C 16.511719 -38.207031 16.597656 -36.308594 16.597656 -34.320312 C 16.597656 -34.058594 16.511719 -33.800781 16.511719 -33.453125 L 16.511719 -33.28125 C 16.511719 -33.109375 16.683594 -33.023438 16.683594 -32.933594 C 16.769531 -32.761719 16.855469 -32.675781 17.03125 -32.503906 C 17.203125 -32.417969 17.375 -32.242188 17.636719 -32.242188 L 19.710938 -32.242188 C 20.402344 -32.332031 21.09375 -32.242188 21.785156 -32.332031 C 22.128906 -32.332031 22.5625 -32.242188 22.90625 -32.332031 C 23.773438 -32.503906 24.464844 -33.023438 25.242188 -33.453125 C 25.675781 -33.714844 26.191406 -33.800781 26.539062 -34.144531 C 26.796875 -34.40625 27.058594 -34.664062 27.316406 -35.011719 C 27.664062 -35.355469 27.921875 -35.960938 28.179688 -36.394531 C 28.441406 -36.824219 28.527344 -37.257812 28.699219 -37.691406 C 28.871094 -38.121094 29.046875 -38.554688 29.046875 -39.074219 C 29.132812 -39.417969 29.304688 -39.679688 29.304688 -40.023438 C 29.390625 -40.457031 29.21875 -40.800781 29.21875 -41.234375 C 29.132812 -41.839844 28.960938 -42.359375 28.785156 -42.964844 C 28.613281 -43.480469 28.355469 -44.085938 28.007812 -44.605469 L 27.144531 -45.644531 C 26.882812 -45.988281 26.367188 -46.160156 26.019531 -46.421875 C 25.585938 -46.679688 25.242188 -46.941406 24.808594 -47.199219 L 23.597656 -47.71875 C 23.253906 -47.804688 22.996094 -47.890625 22.648438 -47.890625 C 22.476562 -47.976562 22.214844 -48.148438 22.042969 -48.148438 C 21.785156 -48.148438 21.4375 -48.0625 21.179688 -48.0625 L 17.808594 -48.0625 C 17.636719 -48.0625 17.460938 -47.976562 17.289062 -47.976562 C 16.941406 -47.976562 16.769531 -47.632812 16.683594 -47.371094 C 16.683594 -46.941406 16.511719 -46.59375 16.511719 -46.160156 Z M 16.511719 -40.195312"
         id="path3020" />
    </g>
    <g
       id="e">
      <path
         d="M 34.492188 -60.945312 C 35.183594 -60.945312 35.960938 -61.117188 36.652344 -61.117188 C 37.085938 -61.117188 37.515625 -60.945312 37.949219 -60.769531 C 38.207031 -60.683594 38.640625 -60.683594 38.8125 -60.425781 C 38.898438 -60.339844 38.898438 -60.164062 38.988281 -60.078125 C 39.160156 -59.820312 39.246094 -59.5625 39.332031 -59.300781 C 39.59375 -58.265625 39.679688 -57.140625 39.679688 -55.929688 C 39.679688 -54.804688 39.59375 -53.597656 39.59375 -52.558594 L 39.59375 -52.125 C 39.59375 -52.039062 39.679688 -51.953125 39.679688 -51.867188 C 39.679688 -51.695312 39.679688 -51.519531 39.679688 -51.347656 L 39.503906 -51.261719 C 39.503906 -50.222656 39.160156 -49.101562 38.207031 -48.667969 C 37.863281 -48.496094 37.515625 -48.582031 37.257812 -48.496094 C 37 -48.496094 36.738281 -48.410156 36.480469 -48.410156 C 34.144531 -48.148438 31.898438 -48.0625 29.652344 -47.71875 C 27.402344 -47.371094 25.242188 -46.941406 23.167969 -45.46875 C 21.09375 -44.085938 19.191406 -42.359375 17.808594 -40.285156 C 17.722656 -40.023438 17.460938 -39.851562 17.289062 -39.59375 L 16.683594 -38.46875 C 16.339844 -37.777344 16.25 -37.085938 15.992188 -36.394531 C 15.734375 -35.703125 15.734375 -35.011719 15.558594 -34.40625 C 15.386719 -33.800781 14.953125 -33.195312 14.867188 -32.589844 C 14.78125 -31.898438 14.78125 -31.292969 14.78125 -30.601562 C 14.78125 -29.390625 14.867188 -28.265625 15.042969 -27.058594 C 15.128906 -26.972656 15.386719 -26.972656 15.472656 -26.882812 C 15.558594 -26.277344 15.648438 -25.761719 15.820312 -25.242188 C 16.425781 -23.597656 16.855469 -21.957031 17.808594 -20.574219 C 18.671875 -19.191406 19.710938 -17.722656 21.007812 -16.597656 C 21.351562 -16.339844 21.785156 -16.25 22.042969 -16.078125 C 24.464844 -14.175781 27.316406 -13.054688 30.34375 -12.621094 C 30.773438 -12.535156 31.207031 -12.1875 31.640625 -12.1875 C 32.503906 -12.1875 33.886719 -12.363281 35.183594 -12.363281 C 36.824219 -12.363281 38.46875 -12.101562 39.074219 -10.976562 C 39.246094 -10.804688 39.503906 -10.71875 39.503906 -10.460938 C 39.503906 -10.375 39.59375 -10.285156 39.59375 -10.113281 C 39.59375 -9.941406 39.417969 -9.683594 39.417969 -9.507812 C 39.417969 -9.335938 39.59375 -9.25 39.59375 -9.078125 C 39.59375 -9.078125 39.679688 -8.992188 39.679688 -8.902344 C 39.59375 -8.730469 39.503906 -8.558594 39.59375 -8.386719 C 39.59375 -8.296875 39.765625 -8.296875 39.765625 -8.210938 C 39.765625 -6.65625 39.59375 -5.101562 39.59375 -3.542969 C 39.59375 -3.457031 39.679688 -3.371094 39.679688 -3.371094 C 39.59375 -3.199219 39.503906 -3.027344 39.503906 -2.9375 C 39.59375 -2.851562 39.503906 -2.765625 39.417969 -2.679688 C 39.417969 -2.59375 39.679688 -2.421875 39.679688 -2.246094 C 39.679688 -1.816406 39.417969 -1.46875 39.246094 -1.039062 C 38.726562 0.347656 37 0.605469 35.441406 0.605469 C 34.578125 0.605469 33.714844 0.519531 33.023438 0.519531 C 32.847656 0.519531 32.761719 0.433594 32.589844 0.433594 L 32.503906 0.433594 C 32.417969 0.433594 32.332031 0.605469 32.242188 0.605469 C 30.34375 0.519531 28.527344 0.257812 26.710938 -0.0859375 C 24.984375 -0.519531 23.167969 -1.125 21.523438 -1.816406 C 19.796875 -2.507812 18.152344 -3.285156 16.511719 -4.234375 L 16.511719 -4.410156 C 14.609375 -5.617188 12.878906 -7.003906 11.324219 -8.472656 C 9.769531 -10.027344 8.296875 -11.671875 7.089844 -13.570312 C 5.878906 -15.386719 5.015625 -17.375 4.234375 -19.449219 C 4.0625 -19.796875 4.0625 -20.226562 3.890625 -20.574219 C 3.542969 -21.523438 3.027344 -22.476562 2.851562 -23.511719 C 2.679688 -24.203125 2.765625 -24.894531 2.679688 -25.675781 C 2.59375 -26.105469 2.335938 -26.539062 2.335938 -26.972656 C 2.246094 -27.144531 2.160156 -27.316406 2.160156 -27.488281 C 2.160156 -27.664062 2.335938 -27.921875 2.246094 -28.179688 C 2.160156 -30.429688 2.160156 -32.675781 2.507812 -34.921875 C 2.59375 -35.355469 2.765625 -35.703125 2.851562 -36.046875 C 2.9375 -36.394531 2.851562 -36.738281 2.9375 -37.085938 C 3.027344 -37.429688 3.113281 -37.863281 3.199219 -38.207031 L 3.457031 -38.898438 C 3.628906 -39.417969 3.71875 -39.9375 3.890625 -40.457031 C 4.0625 -40.886719 4.0625 -41.40625 4.234375 -41.839844 C 4.839844 -43.394531 5.792969 -44.777344 6.65625 -46.160156 C 7.433594 -47.542969 8.558594 -48.753906 9.59375 -50.050781 C 9.855469 -50.3125 9.769531 -50.828125 10.027344 -51.089844 C 10.199219 -51.261719 10.546875 -51.347656 10.71875 -51.519531 C 12.101562 -53.078125 13.746094 -54.460938 15.472656 -55.671875 C 17.203125 -56.878906 19.191406 -57.917969 21.09375 -58.695312 C 23.082031 -59.5625 25.070312 -60.253906 27.144531 -60.683594 C 28.527344 -60.945312 29.824219 -60.945312 31.207031 -60.945312 Z M 34.492188 -60.945312"
         id="path3023" />
    </g>
    <g
       id="f">
      <path
         d="M 38.46875 -37.777344 C 38.46875 -35.441406 38.726562 -33.109375 38.726562 -30.6875 C 38.726562 -28.355469 38.640625 -25.933594 38.640625 -23.597656 L 38.640625 -16.511719 C 38.640625 -16.25 38.46875 -15.992188 38.46875 -15.734375 C 38.554688 -15.472656 38.640625 -15.300781 38.640625 -15.128906 C 38.640625 -14.695312 38.554688 -14.351562 38.46875 -13.917969 C 38.382812 -13.484375 38.296875 -13.054688 38.207031 -12.707031 L 37.949219 -11.066406 C 37.863281 -10.890625 37.777344 -10.632812 37.777344 -10.460938 C 37.691406 -10.375 37.605469 -10.285156 37.605469 -10.199219 C 37.429688 -9.769531 37.34375 -9.335938 37.171875 -8.992188 C 36.910156 -8.472656 36.480469 -7.953125 36.132812 -7.433594 C 35.960938 -7.003906 35.789062 -6.570312 35.441406 -6.222656 C 35.183594 -5.878906 34.921875 -5.53125 34.664062 -5.1875 L 33.628906 -4.148438 C 33.367188 -3.976562 33.109375 -3.71875 32.933594 -3.542969 C 32.589844 -3.199219 32.15625 -3.027344 31.8125 -2.679688 C 31.378906 -2.421875 30.949219 -2.074219 30.429688 -1.816406 C 30.082031 -1.640625 29.738281 -1.382812 29.304688 -1.210938 C 28.785156 -0.949219 28.355469 -0.605469 27.835938 -0.347656 C 27.488281 -0.257812 27.144531 -0.257812 26.882812 -0.171875 C 26.710938 -0.0859375 26.453125 -0.0859375 26.277344 0 C 26.191406 0 26.191406 0.0859375 26.105469 0.171875 C 25.5 0.257812 24.984375 0.257812 24.378906 0.257812 C 24.117188 0.347656 23.773438 0.433594 23.511719 0.433594 L 23.167969 0.433594 C 23.082031 0.433594 22.90625 0.519531 22.820312 0.519531 L 22.820312 0.433594 C 22.5625 0.347656 22.304688 0.691406 22.042969 0.605469 C 21.699219 0.605469 21.351562 0.605469 20.917969 0.519531 C 20.574219 0.519531 20.140625 0.519531 19.796875 0.433594 C 19.363281 0.347656 18.929688 0.257812 18.414062 0.171875 L 17.722656 0 C 17.203125 -0.171875 16.683594 -0.433594 16.164062 -0.605469 C 15.558594 -0.863281 14.867188 -1.039062 14.261719 -1.382812 C 13.660156 -1.730469 13.226562 -2.246094 12.707031 -2.59375 C 12.273438 -2.851562 11.929688 -3.199219 11.582031 -3.457031 C 11.066406 -3.890625 10.546875 -4.148438 10.113281 -4.582031 C 9.855469 -4.839844 9.683594 -5.359375 9.421875 -5.617188 C 9.078125 -6.050781 8.730469 -6.570312 8.472656 -7.003906 C 8.125 -7.519531 7.605469 -8.039062 7.347656 -8.644531 C 7.003906 -9.25 6.914062 -10.027344 6.65625 -10.71875 L 6.308594 -11.84375 C 6.308594 -12.1875 6.136719 -12.449219 6.050781 -12.792969 C 5.964844 -13.054688 5.964844 -13.3125 5.878906 -13.660156 C 5.792969 -14.003906 5.878906 -14.4375 5.878906 -14.867188 C 5.878906 -15.128906 5.617188 -15.386719 5.617188 -15.648438 L 5.617188 -16.25 C 5.617188 -18.328125 5.707031 -20.402344 5.707031 -22.476562 C 5.707031 -24.464844 5.792969 -26.539062 5.792969 -28.613281 C 5.792969 -30.6875 5.707031 -32.761719 5.707031 -34.75 C 5.707031 -36.824219 5.707031 -38.898438 5.707031 -40.976562 L 5.707031 -47.113281 C 5.707031 -49.1875 5.792969 -51.261719 5.792969 -53.25 C 5.792969 -55.324219 5.707031 -57.398438 5.707031 -59.472656 C 5.707031 -59.648438 5.792969 -59.820312 5.878906 -60.078125 C 5.964844 -60.253906 5.964844 -60.511719 6.222656 -60.597656 L 6.484375 -60.597656 C 8.125 -60.597656 9.769531 -60.425781 11.324219 -60.425781 C 12.964844 -60.425781 14.523438 -60.511719 16.164062 -60.511719 C 16.25 -60.511719 16.339844 -60.425781 16.511719 -60.425781 C 16.683594 -60.425781 16.941406 -60.339844 16.941406 -60.253906 C 17.03125 -60.078125 17.03125 -59.90625 17.03125 -59.734375 C 17.03125 -59.648438 16.941406 -59.5625 16.941406 -59.472656 C 16.941406 -57.398438 17.03125 -55.410156 17.03125 -53.335938 L 17.03125 -47.285156 C 17.03125 -45.296875 16.855469 -43.222656 16.855469 -41.234375 C 16.855469 -39.160156 16.941406 -37.171875 16.941406 -35.097656 C 16.941406 -33.109375 16.855469 -31.035156 16.855469 -29.046875 L 16.855469 -22.996094 C 16.855469 -20.917969 16.855469 -18.929688 16.855469 -16.855469 L 16.855469 -16.425781 C 16.769531 -16.425781 17.03125 -16.339844 17.03125 -16.25 C 17.03125 -16.078125 16.855469 -15.90625 16.855469 -15.820312 C 16.941406 -15.558594 16.941406 -15.214844 17.03125 -14.953125 C 17.117188 -14.523438 17.289062 -14.089844 17.460938 -13.660156 C 17.636719 -13.3125 17.894531 -13.054688 18.152344 -12.707031 C 18.5 -12.273438 18.929688 -11.929688 19.449219 -11.582031 C 19.882812 -11.324219 20.402344 -11.066406 20.917969 -10.976562 C 21.265625 -10.804688 21.609375 -10.71875 21.957031 -10.71875 C 22.5625 -10.71875 23.082031 -10.890625 23.6875 -11.066406 C 24.292969 -11.238281 24.894531 -11.496094 25.414062 -11.929688 C 25.675781 -12.101562 25.847656 -12.273438 26.019531 -12.449219 C 26.191406 -12.621094 26.453125 -12.792969 26.539062 -12.964844 C 26.796875 -13.398438 26.972656 -13.832031 27.058594 -14.261719 C 27.230469 -14.609375 27.402344 -14.953125 27.402344 -15.300781 C 27.402344 -15.558594 27.488281 -15.820312 27.488281 -16.078125 C 27.488281 -16.164062 27.488281 -16.25 27.488281 -16.25 L 27.488281 -16.511719 C 27.488281 -16.683594 27.230469 -16.855469 27.230469 -17.03125 C 27.230469 -19.105469 27.402344 -21.09375 27.402344 -23.167969 C 27.402344 -25.15625 27.316406 -27.144531 27.316406 -29.21875 L 27.316406 -35.269531 C 27.316406 -37.257812 27.488281 -39.246094 27.488281 -41.320312 C 27.488281 -43.308594 27.316406 -45.296875 27.316406 -47.371094 C 27.316406 -49.359375 27.402344 -51.347656 27.402344 -53.421875 C 27.402344 -55.410156 27.488281 -57.398438 27.488281 -59.472656 C 27.488281 -59.648438 27.316406 -59.820312 27.402344 -59.992188 C 27.488281 -60.339844 27.664062 -60.425781 28.007812 -60.425781 C 28.09375 -60.425781 28.179688 -60.597656 28.179688 -60.597656 C 29.824219 -60.597656 31.378906 -60.425781 33.023438 -60.425781 C 34.578125 -60.425781 36.21875 -60.597656 37.777344 -60.597656 C 37.949219 -60.597656 38.035156 -60.597656 38.207031 -60.511719 C 38.382812 -60.511719 38.46875 -60.339844 38.46875 -60.164062 L 38.640625 -59.734375 C 38.640625 -59.648438 38.46875 -59.472656 38.46875 -59.386719 C 38.46875 -57.054688 38.640625 -54.632812 38.640625 -52.210938 C 38.640625 -49.792969 38.554688 -47.371094 38.554688 -45.039062 C 38.554688 -42.617188 38.46875 -40.195312 38.46875 -37.777344 Z M 38.46875 -37.777344"
         id="path3026" />
    </g>
    <g
       id="g">
      <path
         d="M 37.863281 -47.890625 C 37.863281 -46.074219 37.777344 -44.171875 37.777344 -42.359375 C 37.777344 -40.457031 37.777344 -38.640625 37.863281 -36.824219 C 37.863281 -36.394531 37.863281 -35.960938 37.777344 -35.617188 C 37.777344 -35.269531 37.691406 -35.011719 37.691406 -34.664062 C 37.605469 -34.320312 37.691406 -33.972656 37.605469 -33.714844 L 37.085938 -31.8125 C 36.824219 -31.207031 36.566406 -30.601562 36.21875 -29.996094 C 35.960938 -29.304688 35.617188 -28.699219 35.183594 -28.09375 C 34.921875 -27.664062 34.578125 -27.058594 34.230469 -26.625 C 33.886719 -26.191406 33.453125 -25.933594 33.109375 -25.5 C 32.761719 -25.242188 32.417969 -24.984375 32.15625 -24.722656 C 31.898438 -24.464844 31.8125 -24.117188 31.550781 -23.859375 L 30.773438 -23.425781 C 30.253906 -23.082031 29.824219 -22.734375 29.390625 -22.476562 C 29.132812 -22.304688 28.871094 -22.304688 28.699219 -22.128906 C 28.441406 -22.042969 28.179688 -21.871094 27.921875 -21.785156 L 27.574219 -21.523438 C 27.402344 -21.4375 27.316406 -21.265625 27.230469 -21.09375 L 27.230469 -20.402344 C 27.230469 -18.328125 27.058594 -16.164062 27.058594 -14.089844 C 27.058594 -11.929688 27.144531 -9.855469 27.144531 -7.695312 L 27.144531 -1.382812 C 27.144531 -1.125 27.230469 -0.949219 27.230469 -0.691406 C 27.144531 -0.433594 26.882812 -0.171875 26.710938 0 C 26.625 0.0859375 26.539062 0.0859375 26.453125 0.0859375 C 26.277344 0.171875 26.105469 0.257812 25.847656 0.257812 L 21.179688 0.257812 C 19.535156 0.257812 17.980469 0.171875 16.425781 0.171875 C 16.164062 0.171875 16.078125 0.0859375 15.820312 0 C 15.558594 -0.0859375 15.386719 -0.257812 15.300781 -0.519531 C 15.214844 -0.691406 15.128906 -0.863281 15.128906 -1.125 C 15.128906 -1.382812 15.042969 -1.730469 15.042969 -2.074219 C 15.042969 -4.0625 15.214844 -6.050781 15.214844 -8.125 C 15.214844 -10.113281 15.042969 -12.101562 15.042969 -14.175781 C 15.042969 -16.164062 15.214844 -18.152344 15.214844 -20.226562 C 15.214844 -20.402344 15.214844 -20.660156 15.128906 -20.832031 C 15.128906 -21.265625 14.953125 -21.609375 14.609375 -21.785156 C 14.351562 -21.871094 14.175781 -21.957031 14.003906 -22.128906 C 13.746094 -22.214844 13.484375 -22.390625 13.226562 -22.476562 C 12.792969 -22.734375 12.273438 -22.820312 11.84375 -23.167969 C 11.324219 -23.425781 10.976562 -23.945312 10.546875 -24.292969 C 10.113281 -24.636719 9.769531 -25.070312 9.421875 -25.414062 C 8.902344 -25.933594 8.386719 -26.453125 7.953125 -27.058594 C 7.519531 -27.574219 7.089844 -28.007812 6.742188 -28.613281 C 6.398438 -29.21875 6.136719 -29.824219 5.878906 -30.515625 C 5.617188 -30.949219 5.445312 -31.378906 5.273438 -31.8125 C 5.015625 -32.675781 4.753906 -33.539062 4.582031 -34.40625 C 4.582031 -34.835938 4.667969 -35.269531 4.582031 -35.703125 C 4.582031 -36.132812 4.496094 -36.566406 4.582031 -37 C 4.582031 -37.085938 4.320312 -37.171875 4.320312 -37.34375 C 4.320312 -37.34375 4.496094 -37.429688 4.496094 -37.429688 L 4.496094 -37.949219 C 4.496094 -40.285156 4.320312 -42.53125 4.320312 -44.863281 C 4.320312 -47.199219 4.410156 -49.53125 4.410156 -51.78125 C 4.410156 -54.113281 4.496094 -56.449219 4.496094 -58.695312 C 4.496094 -58.867188 4.582031 -58.957031 4.582031 -59.128906 C 4.582031 -59.386719 4.496094 -59.734375 4.667969 -59.992188 C 4.839844 -60.253906 4.925781 -60.511719 5.1875 -60.511719 C 5.445312 -60.597656 5.617188 -60.597656 5.878906 -60.597656 C 7.175781 -60.597656 8.472656 -60.683594 9.855469 -60.683594 L 10.71875 -60.597656 C 11.066406 -60.597656 11.324219 -60.683594 11.671875 -60.683594 C 12.878906 -60.683594 14.003906 -60.511719 15.128906 -60.511719 C 15.300781 -60.511719 15.472656 -60.683594 15.558594 -60.683594 C 15.992188 -60.597656 16.339844 -60.253906 16.425781 -59.820312 C 16.511719 -59.5625 16.339844 -59.300781 16.25 -59.042969 C 16.25 -58.957031 16.425781 -58.867188 16.425781 -58.78125 C 16.425781 -56.535156 16.339844 -54.199219 16.339844 -51.867188 C 16.339844 -49.621094 16.25 -47.285156 16.25 -44.953125 C 16.25 -42.703125 16.339844 -40.371094 16.339844 -38.035156 C 16.339844 -37.691406 16.425781 -37.34375 16.425781 -36.910156 C 16.511719 -36.394531 16.683594 -35.875 16.855469 -35.269531 C 17.03125 -35.097656 16.941406 -34.75 17.117188 -34.492188 C 17.203125 -34.320312 17.546875 -34.230469 17.722656 -33.972656 L 17.894531 -33.800781 C 18.152344 -33.628906 18.328125 -33.367188 18.585938 -33.109375 C 19.191406 -32.761719 19.796875 -32.417969 20.488281 -32.332031 C 20.832031 -32.242188 21.179688 -32.503906 21.523438 -32.503906 C 22.042969 -32.503906 22.476562 -32.589844 22.90625 -32.847656 C 23.425781 -33.023438 23.945312 -33.28125 24.464844 -33.714844 C 24.722656 -33.972656 24.984375 -34.230469 25.15625 -34.578125 C 25.414062 -35.011719 25.585938 -35.441406 25.675781 -35.875 C 25.675781 -36.046875 25.675781 -36.308594 25.761719 -36.480469 C 25.761719 -36.738281 25.933594 -37 25.933594 -37.34375 C 25.933594 -39.332031 25.847656 -41.320312 25.847656 -43.308594 C 25.847656 -45.296875 25.761719 -47.285156 25.761719 -49.359375 C 25.761719 -50.917969 25.847656 -52.558594 25.847656 -54.199219 C 25.847656 -55.84375 26.019531 -57.484375 26.019531 -59.042969 C 26.019531 -59.300781 25.847656 -59.472656 25.847656 -59.734375 C 25.933594 -60.078125 26.277344 -60.511719 26.625 -60.597656 C 26.796875 -60.683594 26.972656 -60.683594 27.144531 -60.683594 C 28.699219 -60.683594 30.253906 -60.511719 31.8125 -60.511719 C 33.453125 -60.511719 35.011719 -60.597656 36.566406 -60.597656 L 37.171875 -60.511719 C 37.429688 -60.339844 37.605469 -60.164062 37.691406 -59.820312 C 37.691406 -59.648438 37.777344 -59.472656 37.777344 -59.214844 C 37.777344 -56.792969 37.863281 -54.289062 37.863281 -51.867188 C 37.863281 -50.570312 37.777344 -49.1875 37.777344 -47.890625 Z M 37.863281 -47.890625"
         id="path3029" />
    </g>
    <clipPath
       id="a">
      <path
         d="M 342.277344 186.96875 L 649.777344 186.96875 L 649.777344 480.96875 L 342.277344 480.96875 Z M 342.277344 186.96875"
         id="path3032" />
    </clipPath>
  </defs>
  <path
     fill="#FFF"
     d="M-76.8 -76.8H844.8000000000001V844.8000000000001H-76.8z"
     id="path3037" />
  <path
     fill="#FFF"
     d="M-76.8 -76.8H844.8000000000001V844.8000000000001H-76.8z"
     id="path3039" />
  <path
     fill="#EF6F6C"
     d="M-76.8 -76.8H844.8000000000001V844.8000000000001H-76.8z"
     id="path3041" />
  <g
     clip-path="url(#a)"
     id="g3045">
    <path
       d="M 643.050781 186.96875 L 582.90625 186.96875 C 580.230469 186.96875 577.558594 188.304688 576.890625 190.976562 L 496.027344 386.753906 L 415.167969 190.976562 C 414.496094 188.304688 411.824219 186.96875 409.152344 186.96875 L 349.007812 186.96875 C 344.996094 186.96875 342.324219 189.640625 342.324219 193.648438 L 342.324219 474.285156 C 342.324219 478.296875 344.996094 480.96875 349.007812 480.96875 L 395.785156 480.96875 C 399.796875 480.96875 402.46875 478.296875 402.46875 474.285156 L 402.46875 293.878906 L 407.148438 293.878906 L 474.644531 456.914062 C 475.980469 459.585938 477.984375 460.921875 480.65625 460.921875 L 512.066406 460.921875 C 514.742188 460.921875 517.414062 459.585938 518.082031 456.914062 L 584.910156 293.878906 L 589.589844 293.878906 L 589.589844 474.285156 C 589.589844 478.296875 592.261719 480.96875 596.269531 480.96875 L 643.050781 480.96875 C 647.0625 480.96875 649.734375 478.296875 649.734375 474.285156 L 649.734375 193.648438 C 649.734375 189.640625 647.0625 186.96875 643.050781 186.96875 Z M 643.050781 186.96875"
       id="path3043" />
  </g>
  <path
     d="M 213.785156 268.90625 C 177.953125 268.90625 148.910156 297.953125 148.910156 333.78125 C 148.910156 369.609375 177.953125 398.65625 213.785156 398.65625 C 249.613281 398.65625 278.660156 369.609375 278.660156 333.78125 C 278.660156 297.953125 249.613281 268.90625 213.785156 268.90625 Z M 213.785156 268.90625"
     id="path3047" />
  <g
     id="g3051">
    <use
       x="125.097"
       y="566.446"
       xlink:href="#b"
       xlink:type="simple"
       xlink:actuate="onLoad"
       xlink:show="embed"
       id="use3049" />
  </g>
  <g
     id="g3055">
    <use
       x="222.864"
       y="566.446"
       xlink:href="#c"
       xlink:type="simple"
       xlink:actuate="onLoad"
       xlink:show="embed"
       id="use3053" />
  </g>
  <g
     id="g3059">
    <use
       x="295.391"
       y="566.446"
       xlink:href="#d"
       xlink:type="simple"
       xlink:actuate="onLoad"
       xlink:show="embed"
       id="use3057" />
  </g>
  <g
     id="g3063">
    <g
       id="use3061"
       transform="translate(374.487,566.44598)">
      <path
         d="m 34.492188,-60.945312 c 0.691406,0 1.46875,-0.171876 2.160156,-0.171876 0.433594,0 0.863281,0.171876 1.296875,0.347657 0.257812,0.08594 0.691406,0.08594 0.863281,0.34375 0.08594,0.08594 0.08594,0.261719 0.175781,0.347656 0.171875,0.257813 0.257813,0.515625 0.34375,0.777344 0.261719,1.035156 0.347657,2.160156 0.347657,3.371093 0,1.125 -0.08594,2.332032 -0.08594,3.371094 V -52.125 c 0,0.08594 0.08594,0.171875 0.08594,0.257812 0,0.171876 0,0.347657 0,0.519532 l -0.175782,0.08594 c 0,1.039063 -0.34375,2.160157 -1.296875,2.59375 -0.34375,0.171875 -0.691406,0.08594 -0.949219,0.171875 -0.257812,0 -0.519531,0.08594 -0.777343,0.08594 -2.335938,0.261718 -4.582031,0.347656 -6.828125,0.691406 -2.25,0.347656 -4.410156,0.777344 -6.484375,2.25 -2.074219,1.382812 -3.976563,3.109375 -5.359375,5.183594 -0.08594,0.261718 -0.347656,0.433594 -0.519532,0.691406 l -0.605468,1.125 c -0.34375,0.691406 -0.433594,1.382812 -0.691406,2.074219 -0.257813,0.691406 -0.257813,1.382812 -0.433594,1.988281 -0.171875,0.605469 -0.605469,1.210938 -0.691406,1.816406 -0.08594,0.691406 -0.08594,1.296875 -0.08594,1.988282 0,1.210937 0.08594,2.335937 0.261719,3.542968 0.08594,0.08594 0.34375,0.08594 0.429687,0.175782 0.08594,0.605468 0.175782,1.121093 0.347656,1.640624 0.605469,1.644532 1.035157,3.285157 1.988282,4.667969 0.863281,1.382813 1.902344,2.851563 3.199218,3.976563 0.34375,0.257812 0.777344,0.347656 1.035157,0.519531 2.421875,1.902344 5.273437,3.023437 8.300781,3.457031 0.429688,0.08594 0.863281,0.433594 1.296875,0.433594 0.863281,0 2.246094,-0.175781 3.542969,-0.175781 1.640625,0 3.285156,0.261719 3.890625,1.386719 0.171875,0.171874 0.429687,0.257812 0.429687,0.515624 0,0.08594 0.08984,0.175782 0.08984,0.347657 0,0.171875 -0.175781,0.429687 -0.175781,0.605469 0,0.171874 0.175781,0.257812 0.175781,0.429687 0,0 0.08594,0.085937 0.08594,0.175781 -0.08594,0.171875 -0.175782,0.34375 -0.08594,0.515625 0,0.089844 0.171875,0.089844 0.171875,0.175781 0,1.554688 -0.171875,3.109376 -0.171875,4.667969 0,0.085938 0.08594,0.171875 0.08594,0.171875 -0.08594,0.171875 -0.175782,0.34375 -0.175782,0.433594 0.08984,0.085938 0,0.171875 -0.08594,0.257812 0,0.085938 0.261719,0.257813 0.261719,0.433594 0,0.429688 -0.261719,0.777344 -0.433594,1.207032 C 38.726562,0.347656 37,0.605469 35.441406,0.605469 c -0.863281,0 -1.726562,-0.085938 -2.417968,-0.085938 -0.175782,0 -0.261719,-0.085937 -0.433594,-0.085937 h -0.08594 c -0.08594,0 -0.171875,0.171875 -0.261718,0.171875 C 30.34375,0.519531 28.527344,0.257812 26.710938,-0.0859375 24.984375,-0.519531 23.167969,-1.125 21.523438,-1.816406 19.796875,-2.507812 18.152344,-3.285156 16.511719,-4.234375 v -0.175781 c -1.902344,-1.207032 -3.632813,-2.59375 -5.1875,-4.0625 -1.554688,-1.554688 -3.027344,-3.199219 -4.234375,-5.097656 -1.210938,-1.816407 -2.074219,-3.804688 -2.855469,-5.878907 -0.171875,-0.347656 -0.171875,-0.777343 -0.34375,-1.125 -0.347656,-0.949219 -0.863281,-1.902343 -1.039063,-2.9375 -0.171874,-0.691406 -0.085937,-1.382812 -0.171874,-2.164062 -0.085938,-0.429688 -0.34375,-0.863281 -0.34375,-1.296875 -0.089844,-0.171875 -0.175782,-0.34375 -0.175782,-0.515625 0,-0.175781 0.175782,-0.433594 0.085938,-0.691407 -0.085938,-2.25 -0.085938,-4.496093 0.261718,-6.742187 0.085938,-0.433594 0.257813,-0.78125 0.34375,-1.125 0.085938,-0.347656 0,-0.691406 0.085938,-1.039063 0.089844,-0.34375 0.175781,-0.777343 0.261719,-1.121093 l 0.257812,-0.691407 c 0.171875,-0.519531 0.261719,-1.039062 0.433594,-1.558593 0.171875,-0.429688 0.171875,-0.949219 0.34375,-1.382813 0.605469,-1.554687 1.558594,-2.9375 2.421875,-4.320312 0.777344,-1.382813 1.902344,-2.59375 2.9375,-3.890625 0.261719,-0.261719 0.175781,-0.777344 0.433594,-1.039063 0.171875,-0.171875 0.519531,-0.257812 0.691406,-0.429687 1.382812,-1.558594 3.027344,-2.941407 4.753906,-4.152344 1.730469,-1.207031 3.71875,-2.246094 5.621094,-3.023437 1.988281,-0.867188 3.976562,-1.558594 6.050781,-1.988282 1.382813,-0.261718 2.679688,-0.261718 4.0625,-0.261718 z m 0,0"
         id="path3664" />
    </g>
  </g>
  <g
     id="g3067">
    <g
       id="use3065"
       transform="translate(453.237,566.44598)">
      <path
         d="m 38.46875,-37.777344 c 0,2.335938 0.257812,4.667969 0.257812,7.089844 0,2.332031 -0.08594,4.753906 -0.08594,7.089844 v 7.085937 c 0,0.261719 -0.171875,0.519531 -0.171875,0.777344 0.08594,0.261719 0.171875,0.433594 0.171875,0.605469 0,0.433594 -0.08594,0.777344 -0.171875,1.210937 -0.08594,0.433594 -0.171875,0.863281 -0.261719,1.210938 l -0.257812,1.640625 c -0.08594,0.175781 -0.171875,0.433594 -0.171875,0.605468 -0.08594,0.08594 -0.171875,0.175782 -0.171875,0.261719 -0.175781,0.429688 -0.261719,0.863281 -0.433594,1.207031 -0.261719,0.519532 -0.691406,1.039063 -1.039063,1.558594 -0.171874,0.429688 -0.34375,0.863282 -0.691406,1.210938 -0.257812,0.34375 -0.519531,0.691406 -0.777344,1.035156 l -1.035156,1.039062 c -0.261718,0.171876 -0.519531,0.429688 -0.695312,0.605469 -0.34375,0.34375 -0.777344,0.515625 -1.121094,0.863281 -0.433594,0.257813 -0.863281,0.605469 -1.382812,0.863282 -0.347657,0.175781 -0.691407,0.433594 -1.125,0.605468 -0.519532,0.261719 -0.949219,0.605469 -1.46875,0.863282 -0.347657,0.089844 -0.691407,0.089844 -0.953126,0.175781 C 26.710938,-0.0859375 26.453125,-0.0859375 26.277344,0 26.191406,0 26.191406,0.0859375 26.105469,0.171875 25.5,0.257812 24.984375,0.257812 24.378906,0.257812 24.117188,0.347656 23.773438,0.433594 23.511719,0.433594 h -0.34375 c -0.08594,0 -0.261719,0.085937 -0.347657,0.085937 V 0.433594 C 22.5625,0.347656 22.304688,0.691406 22.042969,0.605469 c -0.34375,0 -0.691407,0 -1.125,-0.085938 -0.34375,0 -0.777344,0 -1.121094,-0.085937 C 19.363281,0.347656 18.929688,0.257812 18.414062,0.171875 L 17.722656,0 c -0.519531,-0.171875 -1.039062,-0.433594 -1.558594,-0.605469 -0.605468,-0.257812 -1.296874,-0.433593 -1.902343,-0.777343 -0.601563,-0.347657 -1.035157,-0.863282 -1.554688,-1.210938 -0.433593,-0.257812 -0.777343,-0.605469 -1.125,-0.863281 -0.515625,-0.433594 -1.035156,-0.691407 -1.46875,-1.125 C 9.855469,-4.839844 9.683594,-5.359375 9.421875,-5.617188 9.078125,-6.050781 8.730469,-6.570312 8.472656,-7.003906 8.125,-7.519531 7.605469,-8.039062 7.347656,-8.644531 7.003906,-9.25 6.914062,-10.027344 6.65625,-10.71875 l -0.347656,-1.125 c 0,-0.34375 -0.171875,-0.605469 -0.257813,-0.949219 -0.085937,-0.261719 -0.085937,-0.519531 -0.171875,-0.867187 -0.085937,-0.34375 0,-0.777344 0,-1.207032 0,-0.261718 -0.261718,-0.519531 -0.261718,-0.78125 V -16.25 c 0,-2.078125 0.089843,-4.152344 0.089843,-6.226562 0,-1.988282 0.085938,-4.0625 0.085938,-6.136719 0,-2.074219 -0.085938,-4.148438 -0.085938,-6.136719 0,-2.074219 0,-4.148438 0,-6.226562 v -6.136719 c 0,-2.074219 0.085938,-4.148438 0.085938,-6.136719 0,-2.074219 -0.085938,-4.148438 -0.085938,-6.222656 0,-0.175782 0.085938,-0.347656 0.171875,-0.605469 0.085938,-0.175781 0.085938,-0.433594 0.34375,-0.519531 h 0.261719 c 1.640625,0 3.285156,0.171875 4.839844,0.171875 1.640625,0 3.199219,-0.08594 4.839843,-0.08594 0.08594,0 0.175782,0.08594 0.347657,0.08594 0.171875,0 0.429687,0.08594 0.429687,0.171875 0.08984,0.175781 0.08984,0.347656 0.08984,0.519531 0,0.08594 -0.08984,0.171875 -0.08984,0.261719 0,2.074218 0.08984,4.0625 0.08984,6.136718 v 6.050782 c 0,1.988281 -0.175781,4.0625 -0.175781,6.050781 0,2.074219 0.08594,4.0625 0.08594,6.136719 0,1.988281 -0.08594,4.0625 -0.08594,6.050781 v 6.050781 c 0,2.078125 0,4.066406 0,6.140625 v 0.429688 c -0.08594,0 0.175781,0.08594 0.175781,0.175781 0,0.171875 -0.175781,0.34375 -0.175781,0.429688 0.08594,0.261718 0.08594,0.605468 0.175781,0.867187 0.08594,0.429687 0.257812,0.863281 0.429688,1.292969 0.175781,0.347656 0.433593,0.605468 0.691406,0.953125 0.347656,0.433593 0.777344,0.777343 1.296875,1.125 0.433593,0.257812 0.953125,0.515625 1.46875,0.605469 0.347656,0.171874 0.691406,0.257812 1.039062,0.257812 0.605469,0 1.125,-0.171875 1.730469,-0.347656 0.605469,-0.171875 1.207031,-0.429688 1.726562,-0.863282 0.261719,-0.171874 0.433594,-0.34375 0.605469,-0.519531 0.171875,-0.171875 0.433594,-0.34375 0.519531,-0.515625 0.257813,-0.433594 0.433594,-0.867187 0.519532,-1.296875 0.171875,-0.347656 0.34375,-0.691406 0.34375,-1.039062 0,-0.257813 0.08594,-0.519531 0.08594,-0.777344 0,-0.08594 0,-0.171875 0,-0.171875 v -0.261719 c 0,-0.171875 -0.257812,-0.34375 -0.257812,-0.519531 0,-2.074219 0.171875,-4.0625 0.171875,-6.136719 0,-1.988281 -0.08594,-3.976562 -0.08594,-6.050781 v -6.050781 c 0,-1.988281 0.171875,-3.976563 0.171875,-6.050781 0,-1.988282 -0.171875,-3.976563 -0.171875,-6.050782 0,-1.988281 0.08594,-3.976562 0.08594,-6.050781 0,-1.988281 0.08594,-3.976563 0.08594,-6.050781 0,-0.175782 -0.171875,-0.347656 -0.08594,-0.519532 0.08594,-0.347656 0.261718,-0.433593 0.605468,-0.433593 0.08594,0 0.171876,-0.171875 0.171876,-0.171875 1.644531,0 3.199218,0.171875 4.84375,0.171875 1.554687,0 3.195312,-0.171875 4.753906,-0.171875 0.171875,0 0.257812,0 0.429687,0.08594 0.175781,0 0.261719,0.171875 0.261719,0.347657 l 0.171875,0.429687 c 0,0.08594 -0.171875,0.261719 -0.171875,0.347656 0,2.332031 0.171875,4.753907 0.171875,7.175781 0,2.417969 -0.08594,4.839844 -0.08594,7.171876 0,2.421874 -0.08594,4.84375 -0.08594,7.261718 z m 0,0"
         id="path3668" />
    </g>
  </g>
  <g
     id="g3071">
    <g
       id="use3069"
       transform="translate(532.24701,566.44598)">
      <path
         d="m 4.410156,-30.429688 c 0,-1.8125 -0.089844,-3.714843 -0.089844,-5.53125 0,-1.902343 0.175782,-3.71875 0.175782,-5.617187 0,-1.816406 -0.175782,-3.71875 -0.175782,-5.535156 v -5.617188 c 0,-1.816406 0.089844,-3.71875 0.089844,-5.535156 0,-0.429687 0,-0.777344 0.085938,-1.121094 0.085937,-0.347656 0.34375,-0.605469 0.605468,-0.777343 0.257813,-0.175782 0.515626,-0.08984 0.863282,-0.175782 0.691406,-0.08594 1.382812,-0.171875 2.074218,-0.171875 2.246094,0 4.496094,0.257813 6.742188,0.257813 3.71875,-0.08594 6.398438,-0.171875 6.742188,-0.08594 0.433593,0 0.867187,-0.08594 1.210937,-0.08594 h 0.691406 c 0.261719,0.08594 0.519531,0.171875 0.691407,0.171875 0.777343,0.08984 1.46875,0.433594 2.160156,0.605468 0.695312,0.175782 1.386718,0.347657 2.078125,0.605469 l 1.207031,0.519531 c 0.261719,0.08594 0.605469,0.347657 0.867188,0.519532 0.34375,0.08594 0.605468,0.257812 0.863281,0.34375 0.08594,0.08594 0.257812,0 0.347656,0 l 1.898437,1.296875 c 0.261719,0.261719 0.605469,0.605469 0.953126,0.867187 0.257812,0.257813 0.605468,0.605469 0.949218,0.863282 0.347656,0.34375 0.519532,0.777343 0.867188,1.125 0.34375,0.429687 0.863281,0.777343 1.207031,1.296874 0.261719,0.34375 0.519531,0.777344 0.78125,1.207032 0.34375,0.433594 0.601563,0.867187 0.863281,1.296875 l 0.08594,0.347656 c 0.347656,0.605469 0.519531,1.296875 0.777344,1.988281 0.261718,0.605469 0.347656,1.210938 0.519531,1.816406 0.171875,0.429688 0.34375,0.949219 0.433593,1.382813 0.171876,0.515625 0.08594,1.035156 0.171876,1.554687 0,0.34375 0.257812,0.691407 0.257812,1.125 0,0 -0.08594,0 -0.08594,0 v 1.726563 c 0,0.347656 -0.08594,0.691406 -0.08594,1.039063 0,0.257812 0,0.429687 0,0.605468 l -0.257813,1.726563 c -0.08984,0.433593 -0.08984,0.867187 -0.175781,1.296875 -0.171875,0.605468 -0.515625,1.125 -0.777343,1.730468 -0.171876,0.433594 -0.257813,0.949219 -0.429688,1.382813 -0.261719,0.34375 -0.433594,0.777344 -0.605469,1.125 -0.175781,0.34375 -0.261719,0.777344 -0.433593,1.121094 -0.257813,0.433593 -0.605469,0.691406 -0.863282,1.039062 -0.347656,0.519531 -0.691406,1.035157 -1.039062,1.46875 -0.08594,0.171875 -0.08594,0.257813 -0.08594,0.433594 -0.08594,0.257813 -0.171875,0.519531 0,0.777344 0.171875,0.257812 0.34375,0.519531 0.605469,0.777343 0.34375,0.605469 0.863281,1.125 1.210937,1.730469 0.257813,0.515625 0.515626,1.121094 0.691407,1.640625 0.171875,0.347656 0.429687,0.605469 0.519531,0.953125 0.257812,0.601563 0.257812,1.207031 0.429688,1.898438 0.08594,0.519531 0.433593,1.125 0.433593,1.644531 0.08594,0.34375 -0.08594,0.777344 -0.08594,1.125 v 1.554688 c 0,2.160156 0.08594,4.320312 0.08594,6.398437 0,2.160156 0,4.320313 0,6.394531 v 0.691406 c -0.08594,0.261719 -0.171875,0.519532 -0.347656,0.691407 l -0.257813,0.261719 C 39.59375,-0.0859375 39.246094,0 38.988281,0 38.898438,0 38.898438,0 38.8125,0 H 29.996094 C 29.738281,0 29.476562,-0.0859375 29.21875,-0.171875 28.785156,-0.347656 28.355469,-0.605469 28.265625,-1.125 c 0,-0.171875 0.175781,-0.429688 0.175781,-0.605469 0,-1.988281 -0.08594,-3.976562 -0.08594,-5.964843 0,-1.988282 0.08594,-3.976563 0.08594,-5.964844 -0.08594,-0.515625 -0.261718,-1.121094 -0.261718,-1.640625 -0.08594,-0.777344 -0.171876,-1.46875 -0.429688,-2.074219 -0.261719,-0.433594 -0.433594,-0.953125 -0.777344,-1.296875 -0.433594,-0.433594 -0.953125,-0.691406 -1.558594,-0.949219 -0.257812,-0.175781 -0.605468,-0.175781 -0.863281,-0.261718 -0.519531,-0.08594 -1.039062,-0.34375 -1.554687,-0.34375 h -0.08984 c -0.691406,0 -1.382812,0.08594 -2.160156,0.08594 -0.691406,0 -1.382813,0.08594 -2.160156,0.08594 h -1.125 c -0.171876,0.08594 -0.519532,0 -0.691407,0.171876 -0.08594,0.08594 -0.171875,0.171874 -0.171875,0.261718 -0.08594,0.171875 -0.08594,0.429688 -0.08594,0.691406 -0.08594,1.8125 0.08594,3.714844 0.08594,5.53125 0,1.816407 -0.08594,3.714844 -0.08594,5.53125 0,1.816407 0.08594,3.71875 0.08594,5.53125 0,0.261719 -0.171875,0.433594 -0.257812,0.695313 0,0.34375 -0.08984,0.691406 -0.433594,0.863281 -0.08594,0.085938 -0.257812,0.171875 -0.519531,0.257813 -0.171875,0 -0.433594,0.085937 -0.691407,0.085937 -2.851562,0 -5.617187,-0.085937 -8.386718,-0.085937 -0.257813,0 -0.601563,0.171875 -0.777344,0.085937 C 5.015625,-0.519531 4.753906,-0.949219 4.582031,-1.46875 L 4.320312,-2.246094 c 0,-0.175781 0.175782,-0.433594 0.175782,-0.605468 v -6.917969 c 0,-2.332031 0,-4.582031 0,-6.914063 v -6.828125 c 0,-2.335937 -0.085938,-4.582031 -0.085938,-6.917969 z m 12.101563,-9.765624 c 0,1.988281 0.08594,3.886718 0.08594,5.875 0,0.261718 -0.08594,0.519531 -0.08594,0.867187 v 0.171875 c 0,0.171875 0.171875,0.257812 0.171875,0.347656 0.08594,0.171875 0.171875,0.257813 0.347656,0.429688 0.171875,0.08594 0.34375,0.261718 0.605469,0.261718 h 2.074219 c 0.691406,-0.08984 1.382812,0 2.074218,-0.08984 0.34375,0 0.777344,0.08984 1.121094,0 0.867188,-0.171875 1.558594,-0.691407 2.335938,-1.121094 0.433593,-0.261719 0.949218,-0.347656 1.296874,-0.691406 0.257813,-0.261719 0.519532,-0.519531 0.777344,-0.867188 0.347656,-0.34375 0.605469,-0.949219 0.863282,-1.382812 0.261718,-0.429688 0.347656,-0.863281 0.519531,-1.296875 0.171875,-0.429688 0.347656,-0.863282 0.347656,-1.382813 0.08594,-0.34375 0.257813,-0.605469 0.257813,-0.949219 0.08594,-0.433593 -0.08594,-0.777343 -0.08594,-1.210937 -0.08594,-0.605469 -0.257812,-1.125 -0.433594,-1.730469 -0.171875,-0.515625 -0.429687,-1.121094 -0.777344,-1.640625 l -0.863281,-1.039062 c -0.261719,-0.34375 -0.777343,-0.515625 -1.125,-0.777344 -0.433593,-0.257813 -0.777343,-0.519531 -1.210937,-0.777344 l -1.210938,-0.519531 c -0.34375,-0.08594 -0.601562,-0.171875 -0.949218,-0.171875 -0.171876,-0.08594 -0.433594,-0.257813 -0.605469,-0.257813 -0.257813,0 -0.605469,0.08594 -0.863281,0.08594 h -3.371094 c -0.171875,0 -0.347656,0.08594 -0.519532,0.08594 -0.347656,0 -0.519531,0.34375 -0.605468,0.605468 0,0.429688 -0.171875,0.777344 -0.171875,1.210938 z m 0,0"
         id="path3672" />
    </g>
  </g>
  <g
     id="g3075">
    <g
       id="use3073"
       transform="translate(611.34302,566.44598)">
      <path
         d="m 37.863281,-47.890625 c 0,1.816406 -0.08594,3.71875 -0.08594,5.53125 0,1.902344 0,3.71875 0.08594,5.535156 0,0.429688 0,0.863281 -0.08594,1.207031 0,0.347657 -0.08594,0.605469 -0.08594,0.953126 -0.08594,0.34375 0,0.691406 -0.08594,0.949218 L 37.08593,-31.8125 c -0.261719,0.605469 -0.519532,1.210938 -0.867188,1.816406 -0.257812,0.691406 -0.601562,1.296875 -1.035156,1.902344 -0.261719,0.429688 -0.605469,1.035156 -0.953125,1.46875 -0.34375,0.433594 -0.777344,0.691406 -1.121094,1.125 -0.347656,0.257812 -0.691406,0.515625 -0.953125,0.777344 -0.257812,0.257812 -0.34375,0.605468 -0.605469,0.863281 l -0.777343,0.433594 c -0.519532,0.34375 -0.949219,0.691406 -1.382813,0.949219 -0.257813,0.171874 -0.519531,0.171874 -0.691406,0.347656 -0.257813,0.08594 -0.519531,0.257812 -0.777344,0.34375 l -0.347656,0.261718 c -0.171875,0.08594 -0.257813,0.257813 -0.34375,0.429688 v 0.691406 c 0,2.074219 -0.171875,4.238282 -0.171875,6.3125 0,2.160156 0.08594,4.234375 0.08594,6.394532 v 6.3125 c 0,0.257812 0.08594,0.433593 0.08594,0.691406 C 27.144531,-0.433594 26.882812,-0.171875 26.710938,0 26.625,0.0859375 26.539062,0.0859375 26.453125,0.0859375 26.277344,0.171875 26.105469,0.257812 25.847656,0.257812 h -4.667968 c -1.644532,0 -3.199219,-0.085937 -4.753907,-0.085937 -0.261719,0 -0.347656,-0.0859375 -0.605469,-0.171875 -0.261718,-0.0859375 -0.433593,-0.257812 -0.519531,-0.519531 -0.08594,-0.171875 -0.171875,-0.34375 -0.171875,-0.605469 0,-0.257812 -0.08594,-0.605469 -0.08594,-0.949219 0,-1.988281 0.171875,-3.976562 0.171875,-6.050781 0,-1.988281 -0.171875,-3.976562 -0.171875,-6.050781 0,-1.988281 0.171875,-3.976563 0.171875,-6.050781 0,-0.175782 0,-0.433594 -0.08594,-0.605469 0,-0.433594 -0.175781,-0.777344 -0.519531,-0.953125 -0.257813,-0.08594 -0.433594,-0.171875 -0.605469,-0.34375 -0.257812,-0.08594 -0.519531,-0.261719 -0.777344,-0.347656 -0.433593,-0.257813 -0.953124,-0.34375 -1.382812,-0.691407 -0.519531,-0.257812 -0.867188,-0.777343 -1.296875,-1.125 -0.433594,-0.34375 -0.777344,-0.777343 -1.125,-1.121093 -0.519531,-0.519532 -1.035156,-1.039063 -1.46875,-1.644532 -0.433594,-0.515625 -0.863281,-0.949218 -1.210937,-1.554687 -0.34375,-0.605469 -0.605469,-1.210938 -0.863282,-1.902344 -0.261718,-0.433594 -0.433594,-0.863281 -0.605468,-1.296875 -0.257813,-0.863281 -0.519532,-1.726562 -0.691407,-2.59375 0,-0.429688 0.085938,-0.863281 0,-1.296875 0,-0.429687 -0.085937,-0.863281 0,-1.296875 0,-0.08594 -0.261719,-0.171875 -0.261719,-0.34375 0,0 0.175782,-0.08594 0.175782,-0.08594 v -0.519531 c 0,-2.335937 -0.175782,-4.582031 -0.175782,-6.914062 0,-2.335938 0.089844,-4.667969 0.089844,-6.917969 0,-2.332031 0.085938,-4.667969 0.085938,-6.914062 0,-0.171876 0.085937,-0.261719 0.085937,-0.433594 0,-0.257813 -0.085937,-0.605469 0.085938,-0.863282 0.171875,-0.261718 0.257812,-0.519531 0.519531,-0.519531 0.257812,-0.08594 0.429688,-0.08594 0.691406,-0.08594 1.296875,0 2.59375,-0.08594 3.976563,-0.08594 l 0.863281,0.08594 c 0.347656,0 0.605469,-0.08594 0.953125,-0.08594 1.207031,0 2.332031,0.171875 3.457031,0.171875 0.171875,0 0.34375,-0.171875 0.429688,-0.171875 0.433594,0.08594 0.78125,0.429688 0.867187,0.863282 0.08594,0.257812 -0.08594,0.519531 -0.175781,0.777343 0,0.08594 0.175781,0.175781 0.175781,0.261719 0,2.246094 -0.08594,4.582031 -0.08594,6.914062 0,2.246094 -0.08984,4.582032 -0.08984,6.914063 0,2.25 0.08984,4.582031 0.08984,6.917969 0,0.34375 0.08594,0.691406 0.08594,1.125 0.08594,0.515625 0.257813,1.035156 0.429688,1.640625 0.175781,0.171875 0.08594,0.519531 0.261719,0.777343 0.08594,0.171876 0.429687,0.261719 0.605468,0.519532 l 0.171875,0.171875 c 0.257813,0.171875 0.433594,0.433593 0.691407,0.691406 0.605468,0.347656 1.210937,0.691406 1.902343,0.777344 0.34375,0.08984 0.691407,-0.171875 1.035157,-0.171875 0.519531,0 0.953124,-0.08594 1.382812,-0.34375 0.519531,-0.175782 1.039062,-0.433594 1.558594,-0.867188 0.257812,-0.257812 0.519531,-0.515625 0.691406,-0.863281 0.257812,-0.433594 0.429688,-0.863281 0.519531,-1.296875 0,-0.171875 0,-0.433594 0.08594,-0.605469 0,-0.257812 0.171875,-0.519531 0.171875,-0.863281 0,-1.988281 -0.08594,-3.976562 -0.08594,-5.964844 0,-1.988281 -0.08594,-3.976562 -0.08594,-6.050781 0,-1.558594 0.08594,-3.199219 0.08594,-4.839844 0,-1.644531 0.171875,-3.285156 0.171875,-4.84375 0,-0.257812 -0.171875,-0.429687 -0.171875,-0.691406 0.08594,-0.34375 0.429688,-0.777344 0.777344,-0.863281 0.171875,-0.08594 0.347656,-0.08594 0.519531,-0.08594 1.554688,0 3.109375,0.171875 4.667969,0.171875 1.640625,0 3.199219,-0.08594 4.753906,-0.08594 l 0.605469,0.08594 c 0.257813,0.171875 0.433594,0.347657 0.519531,0.691407 0,0.171874 0.08594,0.347656 0.08594,0.605468 0,2.421875 0.08594,4.925782 0.08594,7.347656 0,1.296876 -0.08594,2.679688 -0.08594,3.976563 z m 0,0"
         id="path3676" />
    </g>
  </g>
</svg>
